<?xml version="1.0" encoding="UTF-8"?><svg id="uuid-28f55d99-ae83-4ec8-b327-e698b2dd7dfc" xmlns="http://www.w3.org/2000/svg" viewBox="0 0 113.92 152.06">
<title>Minnesota Vikings 1966-2012 logo - Brandlogos.net</title><path d="M106.22,85.51c.29-1.6,1.18-3.37.41-5.08.85-.47,1.8-.95,2.72-1.42.07-1.07-.3-4.23-3.84-6.5,0,0,1.57-.54.83-3.72-4.31.35-3.19-4.49-4.37-6.91,3.63-2.07,4.52-6.29,3.43-8.98-1.09,1.91-2.54,3.54-4.55,3.84-9.88-25.63-35.08-32.06-50.04-31.24,0,0-.47,3.71-1.29,5.19-10.87-2.84-10.57-14.71-15.71-22.15-1.21-1.69-4.46-5.81-8.17-6.5-.73-.1-.98.41-.92.71,7.68,5.2,8.48,14.01,9.22,22.51.62,7.15,5.12,11.21,9.79,14.7-.26.24-.65,1.02-.87,1.48-6.03,1.71-13.28.72-18.3-2.65-10.16-6.66-7.65-19.35-10.47-29.37-.83-2.6-2.16-6.16-4.83-7.56-.84-.46-1.65.03-1.25.58,1.95,2.78,3.37,5.85,3.54,9.33.06,8.98-2.13,18.52,1.32,26.95,5.13,11.45,14.62,19.71,26.15,22.14-.37,4.05.02,7.53.71,11.34-12.37,6.7-21.96,13.73-37.84,38.29-.49.99-.02,1.94,1.32.7,15.57-14.47,41.23-21.63,57.35,2.46,7.75,12.22,7.07,20.82,6.59,28.85,0,2.79-1.7,6.67.82,7.74,2.7,1.16,5.39-5.67,5.39-6.62.59-.59.87-1.81.92-2.7.56-.42.86-2.37.73-3.41,1.62-1.92,3.06-6.71,1.27-9.5.6-1.61.67-5.78-.33-8.03.56-2.44,1.13-7.98-.88-10.51,2.9-3.27,6.7-5.94,10.5-7.56.94,7.15,2.36,16.26-3.91,21.16-.42.28-.35.76.42.55,10.07-3.38,12.21-22.55,12.9-24.94,3.35-1.74,12.9-4.32,15.76-5.37,3-1.14.92-5.18-.25-6.61-.59-.75-2.28-1.11-4.23-1.21ZM104.67,69.51l.14,1.11c-2.07.51-5.16,2.52-5.83,1.16-.6-1.2,2.11-1.4,2.58-1.99.26-.33.03-.89-.59-1-1.48.02-2.29.05-2.89.23-1.26,1.05-1.16,3.62-.6,4.46-2.73,1.24-5.42,3.99-6.96,5.64-.71-3.54,1.89-6.08,4.49-7.92.59-.56.24-4.13-.24-5.97-.49-.21-1.32,0-1.39-.41,0-.4,3.24-.48,4.59-.54-.35-2.24,2.34-2.62,3.16-1.32,1,2.18.29,6.19,3.54,6.54ZM104.51,56.03c-.18,1.71-1.3,3.25-2.83,4.13-4.31,1.89-10.04-.89-14,1.83.06-1.48.81-3.53,3.06-3.69,5.66-.24,9.7,1.61,13.78-2.28ZM98.54,56.73c-7.74-.41-16.21.76-23.24,2.89-1.06,10.88-13.9,14.96-21.42,6.62,0,0-2.85.63-11.46,4.55-1.06-1.42-1.96-4.89-.32-5.66,2.23-1.21,3.93-2.22,6.25-2.76,1.94-.44,5.04.54,6.55.96,8.54,5.14,17.26,5.27,19.44-9.95,0,0,11.04-2.72,21.51-2.02,0,0,1.63,2.26,2.69,5.38ZM41.42,63.29v-1.89l3.25.47c-1,.3-2.13.86-3.25,1.42ZM52.23,26.96c33.01.84,42.53,22.68,42.53,22.68-6.33-.53-14.46.64-20.85,2.01-3.42-8.67-8.59-12.23-28.36-10.52,2.71-4.94,5.99-8.19,6.67-14.18ZM38.47,32.22c-1.68-3.15-2.83-7.12-3.26-11.02.03-.15.12-.16.19-.1.39,2.11.75,3.83,1.66,5.33.17.17.48.1.41-.21-.68-1.95-1.39-4.24-1.75-6.78.08-.11.16-.25.24-.05.62,1.6,1.6,4.34,2.33,5.14.11.14.47.1.44-.18-.29-.85-.94-2.52-1.14-3.36-.12-.28.11-.17.2-.1,1.82,5,4.58,7.64,8.06,9.77,1.26.86.83,4.37-2.01,4.96-2.42.41-4.25-1.59-5.38-3.43ZM41.97,55.34c-.7-.9-3.81,1.54-4.22,1.1-.25-.2,1.4-.83,1-1.12-1.06-.71-2.87.71-3.13.41-.18-.28.67-.41.41-.83-.75-.76-3.43.74-3.66.3-.16-.32,1.97-.71,1.54-1.3-.7-.68-2.89.78-6.09-.68-11.87-6.25-15.01-18.7-15.38-23.89.04-.17.04-.22.15-.08.93,4.55,2.73,10.85,6.84,14.02.21.14.43-.16.3-.3-4.37-3.44-6.03-11.2-6.24-17.9-.02-.26.07-.28.16-.06.3,5.08,1.71,11.17,5.79,15,.17.14.47-.08.3-.29-3.95-4.73-5.09-10.74-5.07-16.53.04-.23.19-.15.18-.08.24,6.91,3.36,12.77,9.03,17.2,10.57,7.95,28.23-.45,38.26,2.93,14.98,4.4,10.3,17.58,5.81,19.87-1.02-1.07-1.71.41-2.12.18-.45-.29.52-.73-.07-1.09-.56-.23-1.25.61-1.76.38-.3-.13.52-.72.11-.98-.89-.59-1.96,1.26-2.41.98-.36-.24,1.52-1.15.77-1.78-.98-.74-2.3,1.23-2.72.89-.65-.46,2.7-1.94,1.42-2.54-.71-.36-2.94,1.97-3.43,1.54-.38-.35,2.74-1.63,1.85-2.27-.74-.41-4.54,2.29-5.1,1.86-.42-.33,3.36-2.16,2.48-2.86-1.1-.75-4.74,3.12-5.43,2.45-.53-.43,3.1-1.86,2.22-2.74-.85-.82-4.53,2.87-5.53,2.15-.46-.31,3.71-1.96,2.6-2.8-1.09-.63-5.45,2.94-5.85,2.38-.35-.46,3.68-1.95,3.13-2.66-1.12-1.07-5.16,2.46-5.67,1.95-.49-.48,3.18-1.71,2.51-2.23-1.12-.79-4.86,2.12-5.23,1.52-.35-.55,3.11-1,2.26-2.11ZM14.6,100.76c-3.17,2.14-5.65,3.95-8.74,7.01-.28.21-.41-.14-.13-.49,18.8-28.06,41.22-37.06,46.67-38.45,1.07-.21.96.38.53.66-10.29,3.97-27.41,14.17-34.72,26.53-1.11,1.88-2.01,3.66-3.6,4.74ZM28.77,96.51c-3.94,1.13-7.24,1.99-10.66,3.22-.31.13-.82.07-.63-.33,8.05-14.53,22.86-23.26,37.1-29.46.42-.21.72.27.38.41-10.55,5.13-18.18,15.36-24.52,24.96-.16.24-1.08,1.04-1.66,1.2ZM32.57,96.16c-.56-.21-.51-.8-.37-1.14,6.79-8.33,12.1-18.91,22.44-23.16.82-.23,1.9-.81,2.77-.46,2.01.84,5.41,2.11,9.63.98,8.36-2.59,9.41-10.67,9.41-10.67,2.07-.53,4.14-1.18,6.38-1.42-2.42,14-21.92,19.79-22.68,34.44-5.79,1.14-13.01-3.4-14.11-10.16-1.45,2.87-3.37,6.28-6.75,9.22-1.93,1.52-4.76,3.01-6.72,2.38ZM70.48,113.62c-1.27-1.03-2.42-2.25-3.96-2.72-.18-5.44,3.56-11.6,4.8-13.5.48-.75.98-.26,1.25.73,2.72,8.28-1.42,11.74-2.1,15.49ZM74.03,110.49c1.34.84.64,7.66-.83,11.16-1.04-1.49-2.27-2.75-2.93-3.42.91-2.23,3.13-8.02,3.76-7.74ZM71.78,83.38c-.22.1-.82-.7-1.14-.53-.37.22.97,2.13.97,2.13.05,11.3-5.95,13.66-5.91,20.55-1.21-.95-2.79-2.33-4.32-2.93-2.72-10.67,10.43-24.78,11.17-24.17.32.34-.49,4.7-.76,4.94ZM38.66,95.97c3.13-1.95,5.48-5.34,6.72-7.86.36.89.9,1.87,1.24,2.72-1.6,1.96-3.93,4.64-6.28,5.5-.85.15-2.23.18-1.67-.37ZM54.15,103.45c-3.66-3.13-7.59-5.13-12.02-6.43,1.71-1.25,4.02-3.36,5.37-5.14.22.21.55.57.73.75-.18,4.49,2.09,7.98,6.05,10.05.63.28.21,1.11-.14.76ZM49.81,94.01c3.15,2.12,6.5,3.08,10.04,2.84v5.14c-9.86-1.16-10.04-7.98-10.04-7.98ZM60.01,109.33c-1.05-.63-5.24-4.55-3.7-5.81,1.64-1.7,8.92,3.13,8.92,3.13-.06,1.18-.36,2.3-.24,3.54,0,0-3.87-.1-4.98-.87ZM63.1,114.75c-.53-1-1.58-2.22-.98-2.99.97-.88,5.39.63,7.66,3.11-.24,1.11-.56,1.89-.83,3.01-2.25-.36-4.67-.77-5.85-3.13ZM66.94,122.37c-.46-.84-1.16-2.74-.41-3.37.93-.51,4.82,1.38,6.12,3.75.21.56-.86,2.58-1.28,2.65-.39.2-3.77-1.49-4.43-3.03ZM73.02,130.46c0,.82-.68,1.9-1.02,1.87-.41.12-3.6-1.73-3.84-3.57-.18-.94-.28-2.66.19-2.85.88-.25,3.96,2.6,4.67,4.55ZM68.24,149.19c-.98-.56-.4-2.76.29-3.96.59.41,1.07,1.12,1.63,1.7-.21.56-.96,2.65-1.92,2.26ZM70.73,145.78c-.83-.87-1.13-1.61-2.19-2.26-.35-.35-.04-1.19.23-1.12.84.39,2.1,1.74,2.42,2.93.08.3-.16.66-.46.45ZM71.62,143.65c-.78-1.01-1.83-2.06-2.8-2.89-.46-.27.04-1.11.55-.99,1.19.41,2.14,2.06,2.67,3.37.07.42-.28.65-.42.52ZM72.42,141.38c-.4-.98-2.48-3.05-3.63-4.07-.63-.49.45-1.54.87-1.19,1.77,1.36,3.9,4.33,2.76,5.25ZM73.11,138.94c-.83-1.95-2.27-3.75-4.04-4.93-.63-.35-.56-1.85,0-1.71,2.07.71,4.15,3.24,4.62,5.31.21.76-.22,1.96-.57,1.33ZM75.52,129.77c.68.5.15,4.17-1.07,5.83l-1.54-2.12c.83-1.3,2.13-4,2.61-3.71ZM73.73,129.46c-.28-1.23-1.03-1.89-1.38-3.03.28-.42,2.27-4.73,2.68-4.59.72.37-.03,5.59-1.3,7.62ZM74.91,107.66c1.12-4.67-.71-8.8-2.42-12.64.61-3.03.74-5.56,1.12-8.59.23-.65,1.03-.77,1.3-.33.82,6.76,3.6,9.13,9.63,8.8l.41,4.55c-3.84,1.6-7.09,4.9-10.04,8.21ZM84.63,92.8c-5.58,1.67-8.79-1.75-8.29-9.42-.67-1.07-2.48,1.36-2.72.59-.05-8.08,3.49-8.48,4.83-10.43,1.31.17,2.77.66,3.47,1.61,2.16,3.38,1.62,7.46,2.92,11.24.32.67.95,0,.95,0-1.42-5.2.12-12.58-6.2-14.77,2.54-3.48,3.53-7.28,4.6-11.36.41-.47,1.31-.57,1.78-.4-.18,1.59-.82,3.01-.59,4.84.14,1.09,2.22-1.32,3.43-1.89,1.7-.88,4.45-.66,6.81-.3.49.07.42.55-.07.62-2.3.24-5.84.69-6.03,1.69,0,.74,2.66,1.48,4.25,1.54.23.85.47,1.94.33,2.94-2.96,1.42-6.71,5.16-4.6,11.34-2.3,3.48-3.82,7.87-4.86,12.16ZM94.76,94.72c-2.55,7.74-3.71,18.02-6.99,22.48-.06.09-.24.08-.17-.1,3.87-7.72,3.17-14.66,5.44-22.09.12-.28-.19-.65-.44-.23-2.59,3.41-3.04,16.97-5.22,21.15-.07.16-.32.19-.24-.13,2.6-9.81.55-19.24,4.59-26.76.15-.27-.31-.7-.71-.24-1.77,3.19-3.84,9.72-3.27,17.47.03.43-.32.49-.38.02-1.12-9.04-2.01-18.07,4.36-25.88,2.68-3.29,6.7-6.34,9.39-7.03,6.33-1.34,7.21,4.61,7.21,4.61-7.44,2.13-11.43,10.17-13.59,16.72ZM96.85,95.36c-.37-.23-.34-.99.02-1.12,2.2-.6,8.44-2.04,8.76-1.35.12.19-8.32,2.71-8.78,2.47ZM110.48,91.47c-4.67-.24-9.15.25-13.17,1.12.76-4.59,6.88-11.55,8.09-10.88,1.15.64-1.35,3.9.06,4.89,1.07.62,2.33.21,3.22.54,1.98.91,2.45,4.14,1.79,4.33Z"/><path d="M74.34,53.38c-2.19,15.22-10.9,15.09-19.44,9.95-1.51-.42-4.62-1.4-6.55-.96-2.32.54-4.01,1.55-6.25,2.76-1.64.77-.74,4.24.32,5.66,8.61-3.92,11.46-4.55,11.46-4.55,7.52,8.34,20.35,4.25,21.42-6.62,7.03-2.13,15.5-3.3,23.24-2.89-1.06-3.12-2.69-5.38-2.69-5.38-10.47-.7-21.51,2.02-21.51,2.02Z" style="fill:#3c1e5e;"/><path d="M111.75,85.65c-.62-.8-1.76-1.33-3.44-1.62.21-.84.38-1.77.27-2.75.49-.25,1.53-.79,1.53-.79.53-.27.87-.8.91-1.39.12-1.91-.68-4.69-3.15-6.91.35-.86.5-2.08.1-3.8-.19-.81-.94-1.36-1.77-1.29-1.22.1-1.5-.12-1.93-2.87-.09-.57-.18-1.14-.31-1.7,3.43-2.68,4.24-6.81,2.98-10.29-.54-1.5-2.41-1.17-3.01-.19-.72,1.18-1.4,2.05-2.15,2.54-4.63-10.98-12.66-19.58-23.31-24.91-8.46-4.24-18.58-6.38-27.76-5.88-.81.04-1.47.66-1.57,1.46-.12.93-.36,2.27-.64,3.31-5.36-2.07-7.25-7.09-9.25-12.39-1.12-2.96-2.27-6.02-4.08-8.63-1.7-2.38-5.15-6.43-9.25-7.19-3.28-.28-3.35,3.04-2.17,3.74,7.06,4.78,7.78,13.16,8.49,21.27.62,7.11,4.71,11.39,8.93,14.73-5.33,1.14-11.5.1-15.71-2.73,0,0,0,0-.01,0,0,0,0,0,0,0-6.49-4.26-7.46-11.14-8.15-18.77-.45-4.96-1.63-9.69-1.64-9.71-1.06-3.31-2.55-6.91-5.64-8.52-1.17-.63-2.52-.47-3.3.41-.66.74-.71,1.81-.1,2.64,3.28,4.48,3.48,8.5,3.2,12.93-1.39,12.14-.73,18.29,2.24,24.86,6.92,13.33,17.36,19.04,25.17,20.95-.17,3.39.17,6.39.62,9.14-11.19,6.15-21.28,13.36-37.39,38.28-1.33,1.75.3,5.7,3.86,2.83,9.85-9.15,22.04-13.87,32.62-12.64,8.84,1.04,16.31,6.01,22.18,14.79,7.31,11.54,6.95,20.74,6.05,30.24-.23,2.42-.9,5.7,2.1,6.97,1.06.45,2.24.32,3.32-.38,2.19-1.43,3.85-5.23,4.29-7.04.65-.91.89-2.06.98-2.79.65-1.03.8-2.56.8-3.51,1.73-2.48,2.88-7.02,1.37-10.24.5-2.14.45-5.64-.38-7.98.31-1.64,1.08-6.71-.54-10.13,2.03-2.09,4.46-3.91,7.05-5.28.52,6.38,1.72,12.78-3.58,17.34-1.33,1.05-1.23,4.3,1.98,3.46,9.75-3.15,12.86-19.5,13.83-25.37,2.4-1.07,13.9-4.6,14.88-4.96,1.65-.63,2.27-1.79,2.5-2.66.66-2.45-1.04-5.38-2.02-6.59ZM110.7,93.33c-2.86,1.05-12.41,3.63-15.76,5.37-.7,2.39-2.83,21.57-12.91,24.94-.77.21-.84-.27-.42-.55,6.26-4.9,4.85-14.01,3.91-21.16-3.8,1.62-7.59,4.28-10.49,7.56,2.01,2.53,1.44,8.07.88,10.51,1,2.25.93,6.42.33,8.03,1.79,2.79.36,7.59-1.27,9.5.13,1.04-.16,2.99-.73,3.41-.04.89-.33,2.1-.91,2.7,0,.95-2.7,7.78-5.39,6.62-2.52-1.07-.83-4.95-.82-7.74.49-8.03,1.16-16.63-6.58-28.85-16.11-24.1-41.78-16.93-57.35-2.46-1.33,1.24-1.81.29-1.32-.7,15.88-24.56,25.47-31.59,37.84-38.29-.69-3.81-1.08-7.29-.71-11.34-11.53-2.43-21.01-10.69-26.15-22.14-3.46-8.44-1.27-17.97-1.32-26.95-.18-3.49-1.59-6.56-3.54-9.33-.4-.55.41-1.05,1.25-.58,2.67,1.39,4,4.95,4.83,7.56,2.81,10.02.3,22.71,10.47,29.37,5.02,3.37,12.28,4.36,18.3,2.65.22-.46.61-1.24.87-1.48-4.67-3.49-9.17-7.55-9.79-14.7-.74-8.5-1.54-17.31-9.22-22.51-.06-.3.2-.81.92-.71,3.71.69,6.96,4.81,8.17,6.5,5.14,7.44,4.84,19.32,15.71,22.15.83-1.48,1.29-5.19,1.29-5.19,14.96-.82,40.16,5.61,50.04,31.24,2.01-.3,3.46-1.93,4.55-3.84,1.09,2.69.2,6.91-3.43,8.98,1.18,2.42.06,7.27,4.37,6.91.74,3.18-.83,3.72-.83,3.72,3.54,2.27,3.91,5.42,3.84,6.5-.92.47-1.87.95-2.72,1.42.77,1.71-.12,3.49-.41,5.08,1.96.09,3.65.46,4.23,1.21,1.17,1.43,3.24,5.47.25,6.61Z" style="fill:#fff;"/><path d="M45.85,30.68c-3.48-2.13-6.24-4.77-8.06-9.77-.09-.08-.33-.18-.2.1.21.84.85,2.5,1.14,3.36.03.28-.33.31-.44.18-.73-.8-1.71-3.54-2.33-5.14-.08-.21-.16-.06-.24.05.35,2.54,1.07,4.82,1.75,6.78.07.31-.24.38-.41.21-.9-1.5-1.27-3.22-1.66-5.33-.07-.06-.16-.05-.19.1.44,3.9,1.58,7.87,3.26,11.02,1.12,1.83,2.95,3.84,5.38,3.43,2.84-.59,3.26-4.1,2.01-4.96Z" style="fill:#fff;"/><path d="M44.93,55.92c.67.52-2.99,1.75-2.51,2.23.51.51,4.55-3.02,5.67-1.95.55.71-3.48,2.2-3.13,2.66.4.55,4.76-3.01,5.85-2.38,1.11.84-3.07,2.49-2.6,2.8,1,.72,4.68-2.97,5.53-2.15.88.88-2.75,2.31-2.22,2.74.69.67,4.33-3.2,5.43-2.45.88.7-2.9,2.54-2.48,2.86.56.44,4.36-2.27,5.1-1.86.89.64-2.23,1.92-1.85,2.27.48.44,2.72-1.9,3.43-1.54,1.29.6-2.07,2.08-1.42,2.54.42.33,1.74-1.63,2.72-.89.75.63-1.13,1.54-.77,1.78.45.28,1.53-1.57,2.41-.98.41.26-.4.85-.11.98.51.23,1.2-.61,1.76-.38.59.35-.38.8.07,1.09.42.23,1.1-1.25,2.12-.18,4.49-2.3,9.17-15.48-5.81-19.87-10.03-3.38-27.68,5.02-38.26-2.93-5.67-4.43-8.79-10.29-9.03-17.2.01-.07-.14-.15-.18.08-.02,5.79,1.12,11.8,5.07,16.53.17.21-.12.44-.3.29-4.08-3.84-5.49-9.93-5.79-15-.09-.22-.17-.2-.16.06.22,6.7,1.87,14.46,6.24,17.9.14.14-.09.43-.3.3-4.11-3.17-5.91-9.47-6.84-14.02-.11-.14-.12-.09-.15.08.36,5.18,3.51,17.64,15.38,23.89,3.19,1.45,5.39,0,6.09.68.43.59-1.7.98-1.54,1.3.23.44,2.91-1.06,3.66-.3.26.41-.6.54-.41.83.26.3,2.07-1.12,3.13-.41.4.29-1.25.92-1,1.12.41.44,3.52-2,4.21-1.1.84,1.1-2.61,1.56-2.27,2.11.37.61,4.11-2.31,5.23-1.52Z" style="fill:#fff;"/><path d="M94.09,69.31c.14-1-.1-2.09-.33-2.94-1.6-.06-4.27-.79-4.25-1.54.19-1,3.73-1.46,6.03-1.69.49-.07.56-.55.07-.62-2.36-.35-5.11-.57-6.81.31-1.21.57-3.29,2.98-3.43,1.89-.23-1.83.41-3.25.59-4.84-.47-.18-1.37-.07-1.78.4-1.06,4.08-2.06,7.87-4.6,11.36,6.32,2.19,4.78,9.57,6.2,14.77,0,0-.63.68-.95,0-1.3-3.78-.76-7.86-2.92-11.24-.7-.95-2.16-1.44-3.47-1.61-1.34,1.95-4.88,2.34-4.83,10.43.24.77,2.05-1.66,2.72-.59-.49,7.68,2.71,11.1,8.3,9.42,1.04-4.29,2.56-8.67,4.86-12.16-2.11-6.17,1.64-9.92,4.6-11.34Z" style="fill:#eec6a5;"/><path d="M97.97,64.29c-1.35.06-4.6.13-4.59.54.07.42.9.2,1.39.41.47,1.83.83,5.4.24,5.97-2.6,1.83-5.2,4.37-4.49,7.92,1.54-1.65,4.24-4.4,6.96-5.64-.56-.84-.65-3.42.6-4.46.6-.18,1.42-.21,2.89-.23.62.12.85.67.59,1-.47.59-3.18.79-2.58,1.99.67,1.36,3.76-.65,5.83-1.16l-.14-1.11c-3.25-.35-2.54-4.36-3.54-6.54-.81-1.3-3.51-.92-3.15,1.32Z" style="fill:#eec6a5;"/><path d="M108.68,87.14c-.9-.33-2.15.08-3.22-.54-1.41-.99,1.09-4.25-.06-4.89-1.22-.67-7.33,6.29-8.09,10.88,4.02-.87,8.51-1.36,13.17-1.12.66-.2.19-3.43-1.79-4.33Z" style="fill:#eec6a5;"/><path d="M74.91,86.09c-.27-.44-1.07-.32-1.3.33-.38,3.04-.51,5.56-1.12,8.59,1.71,3.84,3.54,7.97,2.42,12.64,2.96-3.31,6.21-6.62,10.04-8.21l-.41-4.55c-6.04.33-8.81-2.04-9.63-8.8Z" style="fill:#eec6a5;"/><path d="M96.87,94.23c-.36.13-.4.9-.02,1.12.46.24,8.9-2.28,8.78-2.47-.32-.69-6.56.74-8.76,1.35Z" style="fill:#eec6a5;"/><path d="M41.42,61.4v1.89c1.12-.55,2.25-1.12,3.25-1.42l-3.25-.47Z" style="fill:#eebf1b;"/><path d="M73.91,51.65c6.4-1.37,14.53-2.54,20.85-2.01,0,0-9.53-21.84-42.53-22.68-.68,5.98-3.96,9.23-6.67,14.18,19.77-1.72,24.94,1.84,28.36,10.52Z" style="fill:#eebf1b;"/><path d="M90.73,58.31c-2.24.15-3,2.21-3.06,3.69,3.96-2.72,9.69.06,14-1.83,1.53-.89,2.66-2.42,2.83-4.13-4.08,3.89-8.12,2.04-13.78,2.28Z" style="fill:#eebf1b;"/><path d="M46.04,84.56c1.1,6.77,8.32,11.3,14.11,10.16.77-14.65,20.26-20.44,22.69-34.44-2.24.24-4.31.89-6.38,1.42,0,0-1.06,8.08-9.41,10.67-4.22,1.13-7.62-.14-9.63-.98-.87-.35-1.95.23-2.77.46-10.34,4.25-15.64,14.84-22.44,23.16-.14.35-.19.93.37,1.14,1.96.62,4.79-.86,6.72-2.39,3.38-2.94,5.29-6.34,6.75-9.22Z" style="fill:#eebf1b;"/><path d="M52.93,69.5c.43-.27.53-.86-.53-.66-5.45,1.39-27.87,10.39-46.67,38.45-.28.35-.14.7.13.49,3.09-3.07,5.57-4.87,8.74-7.01,1.6-1.08,2.49-2.86,3.6-4.74,7.32-12.35,24.43-22.56,34.72-26.53Z" style="fill:#eebf1b;"/><path d="M54.95,70.34c.35-.14.04-.62-.38-.41-14.24,6.2-29.05,14.92-37.1,29.46-.19.4.32.47.63.33,3.42-1.22,6.73-2.08,10.66-3.22.58-.17,1.5-.96,1.66-1.2,6.35-9.6,13.97-19.83,24.52-24.96Z" style="fill:#eebf1b;"/><path d="M108.35,78s-.88-5.95-7.21-4.61c-2.68.7-6.7,3.75-9.39,7.04-6.37,7.81-5.48,16.84-4.36,25.88.06.48.41.41.37-.02-.57-7.75,1.5-14.28,3.27-17.47.4-.46.87-.03.71.24-4.04,7.52-2,16.95-4.59,26.76-.08.32.16.29.24.13,2.18-4.18,2.63-17.74,5.22-21.15.25-.42.56-.05.44.23-2.28,7.43-1.57,14.36-5.44,22.09-.07.18.1.19.17.1,3.28-4.47,4.44-14.75,6.99-22.49,2.16-6.55,6.14-14.59,13.59-16.72Z" style="fill:#eebf1b;"/><path d="M72.54,78.44c-.74-.62-13.89,13.5-11.17,24.17,1.54.59,3.11,1.97,4.32,2.93-.04-6.89,5.96-9.26,5.91-20.56,0,0-1.34-1.9-.97-2.13.32-.17.93.63,1.15.53.27-.24,1.07-4.6.76-4.94Z" style="fill:#eebf1b;"/><path d="M46.61,90.83c-.34-.85-.88-1.84-1.24-2.72-1.23,2.53-3.59,5.92-6.72,7.86-.55.54.82.52,1.67.37,2.35-.87,4.69-3.55,6.28-5.5Z" style="fill:#eebf1b;"/><path d="M54.29,102.69c-3.96-2.07-6.23-5.56-6.05-10.05-.18-.18-.51-.54-.73-.75-1.36,1.77-3.66,3.89-5.38,5.14,4.43,1.3,8.36,3.3,12.02,6.43.35.35.77-.48.14-.76Z" style="fill:#eebf1b;"/><path d="M59.85,96.85c-3.55.24-6.89-.72-10.04-2.84,0,0,.18,6.82,10.04,7.98v-5.14Z" style="fill:#eebf1b;"/><path d="M71.33,97.41c-1.24,1.9-4.98,8.07-4.8,13.5,1.54.47,2.69,1.69,3.96,2.72.67-3.75,4.82-7.21,2.1-15.49-.27-.99-.78-1.48-1.25-.73Z" style="fill:#eebf1b;"/><path d="M65.23,106.65s-7.28-4.83-8.92-3.13c-1.54,1.25,2.65,5.18,3.7,5.81,1.12.77,4.98.87,4.98.87-.12-1.24.18-2.36.24-3.54Z" style="fill:#eebf1b;"/><path d="M73.2,121.66c1.47-3.51,2.17-10.32.83-11.16-.63-.28-2.85,5.51-3.76,7.74.66.68,1.9,1.93,2.93,3.42Z" style="fill:#eebf1b;"/><path d="M69.77,114.87c-2.27-2.48-6.69-3.99-7.66-3.11-.6.77.45,1.99.98,2.99,1.18,2.36,3.6,2.78,5.85,3.13.27-1.12.58-1.9.83-3.01Z" style="fill:#eebf1b;"/><path d="M71.37,125.4c.42-.07,1.49-2.09,1.28-2.65-1.3-2.36-5.2-4.26-6.12-3.75-.75.62-.05,2.52.41,3.37.66,1.54,4.04,3.22,4.43,3.03Z" style="fill:#eebf1b;"/><path d="M72.35,126.43c.36,1.14,1.11,1.8,1.38,3.03,1.27-2.04,2.02-7.26,1.3-7.62-.42-.14-2.4,4.18-2.68,4.59Z" style="fill:#eebf1b;"/><path d="M68.36,125.91c-.47.19-.37,1.91-.19,2.85.24,1.84,3.43,3.69,3.84,3.57.33.04,1.02-1.04,1.02-1.87-.71-1.95-3.79-4.8-4.67-4.55Z" style="fill:#eebf1b;"/><path d="M72.91,133.48l1.54,2.12c1.23-1.65,1.76-5.33,1.07-5.83-.48-.3-1.78,2.4-2.61,3.71Z" style="fill:#eebf1b;"/><path d="M69.07,132.29c-.56-.14-.63,1.36,0,1.71,1.77,1.18,3.21,2.98,4.04,4.93.35.63.78-.57.57-1.33-.47-2.07-2.55-4.6-4.62-5.31Z" style="fill:#eebf1b;"/><path d="M69.66,136.13c-.42-.35-1.5.7-.87,1.19,1.15,1.02,3.23,3.08,3.63,4.07,1.14-.92-.99-3.89-2.76-5.25Z" style="fill:#eebf1b;"/><path d="M69.37,139.77c-.51-.12-1.01.72-.55.99.98.83,2.02,1.88,2.8,2.89.14.14.49-.1.42-.52-.53-1.3-1.49-2.95-2.67-3.37Z" style="fill:#eebf1b;"/><path d="M68.77,142.4c-.28-.07-.59.77-.24,1.12,1.06.65,1.36,1.39,2.19,2.26.3.21.55-.16.46-.45-.32-1.19-1.58-2.54-2.42-2.93Z" style="fill:#eebf1b;"/><path d="M68.54,145.23c-.7,1.2-1.27,3.39-.3,3.96.96.39,1.71-1.7,1.92-2.26-.55-.58-1.04-1.28-1.62-1.7Z" style="fill:#eebf1b;"/></svg>