<?xml version="1.0" encoding="UTF-8"?><svg id="Layer_1" xmlns="http://www.w3.org/2000/svg" viewBox="0 0 483.93 233.38"><defs><style>.cls-1{fill:#fffffe;}.cls-2{fill:#9e7c0c;}.cls-3{fill:#241773;}.cls-4{fill:#c60c30;}</style></defs><path class="cls-1" d="M483.34,143.59c-1.96-11.92-9.82-29.42-36.18-45.16-1.78-1.06-3.65-2.1-5.58-3.12,4.93-1.66,10.03-3.37,10.03-3.37l-29.22-11.38c-2.5-.98-5.12-1.85-7.78-2.71l3.97-4.02-22.4-3.13c-9.68-1.36-17.32-1.67-23.17-1.58-.06-.94-.13-1.81-.23-2.59,0,0-3.74-28.03-3.74-28.03,0,0-8.67,11.82-9.53,13-1.84-3.07-3.93-5.95-6.33-8.66,0,0-24.16-27.3-24.16-27.3,0,0,.96,8.03,1.74,14.44-7.83-5.46-16.45-10.34-25.98-14.42C265.9-1.1,216.73-4.56,169.88,6.05,130.7,14.92,74.12,38.07,27.12,97.91L0,132.45l40.83-16.25c.33-.13,31.84-12.4,57.25-15.98,9.48-1.34,16.74-1.44,10.84,11.53-4.64,10.24-15.19,25.17-15.3,25.32l-20.44,29.7,34.1-11.83c16.4-5.7,31.12-8.51,38.57-8.77,2.66.05,3.15,1.8,2.31,3.71-.24.66-.38,1.01-2.22,3.83l-21.38,30.49,35.07-12.55c25.45-9.12,58.91-15.13,70.88-10.56.98.37,4.14,2.05,1,6.64l-13.77,21.89s20.34-3.08,23.23-3.53c1.6,19.99,11.64,30.89,12.87,32.15l14.77,15.14,5.19-20.5c3.72-14.75,10.74-22.79,17-27.17,0,0,1.2,8.42,1.2,8.42l13.7-4.93c11.52-4.16,20.63-9.15,27.19-14.85,8.68-.69,29.89-1.95,50.26.07,35.11,3.47,58.66-1.19,65.04-2.71,8.54-2.02,15.73,1.62,15.81,1.67l10.44,5.67,5.63-10.56c.67-1.27,3.85-7.86,3.85-17.63,0-2.42-.2-4.87-.59-7.27"/><path class="cls-2" d="M478.45,145.61c-1.74-10.55-8.89-26.16-33.14-40.65-6.48-3.86-13.53-7.16-20.65-9.97l8.59-2.88-11.8-4.6c-5.84-2.28-11.98-4.15-18.31-5.68,1.22-1.23,2.53-2.57,2.53-2.57l-9.04-1.27c-13.92-1.95-23.53-1.72-29.19-1.19.05-1.22.09-2.51.09-3.8,0-1.82-.07-3.61-.26-5.06l-1.52-11.32s-5.5,7.5-6.29,8.59c-1.82-5.04-4.8-11.29-10.24-17.45l-9.77-11.04,1.11,9.21c-8.78-8.15-20.93-16.71-37.58-23.85C265.21,5.89,217.31,2.55,171.59,12.9c-38.32,8.68-93.65,31.33-139.65,89.9l-11.59,14.77,17.45-6.95c.33-.13,32.79-12.97,59.18-16.5,10.35-1.37,17.49-.15,20.11,3.46,2.44,3.38,1.65,10.06-2.14,17.9-5.19,10.75-15.79,26.18-15.9,26.35l-8.74,12.69,14.58-5.05c19.21-6.67,43.43-11.61,49.05-7.94,1.3.85,2,1.85,2.27,3.24.9,4.66-3.12,11.73-4.6,13.85l-9.15,13.02,15-5.36c23.97-8.59,66.94-18.43,80.22-8.26,6.14,4.71.4,14.01.15,14.4l-5.9,9.38,10.94-1.67,5.36-.83c-.03.86-.09,1.73-.09,2.54,0,21.16,10.72,32.42,11.23,32.95l6.32,6.47,2.22-8.78c6.22-24.64,20.94-33.17,29.15-36.06.23,1.63,1.37,9.61,1.37,9.61l5.86-2.11c14.36-5.18,22.4-10.86,26.82-15.12,6.61-.58,30.81-2.4,54.05-.11,34.23,3.39,56.98-1.11,63.14-2.57,11.35-2.68,20.57,2.22,20.67,2.27l4.51,2.46,2.42-4.53c.15-.28,3.07-5.95,3.07-14.52,0-1.92-.15-4-.51-6.2"/><path d="M442.3,110.08c-10.12-7.15-23.76-12.35-36.99-16.07,5.51-1.78,11.03-1.66,11.03-1.66-8.48-3.24-17.33-5.26-25.56-6.54l3.08-2.76c-15.08-2.57-25.61-2.37-31.85-1.72.79-3.09,1.42-7.8.62-14.1,0,0-1.83,5.43-6.27,8.8-.58-7.04-2.84-17.23-10.49-24.14l1.42,12.43c-6.74-10.14-19.57-23.11-43.82-34.44C237.54-.91,121.37,10.76,57.6,93.03c0,0,24.8-12.38,59.15-13.2,18-.42,22.37,9.65,15.82,26.61-6.6,17.05-18.15,32.02-18.15,32.02,0,0,77.75-27.52,53.2,10.71,0,0,58.69-17.56,76.3,3.04,8.18,9.56-1.35,22.92-1.35,22.92l16.65-3.6c-5.4,21.12,4.05,34.61,4.05,34.61,6.87-27.61,30.83-34.97,39.31-36.36l1.83,7.48c14.21-5.13,20.9-10.6,24.72-15.1,30.1-4.73,50.54-.69,73.74.58,33.8,1.84,51.27-4.04,56.85-4,4.1.04,8.96,3.61,8.96,3.61,0,0,14.05-23.69-26.39-52.28"/><path class="cls-1" d="M414.55,155c-23.4.11-44.25-5.84-72.52-2.35l-9.47-7.6c-2.56,6.56-6.07,11.02-6.07,11.02,3.12-5.58-.07-12.21-1.39-15.45-11.64-6.19-30.7-18.02-14.52-21.88-10.08-1.5-40.8-4.53-79.29,6.45,0,0,35.58-23.74,104.01-12.58-18.49-11.02-59-10.57-59-10.57,36.91-9.22,81.46,5.36,98,10.76l-15.41-11.13,19.47,1.68-10.47-8.43s41.42,2.94,68.38,20.89c31.51,18.44,27.65,37.8,27.65,37.8-7.39-15.47-62.09-26.03-125.29-33.49-16.88-1.98-24.01-.88-23.29,3.05.67,3.7,10.42,11.02,20.17,14.86-6.98-6.69-.92-8.4-.92-8.4,11.09-.91,82.7,5.79,119.27,21.45-9.91,2.31-22.51,3.83-39.34,3.92h0ZM205.2,117.28c-.36.23-.73.47-1.09.71-.39.28-.79.55-1.19.82l-.57.39c-1.72.09-3.41.15-5.05.15l-15.16.87c-9,.46-24.2,2.28-29.25,2.92l-1.71.21c11.78-41.18,22.41-55.61,29.53-62.67,4.23-5.16,11.72-8.65,17.72-10.69-40.32,1.92-79.52,10.21-79.52,10.21,25.35-19.65,84.13-33.38,118.02-29.93,33.88,3.46,31.57,17.18,28.09,25.01-2.82,6.33-16.66,14.9-29.68,17.68,13.47,1.76,21.11,12.14,16.28,22.52-.42.89-.89,1.75-1.41,2.58-14.38,3.41-27.14,8.82-37.62,14.73-.37.21-.73.43-1.09.63-.49.28-.98.57-1.46.86l-1.11.66c-.46.28-.9.56-1.35.83-.37.24-1.96,1.24-2.38,1.52h0Z"/><path class="cls-3" d="M285.16,32.51c73.21,21.83,62.13,63.78,62.13,63.78,0,0-5.91.37-12.89-12.65-6.58-12.29-16.31-13.87-16.31-13.87,0,0,7.18-.66,17.27,3.73,0,0-14.17-21.24-54.64-19.6,0,0,20.41,2.51,29.05,13.91,0,0-27.49-4.32-52.21,8.46,0,0,22.05-3.64,38.97,7.74,0,0-25.36-1.9-39.28,12.54,12.39-2.29,25.82-3.03,39.89-1.37,9.21,1.4,17.04,3.26,22.8,4.86-14.33-1.58-29.53-1.54-43.63,1.99,0,0,40.51-.46,59,10.57-68.42-11.16-104.01,12.58-104.01,12.58,38.49-10.98,69.2-7.95,79.29-6.45-16.19,3.86,2.87,15.7,14.52,21.88,1.32,3.24,4.51,9.87,1.39,15.45-7.65,10.49-16.2,12.62-16.2,12.62,5.06-12.79-1.12-21.92-1.12-21.92,0,0-4.28,13.17-22.85,20.92-20.36,8.51-23.52,20.93-23.52,20.93,0,0-.74-11.35,10.02-23.28,3.46-3.85,6-7.05,7.6-9.85l-22.76,6.23c15.27-44.33-72.85-26.5-72.85-26.5,3.24-4.59,9.49-10.51,18.1-16.42.39-.27.79-.54,1.19-.82.36-.24.73-.48,1.09-.71.42-.28.84-.55,1.26-.82l1.11-.7c.44-.28.89-.56,1.35-.83l1.11-.66c.48-.29.98-.57,1.46-.86.37-.21.73-.42,1.09-.63,10.47-5.91,23.24-11.32,37.62-14.73.51-.83.99-1.69,1.41-2.58,4.83-10.37-2.8-20.76-16.28-22.52,13.02-2.77,26.86-11.35,29.68-17.68,3.48-7.83,5.79-21.56-28.09-25.01-33.88-3.45-92.67,10.28-118.02,29.93,0,0,39.2-8.29,79.52-10.21-6,2.04-13.49,5.54-17.72,10.69-7.12,7.06-17.75,21.49-29.53,62.67l1.71-.21-15.08,2.36s23.06-36.83,7.84-52.5c-13.08-13.47-56.7.24-56.7.24,43.33-41.45,121.4-63.02,196.22-40.72h0ZM208.37,106.36c-2.29.58-4.51.78-6.38.78h-8.66s3.48-10.83,9.07-22.65h3.4c8.07,0,12.55,4.53,7.52,15.34-1.29,2.76-3.01,4.88-4.95,6.52h0ZM223.41,68.98c-2.44.72-5.16,1.14-8.05,1.14h-6.07c3.76-8.65,6.77-13.93,8.85-17.07,7.91.07,11.13,4.01,6.94,12.99-.52,1.14-1.09,2.11-1.66,2.94h0Z"/><path d="M225.07,66.04c-.52,1.14-1.09,2.11-1.66,2.94,4.85-1.44,8.6-4.12,10.45-7.32,4.06-7.08.95-12.16-5.6-12.85l-6.8.02s-1.18.97-3.33,4.22c7.91.07,11.13,4.01,6.94,12.99M213.32,99.84c-1.29,2.76-3.01,4.88-4.95,6.52,5.13-1.27,10.68-4.34,13.73-10.9,5.03-10.82.55-15.35-7.51-15.35h-10.03c-.75,1.47-1.47,2.93-2.16,4.38h3.4c8.07,0,12.55,4.53,7.52,15.34"/><path class="cls-2" d="M261.92,44.43c-3.17-5.2-10.9-8.27-24.63-8.97,0,0-13.9-1.88-31.49.47-6.96.93-40.8,4.37-69.61,18.42,25.2-6.13,54.97-8.38,73.83-9.06,7.93-.28,16.64-.03,16.64-.03,5.64,0,10.87,1.66,12.87,4.95,2.08,3.4,2.65,7.48-1.26,12.46-2.15,2.75-4.68,5.64-12.01,8.62l8.45-1.8c12.63-2.7,24.09-9.78,26.72-15.28,1.92-4.01,2.03-7.23.48-9.78"/><path class="cls-2" d="M200.8,76.6h13.91c7.18,0,10.48,2.94,11.99,5.42,2.37,3.88,1.95,9.11-.99,15.65-5.66,12.63-19.39,13.76-23.51,13.76l-15.79.6c6.84-21.69,14.37-35.44,14.37-35.44h0ZM208.04,115.46c10.04-6.19,22.61-12.08,36.96-16.07.91-1.21,1.69-2.48,2.31-3.83,1.44-3.09,1.61-6.93.58-9.97-1.55-4.61-4.63-7.68-14.36-9.96-12.8-2.99-31.49-1.67-31.49-1.67,4.3-10.43,7.51-16.53,10.73-21.82-2.76-.18-16.71,1.3-27.41,11.5-9.32,8.23-19.39,29.62-27.4,55.08,13.78-1.45,26.27-2.1,26.27-2.1l13.1-.57c3.44,0,7.07-.19,10.72-.6h0Z"/><path class="cls-4" d="M324.72,80.65c2.1,4.96-.79,10.47-6.46,12.31-5.66,1.84-11.96-.7-14.06-5.66-2.1-4.97.8-10.49,6.46-12.32,5.66-1.84,11.96.7,14.06,5.67ZM324.21,83.68c-1.14-2.98-4.61-4.47-7.77-3.33-3.15,1.12-4.8,4.45-3.65,7.42,1.14,2.98,4.62,4.47,7.78,3.35,3.16-1.13,4.8-4.46,3.65-7.43h0Z"/><path class="cls-1" d="M310.15,87.95c-1.58-3.73.7-7.92,5.08-9.35,1.69-.55,3.44-.61,5.05-.26-2.19-1.38-5.15-1.81-7.93-.91-4.39,1.42-6.67,5.6-5.08,9.36.97,2.3,3.18,3.9,5.76,4.45-1.27-.8-2.29-1.92-2.88-3.3"/></svg>