<?xml version="1.0" encoding="UTF-8"?><svg id="uuid-303636d6-e8a2-433e-b01a-7dacc3ff45bc" xmlns="http://www.w3.org/2000/svg" viewBox="0 0 188.98 48.69">
<title>Buffalo Bills Wordmark logo - Brandlogos.net</title><path d="M187.82,27.61c-.75-1.73-1.82-3.31-3.15-4.65-1.33-1.33-2.91-2.4-4.65-3.15-1.77-.76-3.68-1.16-5.61-1.15h-13.13c-.68,0-1.29-.12-1.87-.37-.59-.26-1.09-.59-1.53-1.02-.43-.43-.92-1.31-.87-2.6.04-1.03.43-1.64.87-2.07.43-.43.94-.76,1.53-1.02.58-.25,1.19-.37,1.87-.37h7.14c.63,0,1.21.12,1.77.36.57.25,1.09.61,1.54,1.05.46.46.8.96,1.06,1.54.24.56.36,1.15.36,1.82v.41h13.54V.27h-13.54v.63c-1.5-.52-3.09-.79-4.74-.79h-10.42c-1.95,0-3.9.39-5.68,1.15-1.73.74-3.34,1.81-4.65,3.15-1.31,1.34-2.37,2.91-3.11,4.65-.77,1.78-1.15,3.71-1.15,5.68s.38,4.65,1.15,6.43c.75,1.73,1.82,3.31,3.15,4.62,1.34,1.31,2.91,2.37,4.65,3.11,1.79.77,3.71,1.16,5.68,1.15h13.13c.63,0,1.21.12,1.77.36.58.25,1.09.6,1.54,1.05s.96,1.37.94,2.01c-.04,1.33-.5,2.18-.93,2.62-.43.45-.92.79-1.49,1.04-.56.25-1.16.36-1.83.36h-7.14c-.68,0-1.29-.12-1.87-.37-.6-.25-1.09-.59-1.53-1.02-.43-.43-.77-.93-1.02-1.53-.25-.58-.37-1.19-.37-1.87v-.4h-13.54v16.13c4.52,0,9.02,0,13.54,0v-.64c1.52.53,3.12.81,4.77.81h10.42c1.94,0,3.87-.38,5.68-1.16,1.73-.75,3.31-1.82,4.62-3.15,1.32-1.34,2.37-2.91,3.11-4.65.77-1.78,1.15-3.71,1.15-5.68s-.39-4.62-1.15-6.39" style="fill:#00338d;"/><path d="M64.91,11.7V.16h-20.18v11.54c1.68,0,3.4.32,3.4,2.83v19.65c0,2.45-1.74,2.94-3.4,2.94v11.54h20.18v-11.54c-2.24,0-3.4-.49-3.4-3V14.47c0-1.95.75-2.77,3.4-2.77" style="fill:#00338d;"/><path d="M30.35,16.38c-.25.58-.61,1.11-1.05,1.56-.43.45-.92.79-1.49,1.04-.56.25-1.15.36-1.82.36h-9.92c0-3.18,0-5.05,0-8.24,3.74,0,6.18,0,9.92,0,.63,0,1.21.12,1.77.36.58.25,1.08.6,1.54,1.05.46.46.8.96,1.05,1.54.24.56.24,1.74,0,2.3h0ZM30.34,34.41c-.25.6-.61,1.12-1.04,1.57-.43.45-.92.79-1.49,1.04-.56.25-1.15.36-1.82.36h-9.92c0-3.18,0-5.05,0-8.24h9.92c.63,0,1.21.12,1.77.36.58.26,1.08.6,1.54,1.05.46.46.8.96,1.06,1.54.24.56.24,1.71,0,2.29h0ZM42.66,8.96c-.74-1.72-1.8-3.31-3.11-4.65-1.32-1.34-2.9-2.41-4.62-3.15C33.15.38,31.23,0,29.26,0H0v11.54c1.69,0,2.94.44,2.94,2.45v20.34c0,1.63-1.24,2.63-2.94,2.63v11.54h29.26c1.95,0,3.87-.38,5.68-1.16,1.72-.75,3.31-1.82,4.62-3.15,1.31-1.34,2.37-2.91,3.11-4.65.77-1.78,1.15-3.74,1.15-5.68,0-3.56-1.23-7.02-3.62-9.64,2.4-2.64,3.62-6.11,3.62-9.64,0-1.94-.38-3.87-1.15-5.68" style="fill:#00338d;"/><path d="M90.8,32.29v1.86c0,.83,0,3.43-3.21,3.43-3.46,0-3.81-2.5-3.81-3.43V14.5c0-3.15,3.37-2.77,3.37-2.77V.19h-20.11v11.54c3.56,0,3.37,2.77,3.37,2.77v19.65s.24,3-3.37,3v11.54h37.31v-16.41h-13.54" style="fill:#00338d;"/><path d="M130.11,32.29v1.86c0,.83,0,3.43-3.21,3.43-3.46,0-3.81-2.5-3.81-3.43V14.5c0-3.15,3.37-2.77,3.37-2.77V.19h-20.11v11.54c3.56,0,3.37,2.77,3.37,2.77v19.65s.24,3-3.37,3v11.54h37.31v-16.41h-13.54" style="fill:#00338d;"/></svg>