<?xml version="1.0" encoding="UTF-8"?><svg id="uuid-2ce02a37-d7d5-45b4-9121-291e6bc28204" xmlns="http://www.w3.org/2000/svg" viewBox="0 0 480 260.74">
<title>Carolina Panthers logo - Brandlogos.net</title><path d="M317.44,3.89c7.26.39,44.91,5.87,59.15,15.08,8.73,5.64,9.54,11.43,9.55,11.49,0,0,10.8-4.46,22.86.47,12.05,4.93,14.81,11.3,17.21,15.67,0,0-12.97-2.94-24.96-.9-11.94,2.03-14.24,7.94-14.26,7.99,0,0-8.81-4.27-21.02-5.12-12.22-.86-23.58,2.55-23.58,2.55,24.15,9.38,23.87,23.87,23.87,23.87,3.69-13.92,20.74-21.31,20.74-21.31.08.03,14.58,5.37,16.36,16.58,1.79,11.24-5.11,19.93-8.94,22.48.04-.01,16.35-6.41,15.58-22.23-.25-5.14-2.76-8.72-6.04-11.21,0,0,0,0,0,0,.05.01,4.72,1.48,7.32,3.93,1.2,1.13,2.52,2.31,3.69,3.8,1.37,1.8,1.83,2.94,1.83,2.94.56,1.2,1.02,2.58,1.3,4.19,1.02,5.79-.76,11.44-.76,11.44-7.68,31.24-37.89,70.91-37.96,71.01,0,0,2.35,8.46.7,21.68-1.43,11.43-4.35,27.4-21.85,36.82-.57.26-1.25.55-2.05.83-.16.06-8.7,3.07-19.27,1.17,0,0,13.99,13.54,28.19,43.14,0,.02.02.03.02.05l-9.1.4c-53.47.48-100.91-22.45-157.18-44.39-17.51-6.81-35.38-11.42-52.89-14.39,13.76-50.36,52.47-77.27,52.47-77.27-52.36,25.33-74.37,66.55-78.76,73.92h.02s.11,0,.21.02c-30.39-2.67-58.37-1.07-79.65,1.42C89.06,108.42,209.57,49.78,209.57,49.78c-7.78.83-14.34,2.22-14.37,2.23-10.99-7.9-19.34-23.27-20.74-25.96.08.14.17.33.29.55-.01-.02-.62-1.4-.54-2.41.01-.09.03-.18.04-.26.02-.07.04-.14.07-.2.63-1.45,2.15-1.55,4.17-1.29.12,0,.25.04.37.08,4.99.74,18.83,4.32,38.44,2.17,20.59-2.26,28.05-8.6,27.83-10.41,0,0,15.6-7.43,35.23-8.74,19.63-1.31,45.8,4.42,56.11,17.67,1.88,2.42,2.96,4.31,3.46,5.79.64-1.03.98-2.28.83-3.71-.55-5.31-7.02-10.9-12.81-14.2-5.09-2.9-17.78-7.58-10.53-7.18ZM435.04,23.37c2.92-.23,4.3-.09,4.99,1.91,0,0,0,.02.01.03-.05.18-.1.38-.16.58-.07.23-.16.47-.27.72-.03.08-4.52,13.48-12.85,19.53l-.55.48s-1.27-12.75-12.16-20.99c0,0,2.7-.02,6.96-.36.07,0,.13,0,.2-.02.46-.04.94-.08,1.44-.13.13-.01.26-.02.39-.03.18-.02.35-.03.54-.05h0c3.3-.33,7.24-.85,11.49-1.66Z"/><path d="M366.71,151.87c2.28,5.33,3.55,12.43,2.28,17.51-1.27,5.07-4.57,10.14-18.27,11.41-13.69,1.27-21.55-3.04-21.55-3.04,6.07-6.07,11.98-22.5,12.01-22.58,3.04,11.67.45,17.08.45,17.08,6.6,2.03,16.71-.09,16.71-.09,9.37-6.84,8.37-20.25,8.37-20.29ZM326.48,94.32s16.48-6.53,36.66-5.11c20.17,1.42,24.71,5.68,24.71,5.68-.02.11-5.14,24.17-16.48,33.24,0,0,5.68-12.49,3.13-27.84,0,0-10.8-3.97-30.4,0-.02.05-9.39,21.03-21.31,31.25.04-.09,9.08-21.35,3.69-37.22ZM392.37,34.5c7.82-1.56,14.97,2.46,18.33,5.59-.08-.01-18.12-3.33-26.6,4.47,0-.04.47-8.49,8.27-10.06ZM297.14,31.67s3.49-6.24,11.76-4.67l1.04.22c15.29,3.48,24.78,13.83,24.8,13.86-.07-.02-13.8-4.11-39.22-3.67,0-.02-.98-1.87,1.62-5.73Z" style="fill:#b2b4bb;"/><path d="M357.21,220.03c1.32,4.17,7.08,26.78,8.46,40.27l-.55.04s-.01-.03-.02-.05c-14.21-29.6-28.2-43.14-28.2-43.14,10.58,1.9,19.12-1.11,19.27-1.17h0l1.03,4.05ZM309.37.06c30.9-.56,65.59,2.94,99.02,15.17.34.12.67.24,1.01.36,0,0,12.35,5.1,27.38,4.94,0,0,.07,0,.19.02,0,0,.03,0,.04,0,.05,0,.1.02.17.03.02,0,.04,0,.06.01.07,0,.13.02.2.04.02,0,.06,0,.08.02.08.02.15.04.23.07.04,0,.07.02.1.03.08.03.16.05.24.09.04.01.08.03.11.05.08.03.17.07.25.11.04.02.07.04.11.07.08.04.16.09.25.14.04.02.08.05.11.08.08.06.16.12.23.18.04.03.08.07.11.1.08.07.15.13.21.21.04.04.06.08.1.12.07.08.12.16.18.25.03.05.05.1.08.15.05.09.1.19.15.3.02.05.04.11.06.17.04.11.07.22.1.34.01.07.02.13.04.2.02.13.03.26.04.39,0,.08,0,.15,0,.24,0,.14,0,.29-.03.45,0,.08-.02.17-.03.26-.01.08-.09.5-.12.65h0s0,.01,0,.01c-.46,4.54-3.68,16.05-12.38,23.6,1.66,3.13,2.39,6.74,2.33,11.13,11.27.75,23.31,3.03,35.09,8.05l1.56,1.22c-.08-.04-13.03-5.62-36.68-5.87h-.32c-.12-.02-.74,4.32-1.22,6.46h.56c13.75.39,29.64,2.93,44.67,9.9l1.55,1.2s-16.31-8.16-47.15-7.15c0,0-.24.02-.59.04-.51,2-1.03,3.9-1.51,5.54l-.45,1.56,1.46.06c15.18.73,34.56,3.84,51.7,13.19l1.34,1.36c-.08-.04-19.78-10.04-55.79-10.43-6.68,17.4-21.93,51.94-44.81,71.46,0,0-.01,0-.01.01,0,0,30.27-39.74,37.96-71.01,0,0,1.78-5.66.76-11.44-.28-1.62-.74-3-1.3-4.19-.01-.02-.47-1.16-1.83-2.94-1.18-1.49-2.49-2.67-3.69-3.8-2.61-2.46-7.29-3.92-7.32-3.93,0,0,0,0,0,0,3.28,2.49,5.79,6.07,6.04,11.21.76,15.8-15.52,22.2-15.58,22.23,3.83-2.56,10.73-11.24,8.94-22.48-1.78-11.2-16.27-16.55-16.36-16.58,0,0,2.26-5.96,14.26-7.99,10.49-1.78,21.73.24,24.38.78l.58.12.56-.47c8.36-6.07,12.85-19.53,12.85-19.53.11-.25.19-.49.27-.72.07-.2.11-.39.16-.58,0-.01,0-.02-.01-.03-.69-1.99-2.08-2.14-4.99-1.91-4.25.81-8.18,1.32-11.49,1.65h0c-.18.02-.35.04-.54.05-.13.01-.26.03-.39.04-.49.05-.97.09-1.43.13-.07,0-.13.01-.2.02-4.26.34-6.96.36-6.96.36,10.86,8.22,12.16,20.93,12.16,20.99-2.4-4.37-5.16-10.75-17.21-15.67-12.05-4.93-22.86-.47-22.86-.47,0,0-.78-5.82-9.55-11.49-14.23-9.21-51.89-14.7-59.15-15.08-7.26-.39,5.43,4.28,10.53,7.18,5.78,3.3,12.26,8.89,12.81,14.2.14,1.43-.19,2.68-.83,3.71-.51-1.48-1.58-3.38-3.46-5.79-10.31-13.25-36.48-18.98-56.11-17.67-19.63,1.31-35.23,8.74-35.23,8.74.22,1.81-7.24,8.15-27.83,10.41-19.62,2.16-33.46-1.43-38.44-2.17-.13-.03-.26-.07-.37-.08-2.02-.25-3.53-.16-4.17,1.29-.03.07-.05.13-.07.2-.02.08-.03.17-.04.26-.09,1.01.54,2.41.54,2.41-.12-.22-.21-.4-.29-.55,1.4,2.69,9.75,18.07,20.74,25.96.04,0,6.59-1.39,14.37-2.23,0,0-120.5,58.64-169.32,150.27h0c-24.6,2.88-40.24,6.95-40.24,6.95C74.02,113.82,156.64,67.48,188.36,54.59c-.08-.1-10.56-13.77-13.18-21.03-2.27-6.31-2.14-9.19-1.13-11.6,1.18-3.79,7.15-3.69,7.15-3.69,16.02.8,28.06-2.58,28.15-2.61,0,0,31.8-10.62,76.15-14.37.07,0,10.12-1.13,23.87-1.26v.03ZM371.93,103.26s-8.66,10.4-5.39,25.59c3.28,15.19,10.07,17,13.37,41.11,3.3,24.11-18.13,34.23-30.05,34.23s-28.29-5.06-34.54-25.31c-6.26-20.25-6.26-45.27,1.79-57.48,0,0-5.36,24.12-2.38,37.82,2.98,13.69,8.64,25.31,19.66,27.39,11.02,2.09,27.39,1.49,33.35-5.36,5.95-6.85,8.33-16.67,2.38-30.07-5.96-13.4-17.87-30.67,1.81-47.92ZM198.42,124.68s-38.71,26.92-52.47,77.27c-6.1-1.04-12.15-1.88-18.13-2.54-.06,0-4.25-.45-4.58-.48-.13-.01-2.58-.24-3.35-.31-.1-.01-.17-.02-.21-.02h-.02c4.39-7.37,26.4-48.59,78.76-73.92ZM217.3,96.83c0,.09.66,23.57,21.17,44.34,20.55,20.8,46.05,26.44,46.05,26.44,0,0-40.78-2.24-57.53-22.79-16.72-20.52-9.71-47.92-9.69-47.99ZM222.23,89.1c31.62-12.15,61.22-13.76,78.8-13.28-.4,2.12-.39,4-.17,5.57-43.85-3.03-78.63,7.71-78.63,7.71ZM342.38,51.14c.09-.03,11.41-3.41,23.58-2.55,12.21.85,21.01,5.11,21.02,5.12,0,0-17.05,7.38-20.74,21.31,0,0,.28-14.49-23.87-23.87ZM221.29,73.22c36.14-11.65,69-10.19,85.2-8.33-1.51,1.85-2.67,3.65-3.53,5.35-44.77-6.17-81.51,2.95-81.67,2.99ZM221.06,56.82c51.99-13.64,96.03-1.42,96.03-1.42-2.3,1.6-4.29,3.18-6.02,4.72-47.95-11.33-89.88-3.33-90.01-3.3ZM279.67,30.24c.71-.3,14.67-6.13,29.22-3.24-8.26-1.57-11.75,4.66-11.76,4.67,0,0-4.08-1.19-17.49-1.42h0s0,0,.01,0c0,0,0,0,.01,0Z" style="fill:#0085cf;"/></svg>