<?xml version="1.0" encoding="UTF-8"?><svg id="Layer_1" xmlns="http://www.w3.org/2000/svg" xmlns:xlink="http://www.w3.org/1999/xlink" viewBox="0 0 272.25 207"><defs><style>.cls-1{fill:none;}.cls-2{fill:#ff3c00;}.cls-3{fill:#fff;}.cls-4{fill:#311d00;}.cls-5{clip-path:url(#clippath);}</style><clipPath id="clippath"><rect class="cls-1" width="272.25" height="207"/></clipPath></defs><g class="cls-5"><path class="cls-3" d="M272.01,204.36l-.12.08c.13-.08.23-.18.36-.25l-.24.18h0Z"/><path class="cls-3" d="M144.66,183.05c-.16.4-.29.82-.46,1.21.16-.4.32-.81.46-1.21Z"/><path class="cls-3" d="M111.05,205.04c12.42-.92,23.72-5.68,30.36-15.55h-.02c.32-.45.59-.9.86-1.36.16-.27.33-.51.48-.78.19-.33.34-.67.51-1,.2-.39.4-.79.59-1.19.12-.28.22-.55.33-.82-5.89,13.36-18.8,19.59-33.11,20.71h0Z"/><path class="cls-3" d="M252.64,192.92c-.52-.11-1.05-.31-1.57-.44,0,.24-.01.47,0,.7.54-.09,1.11-.17,1.58-.26h0Z"/><path class="cls-3" d="M40.36,188.36c-.1.04-.17.05-.27.09,2.11-.34,4.24-.56,6.37-.68,3.35-.06,6.45.79,9.3,2.55.46-.27.93-.56,1.28-.78l1.41,1.18c-.34.22-.76.46-1.15.69.39.31.78.62,1.16.99,0,0-.09.06-.12.09.27-.18,1.12-.78,2.3-1.73-4.56-3.25-11.05-5.64-20.29-2.38h0Z"/><path class="cls-2" d="M124.43,139.95c2.24,1.47,4.74,3.22,4.84,6.49.1,3.35-2.81,7.28-3.76,8.55-1.22,1.63-5.08,6.21-10.1,3.02,0,0-7.27-4.51-12.4-7.58l-3.66,5.42c6.76,1.16,25.13,4.32,40.66,6.98-.88-6.49-3-12.42-4.3-17.58,2.68,5.72,4.65,11.67,5.9,17.86,1.16.2,2.29.4,3.4.59-.36-1.76-.73-3.36-1.03-4.72-.61-2.8-3.1-8.78-5.31-16.07-3.62-2.12-6.85-4.74-9.68-7.84-.05-.04-5.43-5.17-10.11-9.85-2.38,3.86-3.92,6.35-4.88,7.9l10.42,6.84h0Z"/><path class="cls-2" d="M152.79,91.83c5.99-3.23,11.05-4.99,19.15-6.2-.04,0,2.36-.33,2.36-.33,1.61-.24,4.69-.88,5.58-2.48.52-1.14.71-2.34.59-3.59-10.1,2.12-20.65,4.65-29.79,8.36-2.85,1.12-5.53,2.55-8.04,4.29.74,1.57,1.62,3.46,2.63,5.59,1.75-1.67,3.64-3.15,5.67-4.45.33-.27,1.85-1.2,1.85-1.2h0Z"/><path class="cls-2" d="M123.59,117.52c3.35,3.64,8.24,8.98,12.14,12.84-.84-5.46-1.04-11.08.09-16.27.67-3.06,1.77-5.96,3.3-8.69l-3.34-7.27c-.77,1.16-1.88,2.85-2.94,4.53,0,0-4.5,7.18-9.26,14.87h0Z"/><path class="cls-2" d="M83.78,159.5c-1.15.38-2.33.56-3.54.55-1.76-.04-3.44-.42-5.04-1.14-1.6-.72-3.01-1.72-4.21-3.01-4.9-5.14-5.21-13.05-.71-17.65,1.02-1.04,2.21-1.83,3.56-2.38,1.35-.55,2.75-.81,4.21-.79,1.76.04,3.44.42,5.04,1.14,1.6.72,3.01,1.73,4.21,3.01,1.21,1.25,2.15,2.69,2.82,4.29.67,1.61,1.03,3.28,1.07,5.02l-7.41,10.95h0ZM100.28,170.89c-9.15,9.68-27.27,9.61-37.57-3.59,17.43,16.18,33.69,5.49,37.57,3.59h0ZM73.4,185.56c-.9.69-1.92.95-3.04.8-1.23.7-3.05.32-4.39-1.08-1.27-1.34-1.58-3.08-.96-4.27-.26-1.93.27-3.85,1.64-4.81,2.06-1.46,5.2-.57,6.99,1.99,1.8,2.55,1.7,5.75-.24,7.38h0ZM116.33,168.32c.63,0,1.24.11,1.83.32.59.21,1.13.52,1.62.92.49.4.89.87,1.21,1.41.32.54.55,1.12.67,1.73.12.62.14,1.24.05,1.86-.09.62-.28,1.21-.57,1.77s-.67,1.05-1.13,1.47c-.46.43-.98.76-1.56,1.01-.19.21-.41.4-.65.56-.24.16-.5.28-.77.38-.27.09-.55.15-.84.18-.29.02-.57.01-.86-.03-.28-.05-.56-.13-.82-.24s-.51-.26-.74-.44-.43-.38-.61-.61c-.18-.23-.32-.47-.44-.74-.42-.37-.77-.78-1.06-1.26-.29-.47-.5-.98-.63-1.52-.13-.54-.18-1.08-.15-1.64.03-.55.15-1.09.34-1.61.2-.52.47-1,.81-1.43.34-.44.74-.81,1.2-1.12.46-.31.95-.55,1.48-.71.53-.16,1.07-.24,1.63-.24h0ZM136.96,85.25c2.78-2.1,5.8-3.76,9.06-4.99,7.08-2.97,19.68-6.36,32.56-8.95-.89-2.58-3.77-10.85-3.77-10.85-.14-.36-2.13-4.42-.56-6.85.41-.56.94-.99,1.57-1.28.64-.29,1.3-.41,2-.35,0,0-.08.05,4.45.21l.2-.08s.06-.03.09-.05l4.94-2.37c1.16-.35,2.57-.69,2.57-.69.61-.04,1.21.01,1.8.15.59.14,1.15.37,1.67.67.52.31.99.68,1.4,1.13.41.45.75.95,1.01,1.49l.54.04c-2.1-4.14-3.31-5.47-4.71-7.81C130.25-43.04-24.89,11.19,5.72,133.75c6.84,24.89,14.84,38.1,23.52,50.48,0,0,.2,6,9.97,2.86,9.34-3,15.9-2.8,24.91,4.25,11.98,9.36,30.43,14.92,46.93,13.7,14.33-1.12,27.22-7.35,33.12-20.71,0-.03.02-.05.03-.07.17-.39.3-.81.46-1.21,1.13-3.47,1.62-7.03,1.45-10.68-1.18-.2-2.4-.4-3.66-.62-.9,15.44-16.23,30.27-43.6,28.56-11.45-.43-23.67-6-30.97-9.97-3.35-2.25-12.81-7.55-17.34-8.55,3.95.21,13.8,5.38,17.94,7.76,8.48,4.38,20.31,8.56,30.38,8.98,18.29,1.72,39.04-7.64,41.35-27.15-18.3-3.1-43.13-7.31-46.37-7.86-.78.54-1.64.78-2.59.7-.92-.06-1.76-.33-2.54-.82-.78-.49-1.38-1.14-1.83-1.95-.27-.55-.37-1.13-.31-1.74.06-.61.28-1.16.65-1.64-.01.02,8.71-13,8.71-13l.37-.74c-.14-.72-.13-1.44.04-2.15.16-.71.47-1.37.91-1.95.71-.71,4.67-7.23,5.59-9.06.35-.56.81-1.01,1.38-1.36.56-.35,1.17-.55,1.83-.61.9-1.44,3.13-5,6.94-11.18-.13-.83-.04-1.64.27-2.42s.79-1.43,1.46-1.95c.36-.26.74-.47,1.15-.63,4.66-7.55,9.88-15.82,11.34-17.98,1.67-2.29,2.96-3.81,4.46-5.53.75-.76,1.55-1.45,2.4-2.09.7-.92,1.61-1.55,2.71-1.89.03-.12.1-.22.2-.29h0Z"/><path class="cls-4" d="M143.84,185.16c-.19.4-.39.81-.59,1.19.2-.4.41-.8.59-1.19Z"/><path class="cls-4" d="M111.05,205.04c-16.5,1.22-34.95-4.34-46.93-13.7-9.01-7.04-15.57-7.24-24.91-4.25-9.77,3.14-9.97-2.86-9.97-2.86-8.69-12.38-16.68-25.58-23.52-50.48C-24.89,11.19,130.25-43.04,191.79,44.67c1.4,2.34,2.6,3.66,4.71,7.81l2.18.17C141.07-50.07-36.09,6.92,6.56,142.97c2.68,8.52,6.1,16.73,10.24,24.64.09-.39.18-.71.22-.92,0,0,.37,1.06,1.09,2.71,0-.05.02-.1.03-.16,2.77,5.12,5.86,10.04,9.28,14.76.58.61,1.18,1.2,1.81,1.75-.02,1.07.33,1.99,1.07,2.76.51.33,1.05.57,1.64.71.01,0,.02,0,.04.01.2.05.44.03.65.06,1.31.04,2.61-.06,3.89-.29,0,0,1.59-.28,3.59-.58.1-.03.17-.05.27-.09,9.24-3.26,15.73-.87,20.29,2.38.59.42,1.15.85,1.68,1.29,25.02,19.52,65.94,21.06,81.05-2.05-.67-.14-1.34-.29-1.97-.48-6.63,9.87-17.94,14.64-30.36,15.55v.02Z"/><path class="cls-4" d="M142.74,187.35c-.15.27-.33.51-.48.78.16-.26.34-.51.48-.78Z"/><path class="cls-4" d="M140,162.82c.54.1,1.07.18,1.6.28-1.25-6.19-3.22-12.14-5.9-17.86,1.3,5.16,3.42,11.1,4.3,17.58Z"/><path class="cls-4" d="M98.85,198.53c-10.07-.42-21.9-4.61-30.38-8.98-4.14-2.38-13.99-7.55-17.94-7.76,4.54,1.01,14,6.31,17.34,8.55,7.29,3.97,19.52,9.55,30.97,9.97,27.37,1.71,42.7-13.11,43.6-28.56-.74-.12-1.49-.25-2.25-.37-2.3,19.52-23.06,28.87-41.35,27.15h0Z"/><path class="cls-4" d="M78.06,135.08c-1.46-.02-2.86.24-4.21.79-1.35.55-2.54,1.34-3.56,2.38-4.5,4.6-4.19,12.51.71,17.65,1.2,1.29,2.6,2.29,4.21,3.01,1.6.72,3.29,1.1,5.04,1.14,1.21,0,2.39-.17,3.54-.55l7.41-10.95c-.04-1.74-.4-3.42-1.07-5.02-.67-1.61-1.61-3.04-2.82-4.29-1.2-1.29-2.6-2.29-4.21-3.01-1.6-.72-3.29-1.1-5.05-1.14h0Z"/><path class="cls-4" d="M62.69,167.3c10.3,13.21,28.43,13.28,37.57,3.59-3.89,1.9-20.14,12.59-37.57-3.59Z"/><path class="cls-4" d="M116.46,169.3c.44.01.86.08,1.28.22.41.14.8.33,1.16.58.36.25.67.54.95.88.27.34.49.71.65,1.12.16.4.26.82.3,1.26.04.43.02.87-.07,1.29-.09.43-.23.83-.44,1.22s-.46.73-.77,1.04c1.28-2.77.23-6.28-3.16-6.43-3.53-.14-4.69,3.39-4.08,5.24-1.19-1.11-.78-6.4,4.18-6.42h0ZM118.22,173.26c-.25-.23-.53-.43-.84-.57-.31-.15-.64-.24-.98-.29-.34-.05-.68-.04-1.02.02-.34.06-.66.17-.96.33-.5.31-1.01-.1-.37-.75.34-.28.72-.48,1.14-.61s.85-.16,1.29-.11c.44.05.85.19,1.23.41.38.22.7.51.97.86.54.8-.04,1.33-.45.71h0ZM112.72,177.85c-.25-.5-.38-1.02-.39-1.58,0-.29.04-.58.11-.86.07-.28.18-.55.32-.81.14-.26.31-.49.5-.71.2-.21.42-.4.66-.56.24-.16.5-.29.78-.39s.56-.16.85-.19c.29-.03.58-.02.87.02s.57.12.84.23c.27.11.52.25.75.43.23.17.44.37.63.6.19.22.34.47.47.73.13.26.22.54.28.82.06.29.08.57.07.86-.01.29-.06.58-.14.86-.08.28-.2.55-.34.8-.15.25-.32.48-.52.69.36-.15.71-.34,1.03-.57.32-.23.62-.48.89-.77s.5-.61.7-.95c.2-.34.36-.7.48-1.07s.2-.76.24-1.15.04-.78,0-1.18c-.05-.39-.13-.77-.26-1.15-.13-.37-.29-.73-.5-1.07-.2-.34-.44-.65-.72-.93s-.57-.54-.9-.76c-.33-.22-.67-.4-1.04-.55-.37-.15-.74-.25-1.13-.32-.39-.06-.78-.09-1.17-.07-.39.02-.78.08-1.16.19s-.75.25-1.09.43c-.35.18-.68.4-.98.65-.3.25-.57.54-.81.85-.24.31-.45.65-.62,1-.17.36-.3.73-.39,1.11-.09.38-.14.77-.14,1.17,0,.39.03.78.11,1.17.08.39.2.76.36,1.12.16.36.36.7.59,1.02.23.32.5.61.79.87h0Z"/><path class="cls-4" d="M115.86,179.28c-.4,0-.78-.07-1.15-.22s-.7-.36-.98-.64c-.28-.28-.5-.6-.66-.97s-.23-.75-.24-1.15.07-.78.22-1.15c.15-.37.37-.7.65-.98.28-.28.6-.5.97-.66.37-.15.75-.23,1.15-.23.4,0,.78.07,1.15.23.37.15.69.37.98.65s.5.61.65.98c.15.37.23.75.23,1.15,0,.4-.07.78-.22,1.15-.15.37-.36.69-.64.97-.28.28-.6.5-.97.65-.37.15-.75.23-1.14.23h0ZM115.9,172.64c-.48,0-.94.1-1.38.28-.44.19-.83.45-1.16.79-.34.34-.59.73-.77,1.18-.18.44-.27.9-.26,1.38,0,.56.14,1.08.39,1.58.12.26.26.51.44.74.18.23.38.43.61.61s.47.32.74.44c.26.12.54.2.82.24s.57.06.86.03c.29-.02.57-.08.84-.18.27-.09.53-.22.77-.38.24-.16.46-.34.65-.56.5-.52.81-1.13.95-1.84.13-.71.06-1.39-.21-2.06-.27-.67-.71-1.2-1.3-1.61-.59-.41-1.25-.62-1.97-.64h0Z"/><path class="cls-3" d="M114.04,171.99c-.63.65-.12,1.06.37.75.3-.16.63-.27.96-.33.34-.06.68-.06,1.02-.02s.67.14.98.29c.31.15.59.34.84.57.41.62.98.09.45-.71-.26-.35-.59-.64-.97-.86-.38-.22-.79-.36-1.23-.41-.44-.05-.87-.02-1.29.11-.42.12-.8.33-1.14.6Z"/><path class="cls-3" d="M116.36,170.49c3.39.14,4.44,3.66,3.16,6.43.31-.31.56-.66.77-1.04.21-.38.35-.79.44-1.22.09-.43.11-.86.07-1.29-.04-.43-.14-.85-.3-1.26-.16-.4-.38-.78-.65-1.12-.27-.34-.59-.64-.95-.88-.36-.25-.74-.44-1.16-.58-.41-.14-.84-.21-1.28-.22-4.96.02-5.37,5.31-4.18,6.42-.62-1.84.55-5.38,4.08-5.24h0Z"/><path class="cls-3" d="M113.47,176.26c0-.31.06-.62.18-.91.12-.29.29-.55.51-.77.22-.22.48-.39.77-.52.29-.12.59-.18.91-.18s.62.06.91.18c.29.12.55.29.77.51.22.22.39.48.51.77.12.29.18.59.18.91,0,.31-.06.62-.18.91-.12.29-.29.55-.51.77-.22.22-.48.39-.77.52-.29.12-.59.18-.91.18-.31,0-.62-.06-.91-.18-.29-.12-.55-.29-.77-.51s-.39-.48-.51-.77c-.12-.29-.18-.59-.18-.91h0ZM118.83,176.28c0-.39-.08-.77-.24-1.13-.15-.36-.37-.68-.65-.96-.28-.28-.6-.49-.97-.63-.36-.15-.74-.22-1.14-.22-.39,0-.77.08-1.13.23-.36.15-.68.37-.96.65-.28.28-.49.6-.64.96-.15.36-.22.74-.22,1.14,0,.39.08.77.23,1.13.15.36.37.68.64.96.28.28.6.49.96.64.36.15.74.23,1.13.23.4,0,.78-.08,1.14-.23.37-.15.69-.37.97-.65.28-.28.49-.61.64-.97.15-.37.22-.75.22-1.15Z"/><path class="cls-4" d="M114.09,176.33c.07-.3.2-.14.27.08.64,1.03,2.44,1.11,3,.31.28-.4.27.15.27.15-1.13,2.23-3.71.82-3.54-.54h0ZM118.21,176.26c0-.31-.06-.62-.18-.91-.12-.29-.29-.55-.51-.77s-.48-.39-.77-.51c-.29-.12-.59-.18-.91-.18-.31,0-.62.06-.91.18-.29.12-.55.29-.77.51-.22.22-.39.48-.51.77-.12.29-.18.59-.18.91,0,.31.06.62.18.91.12.29.29.55.51.77.22.22.48.39.77.51.29.12.59.18.91.18.31,0,.62-.06.9-.18s.55-.29.77-.51c.22-.22.39-.48.51-.77.12-.29.18-.59.18-.91Z"/><path class="cls-3" d="M117.63,176.87s0-.56-.27-.15c-.55.8-2.35.71-3-.31-.07-.22-.2-.37-.27-.08-.17,1.37,2.41,2.77,3.54.54h0Z"/><path class="cls-4" d="M72.11,185.32c3.64-4.73-3.44-10.26-6.24-5.86,2.33-7.16,11.73,1.82,6.24,5.86h0ZM71.21,181.59c-.5-.89-1.23-1.53-2.19-1.89-.66-.13-.41-1.2.39-.92.86.38,1.58.94,2.17,1.68.73,1.2-.05,1.8-.36,1.13h0ZM66.65,176.19c-1.36.96-1.9,2.88-1.64,4.81.09-.23.22-.44.38-.62,1.18-1.12,3.35-.75,4.85.84,1.5,1.58,1.76,3.76.58,4.89-.14.1-.3.19-.46.25,1.13.16,2.14-.1,3.04-.8,1.95-1.63,2.04-4.82.24-7.38-1.8-2.55-4.93-3.45-6.99-1.99h0Z"/><path class="cls-4" d="M66.33,184.85c-1.27-1.34-1.49-3.2-.49-4.16,1-.95,2.85-.63,4.12.71,1.27,1.34,1.49,3.19.49,4.14-1,.95-2.85.64-4.12-.7h0ZM70.25,181.22c-1.5-1.59-3.67-1.96-4.85-.84-.16.19-.29.39-.38.62-.63,1.19-.32,2.93.96,4.27,1.34,1.4,3.16,1.79,4.39,1.08.16-.07.32-.15.46-.25,1.18-1.12.92-3.31-.58-4.89Z"/><path class="cls-3" d="M69.41,178.77c-.79-.28-1.04.8-.39.92.96.36,1.69.99,2.19,1.89.31.67,1.09.07.36-1.13-.58-.74-1.3-1.3-2.17-1.68h0Z"/><path class="cls-3" d="M65.87,179.47c2.79-4.39,9.88,1.13,6.24,5.86,5.5-4.04-3.91-13.02-6.24-5.86Z"/><path class="cls-3" d="M69.91,185.25c-.84.62-2.23.12-3.27-.84-1.11-1.01-1.2-2.59-.43-3.33.85-.82,2.37-.31,3.29.74.74.85,1.38,2.72.42,3.43h0ZM69.95,181.4c-1.27-1.34-3.12-1.66-4.12-.71s-.78,2.81.49,4.16c1.27,1.34,3.12,1.65,4.12.7,1-.95.78-2.81-.49-4.14h0Z"/><path class="cls-4" d="M69.2,184.85c-1.7.16-3.23-1.91-2.6-2.84,0,0,.47-.63.55-.04.14.56.41,1.05.81,1.47s.87.71,1.43.88c.25.06.32.43-.18.52h0ZM66.2,181.09c-.77.74-.68,2.32.43,3.33,1.04.95,2.44,1.46,3.27.84.96-.71.32-2.58-.42-3.43-.92-1.04-2.44-1.56-3.29-.74h0Z"/><path class="cls-3" d="M67.15,181.98c-.09-.59-.55.04-.55.04-.63.92.89,3,2.6,2.84.51-.09.43-.47.18-.52-.55-.17-1.03-.46-1.43-.88-.4-.42-.67-.91-.81-1.47h0Z"/><path class="cls-4" d="M57.31,191.4c-6.63,3.73-13.73,6.01-21.3,6.84-8.83,1.42-13.74-4.77-12.03-9.5,0,0,0,0-.49-1.18-.48-1.18-6.5-13.49-5.39-18.16-.71-1.65-1.09-2.71-1.09-2.71-.05.2-.13.53-.22.92-.53,2.2-.54,4.4-.04,6.6,1.16,4.35,2.12,7.03,5.63,14.75-1.41,5.23,3.48,12.93,15.33,10.64,13.81-1.95,20.06-6.66,20.64-7.12.03-.02.12-.09.12-.09-.38-.36-.77-.67-1.16-.99h.01Z"/><path class="cls-4" d="M30.28,188.52c-.73-.78-1.08-1.7-1.07-2.76-.63-.55-1.23-1.15-1.81-1.75.17.24.33.47.51.71.09.78.35,1.5.76,2.17s.95,1.21,1.61,1.64h0Z"/><path class="cls-4" d="M31.92,189.24s.02,0,.04.01c-.01,0-.02,0-.04-.01Z"/><path class="cls-4" d="M35.64,189.28c-2.13,4.36-10.49,2.02-8.88-3.65-1.2-1.48-4.09-6.17-4.09-6.17-.13.02.13,1.39.12,1.3.97,2.03,2.67,5.52,2.67,5.52-1.31,8.25,10.54,8.87,11.37,2.81.69-.13.67-.03,1.1-.24-.51,2.46-1.69,3.81-3.09,4.52-2.53,1.28-3.28,3.53.57,3.26,3.92-.28,10.83-1.59,18.92-5.5,0,0,.68-.39,1.42-.82-2.85-1.76-5.95-2.6-9.3-2.55-2.14.11-4.26.34-6.37.68-2,.3-3.59.58-3.59.58-1.29.23-2.59.33-3.89.29.5.1,1.01.14,1.52.14.37-.05,1.22-.1,1.53-.17h0Z"/><path class="cls-3" d="M23.49,187.56c.49,1.19.49,1.18.49,1.18-1.71,4.73,3.2,10.92,12.03,9.5,7.56-.83,14.66-3.11,21.3-6.84.39-.23.81-.47,1.15-.69l-1.41-1.18c-.35.23-.82.51-1.28.78-.73.43-1.42.82-1.42.82-8.08,3.91-14.99,5.22-18.92,5.5-3.85.27-3.1-1.98-.57-3.26,1.39-.71,2.57-2.06,3.09-4.52-.43.21-.41.12-1.1.24-.84,6.06-12.68,5.44-11.37-2.81,0,0-1.71-3.49-2.67-5.52.02.09-.25-1.28-.12-1.3,0,0,2.89,4.69,4.09,6.17-1.61,5.67,6.75,8.01,8.88,3.65-.31.07-1.15.13-1.53.17-.51,0-1.02-.05-1.52-.14-.21-.03-.45-.01-.65-.06-.01,0-.02,0-.03-.01-.59-.15-1.13-.38-1.64-.71-.66-.43-1.2-.97-1.61-1.64-.41-.67-.67-1.39-.76-2.17-.17-.24-.33-.47-.51-.71-3.41-4.72-6.51-9.64-9.28-14.76-.01.05-.02.11-.03.16-1.12,4.66,4.91,16.98,5.39,18.16h0Z"/><path class="cls-4" d="M146.04,186.86l-.89-.12c2.06-4.45,3.04-9.13,2.93-14.03-.64-.11-1.29-.22-1.96-.33.16,3.65-.32,7.21-1.45,10.68-.13.4-.31.81-.46,1.21-.01.02-.02.05-.03.08-.11.28-.21.55-.33.82-.17.4-.39.8-.59,1.19-.17.33-.32.67-.51,1-.14.27-.33.52-.48.78-.28.46-.55.91-.86,1.36h.02c.65.19,1.3.36,1.97.48,6.03,1.24,13.54.24,13.54.24,7.87-.51,14.2-2.63,19.14-5.91-.62-.97-1.26-1.93-1.8-2.96-6.31,4.28-15.41,6.57-28.22,5.52h0Z"/><path class="cls-4" d="M184.88,166.5c1.27-.12,2.51-.26,3.76-.39.77-2.89,1.25-5.84,1.42-8.83l-.16-.03-.59-.1-.05-.6c-.4-3.91-.51-6.15-.35-6.66l.22-.64.66.12.18.03c-.06-.74-.15-1.49-.24-2.23-1.2.13-2.39.25-3.57.37.77,6.4.52,13.01-1.3,18.95h.01Z"/><path class="cls-4" d="M181.6,176.75c.3.57.65,1.07.97,1.61.83-1.03,1.59-2.11,2.28-3.23-1.01.11-2,.21-2.97.31,0,0-.48.14-1.31.31l1.02.99h0Z"/><path class="cls-4" d="M140.15,134.3c4.13,3.14,8.46,4.88,14.81,5.67l-13.97-30.47c-2.94,8.05-2.46,16.49-.84,24.8h0Z"/><path class="cls-4" d="M135.73,130.36c.74.73,1.45,1.42,2.1,2.03-1.6-8.28-1.66-16.99,2.28-24.85l-.98-2.14c-1.53,2.73-2.63,5.63-3.3,8.69-1.13,5.19-.94,10.81-.09,16.27h0Z"/><path class="cls-4" d="M145.01,163.69c1.03.17,2.03.35,3.01.52,5.17-3.19,9.21-8.99,11.39-14.52l-.59-1.27c-.08,0-.15-.01-.22-.02-5.52-.19-10.84-1.34-15.94-3.45,1.41,5.34,2.85,10.51,3.64,15.34-.99-4.14-3.25-9.76-5.32-16.1-.77-.38-1.54-.83-2.31-1.29,2.2,7.28,4.69,13.26,5.31,16.07.3,1.36.67,2.96,1.03,4.72h0Z"/><path class="cls-3" d="M160.25,129.75c1.66,3.63,3.32,7.24,4.91,10.74h.8c5.13-.03,11.71-.48,18.71-1.14-.79-3.15-1.81-6.23-3.06-9.22-5.74-13.56-20.88-8.32-21.36-.37h0Z"/><path class="cls-3" d="M148.02,164.2c9.51,1.64,16.53,2.84,16.53,2.84,1.11.16,2.07.28,3,.38l-8.13-17.74c-2.18,5.53-6.22,11.33-11.39,14.52Z"/><path class="cls-3" d="M176.9,167.18c2.71-.2,5.37-.42,7.99-.67,1.82-5.95,2.07-12.56,1.3-18.95-6.08.61-11.75,1.1-16.34,1.38-.02,0-.36,0-.9-.03,3.47,7.8,6.25,14.39,7.87,18.3.02-.01.05-.02.08-.03h0Z"/><path class="cls-3" d="M145.15,186.75l.89.12c12.8,1.04,21.91-1.24,28.22-5.52-.81-1.52-1.54-3.08-2.17-4.69l-.36-.51c-.11,0-.21,0-.32-.02-3.85-.26-7.67-.72-11.46-1.4,0,0-4.84-.82-11.87-2.01.12,4.9-.86,9.58-2.93,14.03h0Z"/><path class="cls-3" d="M189.11,97.29c-8.27,1.01-10.58,21.73-5.89,26.9-1.72-7.94.1-22.69,5.89-26.9Z"/><path class="cls-3" d="M142.66,144.94c-.56-.24-1.12-.48-1.68-.75,2.07,6.34,4.34,11.96,5.32,16.1-.8-4.84-2.24-10.01-3.64-15.35h0Z"/><path class="cls-3" d="M137.83,132.39c.78.69,1.55,1.31,2.33,1.9-1.61-8.31-2.1-16.75.84-24.8l-.9-1.96c-3.93,7.87-3.87,16.57-2.28,24.85h0Z"/><path class="cls-3" d="M155.57,92.51c-2.18,1-4.19,2.28-6.02,3.83-1.2.93-2.34,1.93-3.42,3,.11.23.22.48.33.71,2.71-2.91,5.74-5.43,9.1-7.55h0Z"/><path class="cls-4" d="M184.43,70.2c.05-.01.11-.02.16-.03-.25-.58-.8-1.91-1.5-3.79l1.34,3.82h0Z"/><path class="cls-4" d="M183.22,124.2c-4.68-5.18-2.38-25.9,5.89-26.9-5.79,4.21-7.6,18.97-5.89,26.9ZM206.78,76.48l-.4-.04c1.53,5.89,1.14,13.84-6.83,15.62,4.03-1.76.65-2.97.33-3.11-8.57-1.98-22.82.66-24.38-.42,9.13-.88,9.83-5.42,9.08-10.13-.47.1-.94.19-1.43.29.86,4.93-1.18,6.79-3.92,7.82-2.37.86-4.81,1.34-7.33,1.44l-2.72-.1c1.18-.4,3.52-.5,6.38-1.09,4.38-.9,6.92-2.84,6.62-7.87-.58.12-1.13.22-1.72.35.12,1.25-.07,2.44-.59,3.59-.88,1.61-3.96,2.24-5.58,2.49,0,0-2.4.33-2.36.33-8.1,1.21-13.16,2.97-19.15,6.2,0,0-1.52.93-1.85,1.2-2.04,1.3-3.93,2.78-5.67,4.44.28.61.56,1.21.86,1.85,1.08-1.07,2.21-2.07,3.42-3,1.83-1.55,3.84-2.83,6.02-3.83-3.36,2.12-6.39,4.64-9.1,7.55,3.8,8.12,8.83,18.93,13.78,29.7.48-7.94,15.62-13.18,21.36.37,1.25,3,2.27,6.07,3.06,9.22,1.2-.12,2.43-.24,3.65-.36-.41-1.7-.88-3.4-1.42-5.09-.98-4.36-1.48-8.78-1.49-13.25-.12-.15-.26-.29-.38-.44-.17-3.82.13-7.59.92-11.33.17.25.35.48.52.73.92-4.38,2.45-8.52,5.02-11.73.1-.14.18-.24.28-.37-.1-.22-.16-.37-.16-.37,1.11-1.42,1.74-2.86,4.82-3.36.13-.02.24-.05.37-.07,2.15-.28,1.6-.33,2.48-.28l.12.29s.12-.01.14-.02c.85-.13,1.68-.35,2.48-.67.8-.32,1.55-.73,2.25-1.23.7-.5,1.34-1.07,1.91-1.71.57-.65,1.06-1.35,1.46-2.11,1-1.82,1.25-4.25,1.27-6.29-.09-.15,1.51-.76,1.91-1-1.46-.63-2.79-1.88-4.02-4.17h0Z"/><path class="cls-4" d="M191.06,80.73l7.41-.1c3.79-.65,5.48-2.27,5.97-4.4l-.18-.03c-.89,3.85-5.14,4.16-6.19,4.29-2.63.2-5.26.2-7.9,0-1.75-.13-2.56-1.67-2.92-2.65-.03,0-.07.01-.1.02,1.28,3.07,3.91,2.86,3.91,2.86h0Z"/><path class="cls-4" d="M181.18,60.97l.74,2.12c-.37-1.13-.76-2.33-1.14-3.63-.56-1.57-.62-3.16-.18-4.77-1.06,2.96.58,6.27.58,6.27h0Z"/><path class="cls-4" d="M196.49,52.49l-.54-.04c.4.72.71,1.48.92,2.28l5.84,13.59h.13c-1.92-4.65-6.07-14.15-6.07-14.15l2.27.2c1.35,3.46,3.32,9.37,4.83,14.01h.22c-.7-2.11-4.68-14.34-4.68-14.34l-.23-.69.57-.48.22-.1-1.31-.1-2.18-.17h0Z"/><path class="cls-3" d="M182.18,78.89c.29,5.03-2.24,6.96-6.62,7.87-2.86.59-5.2.69-6.38,1.09l2.72.1c2.52-.1,4.96-.58,7.33-1.44,2.75-1.02,4.78-2.89,3.92-7.82-.32.06-.64.13-.97.2h0Z"/><path class="cls-3" d="M176.44,57.82c-.48-1.34-.55-2.7-.2-4.09,0,0-1.87,1.49-.2,5.47l4.26,11.78c.3-.06.6-.12.9-.17-.24-.71-.51-1.44-.81-2.22-1.54-3.93-3.4-9.03-3.95-10.76h0Z"/><path class="cls-3" d="M204.43,76.24c-.49,2.13-2.18,3.75-5.97,4.4l-7.41.1s-2.63.21-3.91-2.86c-.84.17-1.71.35-2.57.52.74,4.71.05,9.25-9.08,10.13,1.56,1.08,15.82-1.56,24.38.42.32.13,3.7,1.35-.33,3.11,7.97-1.77,8.36-9.72,6.83-15.62l-1.27-.12-.68-.1h.01Z"/><path class="cls-3" d="M199.04,54.35l-2.27-.2s4.15,9.5,6.07,14.16l1.02.05c-1.51-4.64-3.47-10.55-4.83-14.01h0Z"/><path class="cls-3" d="M181.93,63.09l-.74-2.12s-1.64-3.31-.58-6.27c.11-.36.26-.7.45-1.03-.65-.09-1.3-.12-1.95-.1-1.18.1-2.29.15-1.48,2.96.59,2.08.82,2.57,1.28,3.86.56,1.54,2.36,6.18,3.68,10.14.62-.12,1.22-.21,1.84-.32l-1.34-3.82c-.36-.97-.75-2.07-1.16-3.3h0Z"/><path class="cls-4" d="M142.09,90.27s-1.19-2.43-1.51-3.21c-.56-1.37-.92-1.32-1.47-1.63,2.31-1.42,4.73-2.63,7.26-3.61,8.76-3.67,26.89-8.35,42.58-10.88.35-.06.71-.06,1.06.02s.68.21.98.4c.3.2.55.44.76.74.21.29.35.62.44.97.16,1.07-.39,2.32-2.44,2.65l-.96.19c-12.55,2.51-26.78,5.36-38.67,10.19-2.91.95-5.58,2.34-8.03,4.18h0ZM180.47,79.24c.58-.12,1.13-.23,1.72-.35.33-.07.65-.13.97-.2.48-.1.95-.2,1.43-.29.85-.17,1.72-.35,2.57-.52.03,0,.07,0,.1-.02-.1-.27-.18-.54-.24-.81,5.43-.69,5.72-2.37,5.72-2.37,1.58-3.26-1.97-4.54-1.97-4.54-1.68-.69-6.02.4-6.02.4,0,0-.06-.14-.15-.35-.05.01-.1.02-.16.03-.62.11-1.22.21-1.84.32-.46.09-.93.18-1.39.28-.3.06-.6.12-.9.17-.58.11-1.15.22-1.72.34-12.88,2.58-25.48,5.98-32.56,8.95-3.26,1.22-6.28,2.88-9.06,4.99-.11.07-.17.17-.2.29.38-.11.77-.17,1.17-.17.46-.01.89.09,1.29.32s.71.54.94.94c.08.16,1.01,2.12,2.48,5.26,2.51-1.75,5.19-3.18,8.04-4.29,9.14-3.71,19.68-6.24,29.79-8.36h0Z"/><path class="cls-4" d="M133.47,93.08l-.31-.67s.03.1.05.14c.07.14.16.32.26.53h0Z"/><path class="cls-4" d="M133,91.93c-.04-.62-.03-1.24.02-1.86.02-.03.04-.04,0,.02-.2.61-.2,1.23-.01,1.84Z"/><path class="cls-4" d="M127.2,95.05c-1.46,2.16-6.68,10.43-11.34,17.98.36-.18.75-.3,1.15-.36s.81-.04,1.21.04c.4.08.77.23,1.13.43.35.21.66.47.92.78.63.65,1.83,1.96,3.32,3.59,4.75-7.68,9.26-14.88,9.26-14.87,1.06-1.67,2.17-3.36,2.94-4.53l-.67-1.46c-.35.49-2.29,3.03-3.61,5.11l-8.86,14.43-2.37-2.61s-1.24-1.06-2.33-.96c4.79-7.78,9.06-14.49,10.54-16.71,1.37-2.06,2.88-4.01,4.53-5.86.06-.76.27-1.48.65-2.14.12-.17.24-.33.38-.48-.85.64-1.65,1.34-2.4,2.09-1.49,1.72-2.79,3.23-4.46,5.53h.01Z"/><path class="cls-4" d="M236,132.16c-.63-.53-1.35-.82-2.17-.88,2.58.21,10.56-.59,10.56-.59-1.92.54-8.39,1.48-8.39,1.48h0ZM228.3,133.25c-3.55.89-11.55,1.78-11.55,1.78l-1.68-3.85c4.92.72,9.85.88,14.8.5-.42.04-.77.21-1.07.51-.3.3-.47.65-.51,1.07h0ZM260.48,135.02l-.78-1.87c-1.63-4.25-4.58-5.04-9.24-4.47l-4.04.44c-8.13.73-21.21,2.06-32.14.22l2.5,6c4.45-.69,8.27-1.33,10.93-1.86l.75-.25c.34-.67.86-1.15,1.57-1.42.95-.41,1.93-.58,2.96-.5,1.03.08,1.98.38,2.86.93l.08.15c2.25-.48,5.24-1.06,12.46-2.08.71.02,1.38.19,2.01.5.56-.09.96-.13.96-.13.28.03.56.1.82.22.26.12.49.29.69.49s.36.44.48.7.19.53.21.82c.09.39.08.78-.03,1.16-.12.38-.32.72-.61.99-.03.83-.34,1.53-.92,2.12,0,0-.13.05-.32.11,1.31,3.34,2.44,6.75,3.37,10.22l1.11,4.57c.67-.16,1.35-.31,1.99-.48h.02c-.18-.04-.36-.07-.54-.08-1.11-5.02-2.59-9.93-4.44-14.72,3.36-2.47,2.14-6.29-.13-6.98,0,0,4.14-.88,6.05,6.29,6.94,19.47,12.33,46.14,10.79,55.36,0-1.19-1.84-3.4-5.01-4.05.04-.9.03-1.81-.03-2.71-.8-8.03-3.69-22.65-3.69-22.65,2.95-.96,3.72-5.23,1.76-8.03.4.66.68,1.36.82,2.12.43,2.32-.39,5.22-3.21,6.06-.07.02-.42.11-.88.22l.18.99c1.2,6.47,3.01,16.24,3.69,22.25.03.5,0,.99-.12,1.48,2.37.48,5.86,1.69,6.55,4.88l.02.06v.06c.13.69.09,1.37-.12,2.04-.21.67-.57,1.25-1.07,1.74,3.39-2.65,3.23-8.47,3.22-8.76-1.26-17.05-5.09-34.06-11.54-52.12v-.02Z"/><path class="cls-4" d="M186.47,109.59c-.17-.25-.35-.47-.52-.73-.79,3.74-1.1,7.51-.92,11.33.12.16.26.29.38.44,2.99,3.67,6.42,6.86,10.31,9.57,3.89,2.7,8.07,4.82,12.55,6.34-.27-.64-.54-1.28-.81-1.92-12.92-4.25-22.09-16.44-22.09-16.44.02-2.22.24-4.43.64-6.62,8.35,11.51,17.53,15.96,18.68,16.49-.28-.65-.55-1.3-.82-1.95-.65-.32-1.26-.7-1.83-1.15-2.91-1.79-9.87-7.17-15.56-15.37h0Z"/><path class="cls-4" d="M239.45,139.41c.08.18.15.4.23.58,7.86-1.43,11.09-2.4,11.99-2.71.2-.06.32-.11.32-.11.58-.59.88-1.3.92-2.12-.22.2-.47.35-.75.44-.77.36-1.56.63-2.39.81-1.78.43-3.8.95-6.59,1.48-2,.37-4.02.8-3.85.7-.43-.93-.9-2.43-2.14-4.83,3.82-.71,7.8-1.58,11.27-2.46.64-.17,1.28-.3,1.94-.4-.63-.31-1.3-.48-2.01-.5-7.22,1.02-10.21,1.6-12.46,2.08l3.52,7.04h0Z"/><path class="cls-4" d="M224.81,154.6l-4.77-11.43c-.43.07-.87.14-1.3.21,1.59,4.02,3.28,8.05,4.61,11.19.47,0,.94.02,1.46.03Z"/><path class="cls-4" d="M242.52,189.09c-.04-.54-.08-1.13-.13-1.76-10.72-5.54-17.71-17.55-17.71-17.55,1.09-.2,5.33-.99,5.33-.99,3.22,4.6,7.14,8.51,11.75,11.72-.07-.65-.15-1.3-.23-1.95-3.93-2.84-7.28-6.25-10.05-10.24-2.68.54-5.55,1.07-8.54,1.59,5.09,8.45,12.06,15.12,19.58,19.19h0Z"/><path class="cls-4" d="M217.41,154.22c-1.79-4.24-3.74-8.93-4.18-10-.54.08-1.07.16-1.62.24,1.45,3.42,2.79,6.61,3.99,9.44l1.8.32Z"/><path class="cls-4" d="M215.3,135.36c-2.42.43-5.33.76-5.33.76l-17.09-40.07c1.84-2,4.82-2.06,4.82-2.06,1.12,2.27,17.6,41.37,17.6,41.37h0ZM196.8,93.68c-.14.02-.24.05-.37.07-3.09.5-3.71,1.94-4.82,3.36,0,0,.06.16.16.37.93,2.2,6.26,14.81,12.1,28.62.28.65.55,1.3.82,1.95.08.04.12.06.12.06l2.67,6.52h-.02c.28.64.54,1.28.81,1.92,0,0,0,0,0,.01,3.01-.41,5.86-.83,8.5-1.24l-2.5-6-14.87-35.65-.12-.29c-.88-.05-.33,0-2.48.28h0Z"/><path class="cls-4" d="M250.94,200.3c.32-1.86.45-3.74.4-5.63,17.47-3.75.88-5.34.88-5.34,3.85,1.19,3.76,2.57,3.76,2.57-1.58-.06-3.13-.32-4.64-.78.09-1.09-.2-5.53-.2-5.53,4.54,1.98,5.26,1.41,9.97,2.47,4.84,1.09,2.47,3.07,2.47,3.07-2.47,3.06-11.55,4.35-11.55,4.35,15.21-1.98,13.82-6.13,13.82-6.13,6.23,4.06.1,6.92-3.05,7.81-2.79.78-11.85,3.16-11.85,3.16h0ZM269.99,192.13v-.06l-.02-.06c-.69-3.19-4.19-4.4-6.55-4.88-.73-.14-1.46-.25-2.2-.31-3.68-.59-7.23-1.63-10.65-3.1.29,2.99.44,5.9.5,8.76.52.14,1.04.33,1.57.44-.47.09-1.04.17-1.58.26.02,1.88.03,3.78-.06,5.56-.02.62-.15,1.22-.41,1.78-.25.57-.61,1.06-1.06,1.49,14.92-3.39,17.45-4.62,18.37-5.47.33-.18.63-.4.9-.66.5-.49.86-1.07,1.07-1.74.21-.67.25-1.35.12-2.04h0Z"/><path class="cls-4" d="M236.21,156.04c.78,2.67-1.29,2.53-1.29,2.53l-7.6,1.59-1.88-4.16c6.61.1,10.77.04,10.77.04h0ZM218.43,160.64l-28.32-4.7c.16-1.71.2-3.42.13-5.14l26.12,4.77c.5,1.42,2.07,5.07,2.07,5.07h0ZM224.81,154.6c-.52,0-.99-.02-1.46-.03,1.47,3.44,2.52,5.81,2.52,5.81-.89.4-5.33.99-5.33.99-.4-.77-1.72-3.82-3.13-7.15l-1.8-.32-25.61-4.5-.18-.03-.66-.12-.22.64c-.17.5-.05,2.74.35,6.66l.05.6.59.1.16.03,27.83,4.7c4.92-.84,9.76-1.71,14.53-2.57l3.47-.62c.78-.28,1.01-1.18.66-2.25,0-.02-.28-.84-.68-2.06-4.2.17-8.05.17-11.07.13h-.01Z"/><path class="cls-4" d="M262.22,155.75s1.19,3.59-1.87,4.87c0,0-2.27,1.15-12.74,3.03,0,0-.85-3.26-1.25-4.93,0,0,8.85-1.84,12.31-3.14,0,0-.07-1.15-1.78-1.12,0,0-8.98,2.27-11.05,2.47l-.5-1.38s7.7-1.48,10.27-2.08c0,0,5.43-1.87,6.61,2.27h0ZM247.53,165.23c3.43-.63,9.83-2.23,12.14-2.82.46-.12.81-.21.88-.22,2.83-.85,3.64-3.74,3.21-6.06-.14-.76-.42-1.47-.82-2.12-.56-.76-1.26-1.35-2.1-1.78-.84-.43-1.73-.64-2.68-.65h-.02c-.64.18-1.32.33-1.99.49-3.81.85-7.66,1.46-11.54,1.82,1.09,3.66,2.06,7.48,2.93,11.35h0Z"/><path class="cls-4" d="M184.86,175.13c11.83-1.27,25.94-3.14,38.08-5.24,2.99-.52,5.85-1.05,8.54-1.59,2.42-.48,4.72-.97,6.8-1.47.54-.14.75,0,.82.06.34.33.52.74.55,1.21v.09l.03.07c.86,3.38,1.48,6.8,1.86,10.27.08.66.16,1.31.23,1.95.09.06.2.14.2.14.19,1.78.49,6.72.49,6.72-.02-.01-.04-.02-.06-.03.05.63.09,1.22.13,1.76.14,2.08.21,3.44.21,3.48.04.47-.03.93-.23,1.36-.2.43-.49.79-.88,1.07-21.96,5.95-47.51,2.81-59.04-16.62-.32-.54-.67-1.05-.97-1.61l-1.03-.99c.83-.17,1.31-.31,1.31-.31.97-.1,1.97-.21,2.97-.31h0ZM134.61,91.68c-.19-.51-.25-1.03-.18-1.57.07-.54.27-1.02.59-1.46.31-.51.72-.92,1.22-1.24s1.06-.49,1.66-.53c.36-.04.64.08.85.38l24.65,53.02c-2.08.1-4.16-.02-6.22-.36-10.25-22.44-22.56-48.22-22.57-48.25h0ZM169.85,148.93c4.59-.29,10.26-.77,16.34-1.38,1.18-.12,2.36-.24,3.57-.37,7.23-.77,14.84-1.71,21.86-2.71.55-.08,1.08-.16,1.62-.24-.06-.14-.1-.24-.1-.24.93-.12,5.53-.8,5.53-.8.02.06.05.13.07.18.43-.07.88-.14,1.3-.21,3.48-.58,6.65-1.16,9.33-1.74,0,0,1.2-.21,1.59.09.66.5.69.85.69.85v.04l.02.04c1.12,2.81,3.14,8.85,4.19,12.04.41,1.22.67,2.04.68,2.06.35,1.07.12,1.97-.66,2.25l-3.47.62c-4.77.86-9.61,1.73-14.53,2.57-9.27,1.58-18.92,3.04-29.25,4.13-1.25.13-2.48.27-3.76.39-2.62.25-5.28.48-7.99.67-.03,0-.05.02-.07.03-1.62-3.91-4.4-10.5-7.87-18.3.54.02.88.03.9.03h.01ZM167.13,149.02l8.02,18.15c-1.96.34-3.94.4-5.92.2-.98-2.16-2.15-4.93-7.3-16.2,1.74-2.77,5.2-2.14,5.2-2.14h0ZM251,198.74c.1-1.79.08-3.68.06-5.56,0-.24.01-.47,0-.7-.05-2.85-.21-5.76-.5-8.76-.64-6.22-1.65-12.39-3.05-18.49-.86-3.87-1.84-7.68-2.93-11.35-1.4-4.72-3.04-9.35-4.92-13.89-.07-.18-.15-.4-.23-.58l-3.52-7.04-.08-.15c-.88-.54-1.83-.85-2.86-.93-1.03-.08-2.02.09-2.96.5-.7.27-1.23.75-1.57,1.42l-.75.25c-2.66.52-6.48,1.17-10.93,1.86-2.64.41-5.48.82-8.5,1.24-6.32.88-13.24,1.73-19.96,2.43-1.23.13-2.44.25-3.65.36-6.99.66-13.57,1.11-18.71,1.14h-.8c-1.6-3.51-3.24-7.11-4.91-10.74-4.95-10.77-9.98-21.58-13.78-29.7-.11-.24-.22-.49-.33-.71-.3-.65-.58-1.25-.86-1.85-1-2.13-1.88-4.02-2.63-5.59-1.48-3.14-2.4-5.1-2.48-5.26-.23-.4-.54-.71-.94-.94-.4-.23-.83-.33-1.29-.32-.4,0-.79.06-1.17.17-1.1.35-2,.98-2.71,1.89-.14.15-.26.32-.38.48-.38.67-.59,1.38-.64,2.14,0,0,.01-.01,0,0-.05.62-.05,1.24-.02,1.86.04.16.09.32.16.48l.31.67c.62,1.26,1.69,3.5,1.69,3.5.02-.02,0,0-.05.08l.67,1.46,3.34,7.28.98,2.14.9,1.96,13.97,30.47c-6.35-.78-10.67-2.52-14.81-5.67-.78-.59-1.55-1.21-2.33-1.9-.64-.6-1.36-1.3-2.1-2.03-3.9-3.87-8.8-9.2-12.14-12.84-1.49-1.63-2.7-2.94-3.32-3.59-.26-.31-.57-.57-.92-.78-.35-.21-.73-.35-1.13-.43-.4-.08-.8-.1-1.21-.04-.4.05-.79.17-1.15.36-.41.16-.8.37-1.15.63-.66.52-1.15,1.16-1.46,1.95-.31.78-.4,1.59-.26,2.42.12-.18.22-.35.34-.55,0,0-.05,1.05,1.72,2.93,1.78,1.88,4.17,4.27,4.17,4.27-.12.2-.21.34-.33.54,4.68,4.67,10.06,9.81,10.11,9.85,2.83,3.1,6.05,5.72,9.68,7.84.77.45,1.54.9,2.31,1.29.56.28,1.12.51,1.68.75,5.11,2.11,10.42,3.26,15.94,3.45.07,0,.15.01.22.02l.59,1.27,8.13,17.74c-.92-.1-1.9-.22-3-.38,0,0-7.02-1.2-16.53-2.84-.98-.17-1.99-.35-3.01-.52-1.11-.19-2.25-.39-3.4-.59-.54-.09-1.06-.18-1.6-.28-15.54-2.67-33.9-5.82-40.66-6.98l-.98,1.45c4.32.74,63.56,10.92,63.57,10.92,9.72,1.45,15.03.56,15.14.54,20.73-1.49,38.47-4.68,55.62-7.78l3.55-.64.05-.02.05-.02c1.29-.2,2.17,1.11,2.17,1.11.5-.84-.68-5.68-.68-5.68-.04-.1-3.14-9.95-4.7-13.87l.02.08c-.05-.15-.85-1.91-2.34-2.2.12-.7.05-1.37-.19-2.04-.06.55-.28,1.03-.64,1.44-.36.42-.81.69-1.34.83-15.75,3.16-42.1,6.41-58.17,7.37-.07,0-6.88-.05-12.04-.4-8.73-.49-18.69-2.53-28.32-12.99-.11-.1-10.77-10.26-15.06-14.96-.23-.31-.39-.66-.48-1.03-.09-.38-.11-.76-.05-1.14s.19-.74.39-1.07c.2-.33.45-.61.77-.84.8-.62,2.56-1.21,3.46-.18,1.87,2.51,12.04,13.21,17.26,18.67,5.91,4.61,10.82,6.92,19.07,7.95,4.2.54,10.26.6,10.52.59,19.1-.24,49.04-4.73,61.37-6.93,1.48-.2,2.86,1.16,2.86,1.16l-.41-1.74.06-.5c.33-.43.75-.75,1.25-.96.61-.28,1.25-.38,1.91-.29.67.09,1.26.34,1.78.77,8.31,15.32,15.92,44.24,14.61,65.22,0,.52-.12,1-.38,1.45-.26.45-.61.8-1.06,1.06,0,0-2.34,1.7-4.22-1.27,0,0,.47,1.3-1.6,1.98-12.78,3.29-26.47,3.48-38.02.43-10.47-2.77-22.84-8.83-29.72-24.06,1.68-2.27,5-2.3,5-2.3,10.67,22.86,37.91,26.85,61.48,20.82,0,0,1.65-.32,2.46.85.69-1.38.74-5.93.74-5.93-.03-.66-.31-14.47-2.9-23.84-.03-.33-.61-1.99-1.59-2.29,0,0-.43-2.73-.49-2.22-.28,2.25-3.12,2.42-3.12,2.42-14.53,3.46-37.02,6.33-54.77,8.12-.03,0-1.38.21-3.78.32l-1.91.05c-4.76.15-9.48-.23-14.16-1.13,0,0-62.65-10.27-62.68-10.28-.65-.3-1.06-.79-1.23-1.49-.25-.97-.22-1.92.07-2.88l-2.72,4.04c-.26.39-.59.71-.98.97,3.24.55,28.07,4.76,46.37,7.86.76.13,1.51.25,2.25.37,1.27.22,2.49.42,3.66.62.67.12,1.32.22,1.96.33,7.03,1.19,11.87,2.01,11.87,2.01,3.79.68,7.62,1.15,11.46,1.4.11.01.21.01.32.02l.36.51c.64,1.6,1.36,3.17,2.17,4.69.55,1.03,1.18,1.99,1.8,2.96,6.06,9.51,15.52,16.37,27.69,19.58,12.6,3.33,26.9,3,40.67-1.04.69.33,1.42.47,2.18.43s1.47-.26,2.12-.66c.29-.16.57-.35.81-.58.46-.42.81-.92,1.06-1.49.25-.57.39-1.16.4-1.79h0Z"/><path class="cls-4" d="M93.6,161.57c-.24.35-.55.62-.94.79-.39.18-.79.24-1.22.18-.63-.04-1.22-.23-1.75-.56-.54-.33-.97-.77-1.29-1.32-.14-.29-.2-.6-.16-.93.04-.33.16-.62.37-.87l8.29-12.67c.52,1.01,4.68,3.51,4.68,3.51-1.74,2.58-7.98,11.86-7.98,11.86h0ZM99.68,148.47c-2.22-1.26-3.11-2.76-3.38-4.13l-.37.74s-8.72,13.02-8.71,13c-.37.49-.59,1.03-.65,1.64-.06.61.04,1.19.31,1.74.44.81,1.05,1.46,1.82,1.95.78.49,1.62.77,2.54.82.95.07,1.81-.16,2.59-.7.39-.26.72-.59.98-.97l2.72-4.04c.21-.79.5-1.35.56-1.27,0,0,.11.02.27.05l.98-1.45,3.66-5.42c-1.3-.77-2.46-1.46-3.33-1.95h0Z"/><path class="cls-4" d="M107.77,145.66c-.39,4.94,4.11,5.65,6.64,4.73.56,4,4.03,4.1,5.71,3.83-.33.18-.67.31-1.04.41-.36.1-.73.15-1.1.16-.37,0-.74-.03-1.11-.11-.37-.08-.72-.2-1.05-.36-.34-.16-.65-.36-.94-.6-.29-.24-.55-.5-.78-.8-.23-.3-.42-.62-.57-.96-.15-.34-.26-.7-.33-1.07-3.18.97-6.79-1.6-5.44-5.24h0ZM108.64,144.61c.71-.68,1.55-.96,2.52-.86-.5.95-.74,1.96-.74,3.03-.23-.13-.45-.29-.66-.46v.82c.14.27.38.35.69.56-.01.6.04,1.18.17,1.76-.15-.06-.24-.19-.41-.27-2.37-1.33-1.58-4.59-1.58-4.59h0ZM112.6,143.88c1.69.54,2.93,2.03,2.84,3.56l.2.02c-.14,1.11-1.31,2.62-3.7,2.25-.11-.49-.16-.99-.17-1.5.42.15.85.21,1.3.19,0-.23.02-.46.05-.69-.47-.06-.93-.19-1.35-.4,0-1.21.29-2.36.84-3.44h0ZM116.58,147.53c3.43-.1,6.09,3.31,4.38,5.82l-.62.1c-2.98.39-4.66-.8-5.16-3.45.78-.65,1.25-1.47,1.4-2.48h0ZM112.59,151.92c.16.42.34.82.55,1.21h0c.37.64.87,1.16,1.51,1.55,4.57,2.72,7.1-.75,7.13-.78.02-.03,2.1-2.75-.94-5.74-.62-.53-1.32-.91-2.09-1.16-.77-.24-1.57-.33-2.37-.26-.15-.58-.4-1.13-.74-1.62-.34-.5-.76-.92-1.25-1.27-.49-.35-1.03-.61-1.61-.77-.58-.16-1.17-.23-1.78-.18h-.05c-3.04.21-3.74,1.86-4.1,2.81-.22.64-.3,1.3-.23,1.98.06.68.26,1.31.6,1.9.02.03,1.49,2.94,5.37,2.34h0Z"/><path class="cls-4" d="M99.03,140.62c2.3-3.24,3.42-5.09,3.92-5.95.5.83,1.18,1.49,2.02,1.98,3.86,2.41,11.99,7.34,14.33,8.63,2.51,1.4,3.02,2.08,3.02,2.08,2.92,2.77,2.37,5.52.94,7.44-1.61,2.17-4.71,3.55-7.29,1.83l-3.51-2.15v-.02l-1.27-.76-10.89-6.69-.04-.02-.03-.02c-1.1-.53-1.86-1.37-2.27-2.53-.31-1.12.05-2.42,1.06-3.83h0ZM104.84,131.34c-.17,2.99,4.42,5.4,6.6,4.8l11.62,7.78c1.74,1.26,3.46,3.4,2.44,6.29-.14-2.71-3.52-4.85-3.52-4.85,0,0-12.49-7.36-16.32-9.76-2.19-1.37-1.98-3.28-.81-4.27h0ZM113.56,134.56c4,2.58,9.27,6.03,11.54,7.75,4.08,3.1,1.88,6.83,1.88,6.83.41-2.24-.6-4.47-3.21-6.23-2.27-1.52-11.15-7.44-11.15-7.44l.94-.9ZM99.68,148.47c.87.49,2.03,1.18,3.33,1.95,5.13,3.07,12.4,7.58,12.4,7.58,5.02,3.19,8.88-1.39,10.1-3.02.95-1.27,3.86-5.19,3.76-8.55-.1-3.27-2.6-5.02-4.84-6.49l-10.42-6.84c-.12.2-.28.44-.38.61l-1.41-.74-.87,1.38c-.85.68-2.65-.02-3.77-1.1-.25-.24-1.49-1.52-.75-2.4l.04-.05.03-.05s.12-.18.26-.44l-1.38-.73c.06-.1.16-.25.25-.4-.66.06-1.27.26-1.83.61-.56.35-1.02.8-1.38,1.36-.92,1.83-4.88,8.34-5.59,9.06-.44.59-.74,1.24-.91,1.95-.16.71-.18,1.43-.04,2.15.27,1.38,1.16,2.88,3.38,4.13h.01Z"/><path class="cls-4" d="M105.78,129.61l1.38.73c.59-.96,2.29-3.77,6.43-10.5,1.24,1.61,2.61,3.09,4.11,4.46l-5.49,8.69,1.41.74c.1-.17.25-.42.38-.61.96-1.55,2.49-4.05,4.88-7.9.12-.19.21-.33.33-.54,0,0-2.39-2.39-4.17-4.27-1.77-1.87-1.72-2.93-1.72-2.93-.12.2-.22.36-.34.55-3.81,6.19-6.04,9.74-6.94,11.18-.09.15-.19.3-.25.4h0Z"/><path class="cls-4" d="M202.7,53.43l6.71,15.41c-.99-.2-3.56-.5-3.56-.5l-5.03-14.13,1.87-.8h0ZM199.19,53.33l.23.69s3.99,12.23,4.68,14.35l.34.02c3.77.36,8.72,1.08,10.44,1.66l-.14-.04c2,.29,3.05,2.46,2.9,4.3-.07.68-.3,1.31-.69,1.87,1.81-1.95,1.15-5.7-1.51-6.46-1.42-.4-2.87-.67-4.34-.78l-7.11-16,4.14-1.78,10.17,18.67c5.81,9.22-4.96,12.56-9.08,6.92.62,0,1.23.04,1.84.13-1.22-.26-2.46-.37-3.71-.35l-.55-.05c1.23,2.28,2.56,3.53,4.02,4.17,1.34.53,2.73.72,4.16.57.72-.03,1.42-.17,2.1-.41.68-.24,1.31-.58,1.89-1.01.58-.43,1.08-.93,1.51-1.51.43-.58.76-1.21,1-1.89.04-.12.94-2.86-1.52-6.96l-11.2-20.38-.6.24-8.17,3.46-.22.1-.57.48h-.01Z"/><path class="cls-4" d="M214.57,71.26l.07.02.07.02c1.03.14,1.64,1.48,1.54,2.58-.05.6-.41,1.95-2.45,1.95-3.02-.67-6.07-1.04-9.16-1.1,0-2.08-1.27-5.04-1.27-5.04,2.74.27,9.76,1.07,11.2,1.56h0ZM204.25,76.21l.18.03.68.1,1.27.12.4.03.55.05c1.25-.03,2.49.09,3.71.35.72.1,1.42.25,2.11.46.25.08.5.14.76.17.26.03.52.02.78-.01s.51-.1.75-.19c.24-.09.47-.21.69-.36.22-.15.41-.32.59-.51s.33-.4.46-.63c.13-.23.23-.47.3-.72.07-.25.12-.51.13-.77.16-1.84-.9-4.01-2.9-4.3l.14.04c-1.72-.58-6.68-1.3-10.44-1.66l-.34-.02h-.22s-1.02-.06-1.02-.06h-.13l.48,1.12c1.24,3.02,1.42,5.19,1.06,6.77h0Z"/><path class="cls-4" d="M192.57,58.22c-1.01-.64-2.28-3.1-2.31-4.62,2.36.03,3.03,3.46,2.31,4.62h0ZM195.05,64.58c-.59-.57-1.06-1.24-1.39-1.99-.33-.76-.51-1.55-.52-2.37.23.05.44.13.65.23s.4.23.58.37c.18.15.34.31.48.5.14.18.26.38.35.6.09.21.16.43.2.66.04.23.06.46.04.69-.01.23-.05.46-.12.68-.07.22-.16.43-.27.63h0ZM190.54,51.95s-1.7.4-.89,3.36c0,0,.14.36.26.67.54,1.23,1.31,2.29,2.31,3.18-.02.89.07,1.76.28,2.63l.05.17c.25,1.09.74,2.07,1.46,2.93,1.97,2.27,4.19.99,3.57-1.75-.54-2.42-1.61-3.31-2.67-4.38.2-4.29-2.46-7.38-4.37-6.81h0Z"/><path class="cls-3" d="M194.9,58.77c1.06,1.06,2.13,1.96,2.67,4.38.62,2.74-1.6,4.02-3.57,1.75-.72-.86-1.2-1.84-1.46-2.93l-.05-.17c-.21-.86-.3-1.74-.28-2.63-1-.89-1.77-1.96-2.31-3.18-.12-.31-.26-.67-.26-.67-.81-2.96.89-3.36.89-3.36,1.91-.57,4.56,2.52,4.37,6.81h0ZM191.92,50.67c-1.22-.5-4.2-.22-3.46,3.22.06.28.15.56.27.82l.6,1.48,2.32,5.63.07.2,3.85,9c.39,1.06.69,2.15.89,3.26h6.57s-.13-1.68-1.61-5.44c-1.12-2.84-4.96-11.61-5.74-13.43-.89-2.08-2.07-4.05-3.76-4.74h0Z"/><path class="cls-3" d="M190.26,53.59c.03,1.53,1.3,3.98,2.31,4.62.73-1.16.05-4.59-2.31-4.62h0Z"/><path class="cls-3" d="M193.14,60.22c.02.83.19,1.62.52,2.37.33.76.79,1.42,1.39,1.99.12-.2.21-.41.27-.63.07-.22.11-.45.12-.68.01-.23,0-.46-.04-.69-.04-.23-.11-.45-.2-.66-.09-.21-.21-.41-.35-.6-.14-.18-.3-.35-.48-.5-.18-.15-.37-.27-.58-.37-.21-.1-.43-.18-.65-.23Z"/><path class="cls-3" d="M194.28,71.65c-.63-1.65-5.52-12.94-6.71-15.7-.53-1.1-.79-2.26-.78-3.48.02-.39.09-.38.09-.38l-2.07,1.09c-1.48,1.87.5,6.81.5,6.81,0,0,1.48,4.64,3.36,9.29,4.93-1.29,9.24,7.67-.24,8.46.86,3.62,9.02,2.1,5.86-6.09h0Z"/><path class="cls-3" d="M185.52,69.87l1.77-.33-3.38-9.45s-1.45-3.29-.56-6.26l-1.51.73s-.96,1.84.09,5.04c1.39,4.2,3.59,10.28,3.59,10.28Z"/><path class="cls-3" d="M194.6,79.35c6.58.47,7.73-2.36,7.73-2.36-2.1-.04-6.05-.04-6.05-.04-.1,1.29-1.68,2.4-1.68,2.4h0Z"/><path class="cls-3" d="M117.94,112.63c1.09-.1,2.33.96,2.33.96l2.37,2.61,8.86-14.43c1.32-2.08,3.25-4.62,3.61-5.11.05-.07.07-.1.05-.08,0,0-1.07-2.25-1.69-3.5-.1-.2-.19-.39-.26-.52-.03-.05-.03-.1-.05-.14-.06-.16-.12-.32-.16-.48-.19-.62-.18-1.23.01-1.84.05-.06.03-.04,0-.02-1.65,1.84-3.16,3.8-4.53,5.86-1.49,2.22-5.75,8.94-10.54,16.71h0Z"/><path class="cls-3" d="M233.83,131.28c.82.06,1.54.35,2.17.88,0,0,6.47-.94,8.39-1.48,0,0-7.98.8-10.56.59h0Z"/><path class="cls-3" d="M190.23,150.8c.07,1.71.03,3.43-.13,5.14l28.32,4.7s-1.58-3.65-2.07-5.07l-26.12-4.77Z"/><path class="cls-3" d="M227.32,160.16l7.6-1.59s2.07.14,1.29-2.53c0,0-4.15.06-10.77-.04l1.88,4.16h0Z"/><path class="cls-3" d="M192.88,96.05l17.09,40.07s2.91-.33,5.33-.76c0,0-16.48-39.1-17.6-41.37,0,0-2.98.07-4.82,2.06h0Z"/><path class="cls-3" d="M220.54,161.37s4.44-.59,5.33-.99c0,0-1.05-2.37-2.52-5.81-1.34-3.14-3.02-7.17-4.61-11.19-.03-.06-.05-.13-.08-.18,0,0-4.6.68-5.53.8,0,0,.04.1.1.24.44,1.07,2.38,5.76,4.18,10,1.41,3.33,2.72,6.38,3.13,7.15h0Z"/><path class="cls-3" d="M230.01,168.78s-4.25.8-5.33.99c0,0,6.99,12.01,17.71,17.55.02,0,.04.02.06.03,0,0-.3-4.94-.49-6.72,0,0-.12-.08-.2-.14-4.61-3.21-8.52-7.12-11.74-11.72h0Z"/><path class="cls-3" d="M265.84,189.33s1.39,4.16-13.82,6.13c0,0,9.08-1.29,11.55-4.35,0,0,2.37-1.98-2.47-3.07-4.7-1.06-5.43-.5-9.97-2.47,0,0,.29,4.44.2,5.53,1.51.46,3.06.72,4.64.78,0,0,.09-1.38-3.76-2.57,0,0,16.58,1.59-.88,5.34.05,1.89-.08,3.77-.4,5.63,0,0,9.05-2.38,11.85-3.16,3.16-.89,9.28-3.75,3.05-7.81h0Z"/><path class="cls-3" d="M175.15,167.17l-8.02-18.15s-3.46-.62-5.2,2.14c5.15,11.27,6.32,14.04,7.3,16.2,1.98.2,3.96.14,5.92-.2h0Z"/><path class="cls-3" d="M163.4,140.29l-24.65-53.02c-.21-.3-.49-.42-.85-.38-.6.04-1.15.22-1.66.53-.51.31-.92.73-1.22,1.24-.32.44-.52.92-.59,1.46-.07.54-.01,1.06.18,1.57.02.03,12.32,25.81,22.57,48.25,2.06.34,4.13.46,6.22.36h0Z"/><path class="cls-3" d="M97.53,158.51c-.3.95-.32,1.91-.07,2.88.17.7.58,1.19,1.23,1.49.03.02,62.68,10.28,62.68,10.28,4.68.9,9.4,1.27,14.16,1.13l1.91-.05c1.27-.04,2.53-.15,3.78-.32,17.76-1.79,40.24-4.66,54.77-8.12,0,0,2.84-.16,3.12-2.42.06-.5.49,2.22.49,2.22.98.3,1.56,1.96,1.59,2.29,2.6,9.36,2.87,23.18,2.9,23.84,0,0-.05,4.54-.74,5.93-.82-1.18-2.46-.85-2.46-.85-23.57,6.03-50.8,2.03-61.48-20.82,0,0-3.31.03-5,2.3,6.87,15.23,19.25,21.29,29.72,24.06,11.54,3.05,25.23,2.86,38.02-.43,2.07-.69,1.6-1.98,1.6-1.98,1.87,2.96,4.22,1.27,4.22,1.27.45-.26.8-.61,1.06-1.06s.38-.93.38-1.45c1.31-20.98-6.31-49.9-14.61-65.22-.52-.43-1.11-.69-1.78-.77-.67-.09-1.31.01-1.92.3-.5.21-.91.54-1.25.96l-.06.5.41,1.74s-1.38-1.37-2.86-1.16c-12.33,2.2-42.27,6.69-61.37,6.93-.26,0-6.32-.06-10.52-.59-8.24-1.04-13.16-3.34-19.07-7.95-5.22-5.46-15.39-16.16-17.26-18.67-.89-1.03-2.66-.44-3.46.18-.31.23-.57.51-.77.84-.2.33-.33.69-.39,1.07s-.04.76.05,1.14c.09.38.25.72.48,1.03,4.29,4.7,14.96,14.87,15.06,14.96,9.64,10.46,19.6,12.5,28.32,12.99,5.17.36,11.98.41,12.04.4,16.07-.96,42.42-4.21,58.17-7.37.53-.14.98-.42,1.34-.83.36-.42.58-.9.64-1.44.24.66.31,1.34.19,2.03,1.49.3,2.3,2.05,2.34,2.2l-.02-.08c1.56,3.92,4.66,13.76,4.7,13.87,0,0,1.18,4.84.68,5.68,0,0-.88-1.31-2.17-1.11l-.05.02-.05.02-3.55.64c-17.15,3.1-34.89,6.29-55.62,7.78-.12.02-5.43.92-15.14-.54,0,0-59.26-10.18-63.57-10.92-.16-.03-.27-.05-.27-.05-.06-.08-.35.48-.56,1.27l-.02-.03Z"/><path class="cls-3" d="M106.84,145.7c.35-.95,1.05-2.59,4.1-2.8h.06c.6-.05,1.19.01,1.78.18s1.12.42,1.61.77c.49.35.91.78,1.25,1.28.34.5.59,1.04.74,1.62.81-.07,1.6.01,2.37.26.77.24,1.47.63,2.09,1.16,3.05,2.99.96,5.71.94,5.74-.02.03-2.55,3.5-7.13.78-.64-.39-1.14-.91-1.51-1.56h0c-.22-.38-.4-.78-.56-1.2-3.88.6-5.36-2.31-5.37-2.34-.34-.59-.54-1.22-.6-1.9-.06-.68.01-1.34.23-1.98h0ZM100.23,146.98l.03.02.03.02,10.89,6.69,1.27.76v.02l3.5,2.15c2.59,1.72,5.68.34,7.29-1.83,1.43-1.92,1.98-4.68-.94-7.44,0,0-.51-.67-3.02-2.08-2.34-1.3-10.47-6.22-14.33-8.63-.84-.49-1.52-1.15-2.02-1.98-.5.86-1.61,2.71-3.92,5.96-1.01,1.42-1.36,2.71-1.06,3.83.41,1.15,1.17,1.99,2.27,2.52h0Z"/><path class="cls-3" d="M126.98,149.13s2.2-3.72-1.88-6.82c-2.27-1.72-7.54-5.18-11.54-7.75l-.94.9s8.88,5.91,11.15,7.44c2.61,1.75,3.63,3.99,3.21,6.23Z"/><path class="cls-3" d="M105.65,135.62c3.83,2.4,16.32,9.76,16.32,9.76,0,0,3.38,2.14,3.52,4.85,1.02-2.9-.7-5.04-2.44-6.29l-11.62-7.78c-2.17.59-6.76-1.82-6.6-4.8-1.16.99-1.38,2.9.81,4.27h0Z"/><path class="cls-3" d="M120.35,153.46l.62-.1c1.72-2.51-.95-5.93-4.38-5.82-.15,1.01-.61,1.83-1.4,2.48.5,2.65,2.18,3.83,5.16,3.45h0Z"/><path class="cls-3" d="M113.21,150.9c.07.37.18.72.33,1.07.15.34.34.66.57.96.23.3.49.56.78.8.29.24.6.44.94.6s.69.28,1.05.36c.37.08.74.11,1.11.11.37,0,.74-.06,1.1-.16.36-.1.71-.23,1.04-.41-1.68.27-5.16.16-5.71-3.83-2.52.93-7.03.21-6.64-4.73-1.35,3.64,2.25,6.21,5.44,5.24h0Z"/><path class="cls-3" d="M237.19,133.65c1.23,2.39,1.72,3.9,2.14,4.82-.17.1,1.84-.33,3.85-.7,2.79-.52,4.81-1.04,6.59-1.48.83-.18,1.62-.45,2.39-.81.28-.1.53-.24.75-.44.29-.27.5-.61.61-.99.12-.39.13-.77.03-1.17-.02-.29-.09-.56-.21-.82s-.28-.49-.48-.7-.43-.37-.69-.49-.53-.2-.82-.22c0,0-.4.05-.96.13-.65.09-1.3.23-1.94.4-3.47.88-7.44,1.75-11.27,2.46h0Z"/><path class="cls-3" d="M245.84,156.93c2.07-.2,11.05-2.47,11.05-2.47,1.72-.03,1.78,1.12,1.78,1.12-3.46,1.29-12.31,3.14-12.31,3.14.4,1.68,1.25,4.93,1.25,4.93,10.47-1.87,12.74-3.03,12.74-3.03,3.06-1.28,1.87-4.87,1.87-4.87-1.18-4.14-6.61-2.27-6.61-2.27-2.57.59-10.27,2.08-10.27,2.08l.5,1.38h0Z"/><path class="cls-3" d="M262.93,154c1.96,2.8,1.19,7.07-1.76,8.03,0,0,2.9,14.62,3.69,22.65.06.9.07,1.81.03,2.71,3.16.66,5.01,2.86,5.01,4.05,1.54-9.22-3.85-35.9-10.79-55.36-1.91-7.18-6.05-6.29-6.05-6.29,2.27.69,3.49,4.51.13,6.98,1.85,4.8,3.33,9.7,4.44,14.72.2,0,.35.07.54.08.94,0,1.84.22,2.68.65.84.43,1.54,1.02,2.1,1.78h0Z"/><path class="cls-3" d="M186,111.57c-.4,2.19-.61,4.39-.64,6.62,0,0,9.17,12.19,22.09,16.44h.02l-2.67-6.52s-.08-.04-.12-.06c-1.15-.52-10.33-4.98-18.68-16.49h0Z"/><path class="cls-3" d="M215.08,131.18l1.68,3.85s8-.88,11.55-1.78c.04-.42.21-.77.51-1.07.3-.3.65-.47,1.07-.51-4.95.39-9.89.22-14.8-.5h0Z"/><path class="cls-3" d="M96.9,146.2l-8.29,12.67c-.21.25-.33.54-.37.87-.04.33.02.64.16.93.32.55.75.99,1.29,1.32.54.33,1.12.52,1.76.56.42.05.83,0,1.21-.18.39-.18.7-.44.94-.79,0,0,6.24-9.28,7.98-11.86,0,0-4.16-2.5-4.68-3.5h0Z"/><path class="cls-3" d="M188.79,75.9l.96-.19c2.05-.32,2.6-1.57,2.44-2.65-.08-.35-.23-.67-.44-.97-.21-.29-.46-.54-.76-.74-.3-.2-.63-.33-.98-.4-.35-.07-.71-.08-1.06-.01-15.69,2.53-33.82,7.21-42.58,10.88-2.53.98-4.95,2.18-7.26,3.61.55.31.9.27,1.47,1.63.32.78,1.51,3.21,1.51,3.21,2.45-1.83,5.12-3.23,8.03-4.18,11.89-4.83,26.12-7.68,38.67-10.19h0Z"/><path class="cls-3" d="M106.87,130.83l-.04.05c-.74.88.49,2.16.75,2.4,1.12,1.08,2.92,1.78,3.77,1.1l.87-1.38,5.49-8.69c-1.5-1.37-2.87-2.85-4.11-4.46-4.15,6.73-5.85,9.53-6.43,10.5-.15.25-.25.41-.26.44l-.03.05h0Z"/><path class="cls-3" d="M204.64,74.74c3.09.06,6.15.42,9.16,1.1,2.04,0,2.4-1.35,2.45-1.95.1-1.11-.51-2.44-1.54-2.58l-.08-.02-.07-.02c-1.45-.49-8.46-1.3-11.2-1.56,0,0,1.27,2.96,1.27,5.04h0Z"/><path class="cls-3" d="M213.16,77.34c-.69-.21-1.39-.36-2.11-.46-.61-.09-1.22-.13-1.84-.13,4.12,5.64,14.88,2.3,9.08-6.92l-10.17-18.67-4.14,1.78,7.11,16c1.47.12,2.92.38,4.34.78,2.66.77,3.32,4.52,1.51,6.46-.49.5-1.07.85-1.74,1.05-.67.2-1.35.23-2.04.09h0Z"/><path class="cls-3" d="M209.41,68.85l-6.71-15.41-1.87.8,5.03,14.13s2.57.3,3.56.5h0Z"/><path class="cls-3" d="M113.08,148.4c-.44.02-.88-.04-1.3-.19,0,.51.06,1,.17,1.5,2.39.37,3.56-1.14,3.7-2.25l-.2-.02c.09-1.53-1.14-3.03-2.84-3.56-.55,1.08-.83,2.22-.84,3.44.43.21.88.34,1.35.4-.03.23-.05.46-.05.69h0Z"/><path class="cls-3" d="M110.23,149.2c.16.08.25.21.41.27-.13-.58-.19-1.17-.17-1.76-.31-.21-.54-.29-.69-.56v-.82c.21.17.43.32.66.46,0-1.07.24-2.08.74-3.03-.97-.1-1.81.19-2.52.86,0,0-.79,3.26,1.58,4.59h0Z"/><path class="cls-3" d="M196.6,52.59h-.95c-.25-.37-.53-.71-.84-1.03-.1-.1-.19-.2-.29-.29-.09-.09-.19-.18-.29-.25-.18-.16-.37-.3-.58-.43-.38-.25-.78-.43-1.22-.56-.53-.17-1.08-.26-1.64-.25-.2,0-.41.02-.6.06-.07.02-.15.04-.22.04-.16.04-.32.08-.48.14h-.01c-.19.07-.38.15-.56.25l-1.09.5c-2.82-4.77-6.04-9.26-9.65-13.47-3.67-4.26-7.67-8.16-12.02-11.71C145.38,8.65,116.32-.41,81.42,4.7c7.67-1.86,15.45-2.91,23.34-3.14,28.4-.83,57.2,9.24,78.4,32.31,3.13,3.4,6.01,6.98,8.67,10.76.37.63.73,1.17,1.09,1.72.3.46.62.93.94,1.43.48.74,1,1.57,1.58,2.63.35.63.74,1.34,1.15,2.17h0Z"/><path class="cls-4" d="M187.82,50.77h-.78v.39c-.84.43-1.83.93-2.72,1.37h-8.88c-10.75-18.22-31.85-36.87-59.81-44.05-6.88-1.74-13.86-2.75-20.95-3.01-7.09-.26-14.13.22-21.12,1.45l7.87-2.22c34.91-5.11,63.97,3.95,84.73,20.89,8.72,7.1,15.95,15.5,21.67,25.18Z"/><path class="cls-4" d="M178.91,60.39c-.47-1.29-.69-1.78-1.28-3.86-.81-2.81.3-2.86,1.48-2.96.65-.03,1.3,0,1.95.1.34-.64.82-1.15,1.42-1.56l-.2.08c-4.53-.17-4.44-.21-4.45-.21-.7-.06-1.36.06-2,.35-.64.29-1.16.72-1.57,1.28-1.56,2.44.42,6.5.56,6.85,0,0,2.87,8.28,3.77,10.85.58-.12,1.15-.23,1.72-.34l-4.26-11.78c-1.68-3.98.2-5.47.2-5.47-.35,1.38-.29,2.74.2,4.09.55,1.74,2.41,6.84,3.95,10.76.31.78.57,1.51.81,2.22.47-.09.93-.18,1.39-.28-1.31-3.95-3.12-8.6-3.68-10.14h0Z"/><path class="cls-4" d="M195.67,55.41c.78,1.83,4.62,10.59,5.74,13.43,1.49,3.75,1.61,5.43,1.61,5.43h-6.57c-.21-1.11-.51-2.2-.89-3.26l-3.85-9-.07-.2-2.32-5.63-.6-1.48c-.12-.27-.21-.54-.26-.82-.74-3.45,2.24-3.73,3.46-3.22,1.68.69,2.86,2.67,3.76,4.74ZM194.6,79.34s1.58-1.11,1.68-2.4c0,0,3.95,0,6.05.04,0,0-1.15,2.83-7.73,2.36h0ZM188.42,77.73c9.48-.8,5.17-9.75.24-8.46-1.88-4.64-3.36-9.29-3.36-9.29,0,0-1.98-4.94-.5-6.81l2.07-1.09s-.07,0-.09.38c-.01,1.22.25,2.38.78,3.48,1.19,2.76,6.08,14.06,6.71,15.7,3.16,8.2-5,9.71-5.86,6.09ZM181.85,54.55l1.51-.73c-.88,2.96.56,6.26.56,6.26l3.38,9.45-1.77.33s-2.2-6.08-3.59-10.28c-1.05-3.19-.09-5.04-.09-5.04h0ZM190.07,48.99s-1.4.35-2.57.69l-4.94,2.37s-.05.03-.09.05c-.6.4-1.07.92-1.42,1.56-.18.33-.33.67-.45,1.03-.44,1.61-.38,3.2.18,4.77.38,1.3.77,2.5,1.14,3.63.41,1.23.8,2.33,1.16,3.3.7,1.87,1.25,3.21,1.5,3.79.09.21.15.35.15.35,0,0,4.34-1.09,6.02-.4,0,0,3.55,1.29,1.97,4.54,0,0-.3,1.68-5.72,2.37.06.28.14.55.24.81.35.98,1.17,2.51,2.91,2.65,2.63.2,5.26.2,7.9,0,1.05-.14,5.3-.45,6.19-4.29.37-1.58.18-3.75-1.06-6.77l-.48-1.12-5.84-13.59c-.21-.8-.52-1.56-.92-2.28-.26-.55-.6-1.05-1.01-1.49-.41-.45-.88-.82-1.4-1.13-.52-.31-1.08-.53-1.67-.67-.59-.14-1.19-.19-1.8-.15h.02Z"/></g></svg>