<?xml version="1.0" encoding="UTF-8"?><svg id="uuid-7a482fc2-eed8-4014-8245-f389f1d7298d" xmlns="http://www.w3.org/2000/svg" viewBox="0 0 75 70.8">
<title>Dallas Cowboys logo - Brandlogos.net</title><g id="uuid-a67054d3-17e9-445c-94b8-2e165c9b5f7b"><g id="uuid-3863ebc6-a270-4e82-b753-45b3571e7f8a"><path d="M46.2,27L37.4,0l-9.1,27H0l23.3,16.7-8.9,27.1,23.1-16.5,23.1,16.5-8.6-27.2,23-16.5h-28.8v-.1ZM58.6,68.1l-21.2-15.1-21.1,15.1,8.2-24.8L3.1,28h26L37.4,3.2l8.1,24.8h26.2l-21,15.1,7.9,25Z" style="fill:#fff;"/><path d="M71.7,28h-26.2L37.4,3.2l-8.3,24.8H3.1l21.3,15.3-8.1,24.8,21.2-15.1,21.1,15.1-7.9-25,21-15.1ZM37.5,50.3l-17.2,12.3,6.7-20.1-17.3-12.4h21l6.7-20.1,6.6,20.1h21.2l-17,12.3,6.4,20.2-17.1-12.3Z" style="fill:#0a2240;"/><path d="M65.3,30.1h-21.3l-6.5-20.1-6.8,20.1H9.7l17.3,12.4-6.6,20.1,17.2-12.3,17.2,12.3-6.4-20.2,16.9-12.3ZM51.1,57.5l-13.6-9.7-13.6,9.7,5.2-15.9-13.6-9.8h16.6l5.3-15.9,5.2,15.9h16.8l-13.4,9.7,5.1,16Z" style="fill:#fff;"/><polygon points="59.4 31.8 42.7 31.8 37.5 15.9 32.2 31.8 15.6 31.8 29.2 41.6 23.9 57.5 37.5 47.8 51.1 57.5 46 41.5 59.4 31.8" style="fill:#0a2240;"/></g></g></svg>