<?xml version="1.0" encoding="UTF-8"?><svg id="uuid-4bdcd468-eedd-45de-ab5b-480d62a7503f" xmlns="http://www.w3.org/2000/svg" viewBox="0 0 480 281.19">
<title>Denver Broncos logo - Brandlogos.net</title><path d="M243.16,278.26c.01.18-.2,1.41-.69,1.95-.49.54-1.21.74-1.9.89-1.13.25-2.25,0-3.15-.67-.74-.56-1.2-1.34-1.26-2.1v-.04s-.01,0-.01,0l-8.4-27.34c-4.71-14.02-11.82-29.06-25.63-42.37-16.68-16.07-41.26-27.19-75.16-33.97-29.54-5.91-48.99-11-63.06-16.48-13.5-5.26-21.46-10.74-29.26-17.34C14.76,123.96.9,102.51,0,75.48c0,0,19.78,27.93,41.53,14.59,10.28-6.3,17.67-5.4,17.67-5.4-6.69-7.37-11.62-17-12.94-27.48-1.05-8.38-.37-17.67,2.04-27.63C52.39,12.61,64.31.19,64.43,0c0,0-4.69,40.71,14.79,55.16,12.01,6.76,24.34,4.03,24.34,4.03,0,0-16.18-7.49-18.44-31.51-.99-10.56.57-18.87.98-20.99,0,0,21.36,30.12,42.76,17.75,4.79-2.77,30.04-15.81,40.93-18.7,15.98-4.24,31.8-4.54,47.01-.89,12.63,3.03,24.96,8.8,36.65,17.16,20.84,14.89,34.34,34.22,39.17,41.85,0,0,41.94-1.85,64.9,27.47l.03.05,53.09,23.41-6.02,3.85-.26.17.27.17c17.18,10.91,47.24,30.25,55.42,37.22l.02.02h.03s15.21,7.24,15.21,7.24l-2.77,7.36h0c-.18.5-4.31,12.29,3.48,18.12l3.91,2.93.08.07-.04.09-11.95,31.64-3.03-4.06c-16.68-22.97-32.44-27.21-40.36-27.37-8.96-.19-9.6,4.58-8.48,6.64,3.61,6.65,23.7,10.1,31.14,10.86,0,0,4.92.64,5.07.66l-19.35,17.33-35.09-2.2h-.14s.01-.15.01-.15l.59-6.89v-.04c-.18-1.3-2.55-13.06-31.24-24.86l-.08-.03-.08.04c-4.88,2.25-14.89,6.13-27.16,6.79-14.79.8-28.52-3.19-40.8-11.85l-.08-.05-.1.02c-4.92,1.68-14.64,5.47-24.35,12.13-18.02,12.38-27.86,28.58-29.23,48.13,0,0-1.58,16.12-2.07,29.5" style="fill:#024;"/><path d="M128.74,60.91c39.07-11.99,65.52-10.12,74.55,5.23-33.18,3.79-66.35,13.2-98.6,27.97-16.16-1.1-31-7.69-39.71-17.64-10.99-12.55-14.61-31.26-7.04-54.86.54,20.35,6.47,32.3,16.3,39.03,11.53,7.9,29.36,7.98,54.51.27h0ZM250.19,28.97c13.39,10.01,25.96,23.8,36.37,39.9-20.31-3.75-41.15-5.23-61.93-4.4-6.14-12.28-16.54-21.28-27.85-24.09-12.55-3.11-28.63-.71-47.81,7.14-17.22,7.05-30.96,7.83-40.83,2.32-5.52-3.08-9.82-8.12-12.8-14.96-2.39-5.48-3.37-10.85-3.87-13.81l.24.24c5.23,5.42,19.14,19.83,40.64,8.69,8.18-4.24,30.02-14.95,39.68-17.55,14.91-4.01,29.7-4.1,43.92-.42,11.77,3.05,23.29,8.74,34.23,16.92h0ZM12.98,95.29s11.81,11.24,31.67,1.07c22.33-11.43,26.14,1.19,44.8,7.08-67.39,38.69-76.47-8.15-76.47-8.15h0Z" style="fill:#fb4f14;"/><path d="M462.47,176.28c.05-5.19,1.44-9.41,1.73-10.22l-9.05-4.22h-.04s-.02-.04-.02-.04c-5.59-6.04-66.11-44.07-66.72-44.46l-.23-.14.23-.14,4.47-2.98-41.02-17.36-.05-.02-.03-.04c-16.65-24.88-49.46-25.87-55.76-25.82,12.5,3.86,16.32,7.66,17.28,10.19.64,1.69,0,2.75-.03,2.79l-.07.11-.12-.03C171.53,45.34,55.76,134.02,50.91,137.81c5.56,5.6,18.05,13.15,62.94,23.11,10.02-7.82,57.77-41.75,129.85-39.75l-11.7-17.65s44.64,11.59,70.13,25.74c-1.97,18.85,9.72,37.02,28.57,42.58,13.51,3.98,27.45.54,37.43-7.94l32.03,20.42-30.73-11.91c-13.07,9.44-30.31,12.73-46.82,7.37-20.43-6.63-33.97-24.64-35.9-44.73-69.16-17.35-120.16,26.34-130.35,35.97,8.24,2.61,15.84,5.57,22.74,8.86,8.4,4.02,15.96,8.64,22.6,13.79,5.12-6.24,25.55-27.69,64.71-28.02,0,0-38.46,9.94-50.71,41.24,10.89,12.6,16.5,25.92,20.81,38.64.98-12.09,4.85-23.18,11.54-32.98,5.48-8.01,12.83-15.17,21.86-21.3,15.37-10.43,30.47-14.26,30.62-14.3l.08-.02.07.05c31.16,25.1,65.46,5.33,65.81,5.13l.07-.04.08.03c9.59,3.66,17.7,7.77,24.07,12.21,5.11,3.55,9.13,7.32,11.96,11.21,4.39,6.04,4.51,10.38,4.49,11.28l23.24,1.52,6.82-5.82c-21.12-2.73-27.52-9.29-28.83-14.91-2.27-13.55,11.58-15.22,17.89-14.4,14.71,1.92,32.59,15.08,39.33,24.24l4.98-13.37c-6.79-5.15-8.16-12.52-8.11-17.8" style="fill:#fffffe;"/><path d="M380.53,121.86c-.4,2.71-2.83,4.68-5.61,4.47-2.9-.22-5.07-2.75-4.85-5.65.11-1.36.73-2.56,1.65-3.43-15.54-7.62-23.66-8.78-23.66-8.78,18.82,12.48,26.85,22.89,26.85,22.89l5.09-3.47,47.58,26.53c-18.93-15.43-34.68-25.71-47.04-32.57" style="fill:#024;"/><path d="M370.07,120.67c-.22,2.9,1.95,5.43,4.85,5.65,2.78.22,5.21-1.76,5.61-4.47-.75-.41-1.49-.82-2.21-1.21l-5.19,3.81,1.45-5.78c-.97-.5-1.92-.98-2.85-1.43-.92.87-1.54,2.07-1.65,3.43" style="fill:#fb4f14;"/><path d="M373.13,124.46l5.19-3.81c-1.29-.7-2.54-1.36-3.75-1.97l-1.45,5.78M455.78,167.16c-11.2,4.48,3.23,17.31,3.23,17.31-31.39-24.76-3.23-17.31-3.23-17.31M319.21,86.3c20.3.41.15-8.2.15-8.2,0,0,14.61,2.24,23.11,15.79-8.02-3.09-16.8-6-23.27-7.59" style="fill:#024;"/></svg>