<svg id="Layer_1" data-name="Layer 1" xmlns="http://www.w3.org/2000/svg" viewBox="0 0 449.76 295.17"><title>Green Bay Packers logo - Brandlogos.net</title><path d="M380.69,218.26C259.44,218.27,157,286.2,157,366.61c0,83.7,96.17,146.82,223.69,146.82,74.42,0,145-26.15,188.76-69.94,24.09-24.1,37.34-51.41,37.32-76.88,0-39.65-23.36-76.88-65.69-104.86s-99.39-43.49-160.38-43.49" transform="translate(-157 -218.26)" style="fill:#ffb612"/><path d="M224.26,464.93c-38.9-25.94-60.33-60.86-60.33-98.32,0-75.33,101.29-141.42,216.76-141.43,120.77,0,219.08,63.44,219.15,141.43,0,23.63-12.51,49.19-35.3,72C522,481.11,453.32,506.5,380.69,506.5c-60.68,0-116.24-14.77-156.43-41.58" transform="translate(-157 -218.26)" style="fill:#203731"/><path d="M477.73,327.76c-17.41-25.93-55.54-43.91-100.44-43.91-61.62,0-111.59,33.88-111.59,75.68S301,438,377.29,438c45.83,0,82.68-19.81,99.89-45.8L347,392.4l-.4-33.8,226-.08a71.71,71.71,0,0,1,.62,8.1c0,65.07-86.19,117.81-192.5,117.81S188.19,431.68,188.19,366.61s91.3-119.81,192.49-120.2c84.23-.32,155.82,34.47,181.93,81.3l-84.89.05" transform="translate(-157 -218.26)" style="fill:#fffffe"/></svg>