<?xml version="1.0" encoding="UTF-8"?><svg id="uuid-2e2cf5e9-20da-419f-a359-00a4fbc2ab0a" xmlns="http://www.w3.org/2000/svg" viewBox="0 0 410 374.12">
<title>Houston Texans logo - Brandlogos.net</title><path d="M302.5,63.74c87.73,66.76,20.97,76.76-47.55,86.51,0,0-28.91-7.97-79.01-32.87-113.63-56.43-77.86-83.02,11.45-99.11C44.47-43.99-74.65,64.42,56.76,169.83l-36.06,25.78c29.63,18.16,91,56.25,82.07,114.58l-30.45,21.77,93.03,42.16,73.41-33.26c.53-32.31,58.27-49.08,83.12-114.8,136.75-31.37,101.93-151.67-19.35-162.31h0Z" style="fill:#fff;"/><path d="M240,156.41C68.33,90.1,56.96,35.71,164.12,16.92,30.1-19.5-48.06,77.62,84.53,170.24l-35.58,25.43c37.78,25.24,77.82,62.62,64.23,121.45l-17.93,12.8,68.85,31.21c64.07-70.18,97.6-138.37,75.88-204.72h0ZM196.73,263.17l-26.37-30-30.28,4.51,14-23.06-26.37-30.02,35.02,15.76,13.96-23.06,7.64,32.78,35.02,15.74-30.29,4.54,7.67,32.8h0Z" style="fill:#021018;"/><path d="M327.14,74.19c58.92,46.12,18.01,75.6-53.82,83.6,18.17,76.6-37.55,146.76-96.53,201.08l54.09-24.5c4-31.14,58.88-47.32,84.88-116.41,122.14-27.25,102.21-114.91,11.38-143.78h0Z" style="fill:#eb0028;"/></svg>