<?xml version="1.0" encoding="UTF-8"?><svg id="Layer_1" xmlns="http://www.w3.org/2000/svg" viewBox="0 0 142.49 149.99"><defs><style>.cls-1{fill:#fff;}.cls-2{fill:#013369;}</style></defs><path class="cls-1" d="M71.25,149.99c-14.45.06-25.53-4.06-30.83-6.86-10.39-5.45-18.95-12.67-26.32-22.69C3.5,106.09,1.45,94.52.61,88.22c-.49-3.28-1.08-11.16.02-18.23,1.25-10.2,3.57-15.28,5.23-20.26,1.29-3.54,5.45-12.04,7.92-15.95,2.1-3.06,5.93-8.69,7.49-10.68.43-.62-.13-.33-.36-.32-.58.14-.87.17-1.31.14-.33,0-.99-.11-1.36-.22-2.07-.44-5.01-2.72-4.64-6.7-.07-.88.88-8.47,1.62-10.83C16.17,1.86,18.16.31,21.7.02c1.77,0,9.21-.15,12.59.38,6.77.67,11.72,2.64,14.67,8.61,2.36,5.23,1.55,13.41-1.69,19.67-1.11,2.14-3.32,6.11-5.23,8.69-1.77,2.58-2.5,3.91-4.05,6.78-1.55,3.02-6.71,14.29-8.47,21.65-3.36,13.74-1.47,21.66,5.01,32.41,4.79,7.14,10.39,12.3,14.73,14.66,7.15,4.49,16.91,5.75,21.99,5.75s14.85-1.25,21.99-5.75c4.34-2.36,9.95-7.51,14.73-14.66,6.49-10.76,8.37-18.67,5.01-32.41-1.77-7.36-6.93-18.63-8.47-21.65-1.55-2.87-2.28-4.2-4.05-6.78-1.92-2.58-4.12-6.56-5.23-8.69-3.24-6.26-4.05-14.44-1.69-19.67,2.94-5.97,7.9-7.93,14.67-8.61,3.38-.53,10.82-.38,12.59-.38,3.54.3,5.53,1.84,6.48,5.16.74,2.36,1.69,9.94,1.62,10.83.37,3.98-2.58,6.26-4.64,6.7-.36.11-1.03.22-1.36.22-.44.04-.74,0-1.31-.14-.24,0-.79-.3-.36.32,1.56,1.99,5.4,7.62,7.5,10.68,2.47,3.9,6.63,12.41,7.92,15.95,1.66,4.97,3.98,10.05,5.23,20.26,1.1,7.07.51,14.95.02,18.23-.85,6.3-2.89,17.86-13.49,32.22-7.37,10.02-15.93,17.24-26.32,22.69-5.3,2.8-16.38,6.79-30.83,6.86"/><path class="cls-2" d="M38.94,138.28c-9.43-5.6-17.98-12.67-26.23-26.28-3.68-6.72-12.23-21.01-8.02-45.9,4.86-22.76,14.65-34.25,20.25-42.13,2.65-3.83-.07-6.04-2.21-5.23-1.79.68-3.02.72-3.02.72-3.17-.43-2.72-2.49-2.14-7.87l.74-4.42c.66-3.9,2.43-3.83,7.07-3.74,7.37.15,8.69.21,12.67.94,5.31,1.18,12.23,6.48,6.78,21.07-3.39,7.81-6.92,10.46-10.76,18.56-4.12,8.99-14.14,29.17-7.37,46.4,9.29,23.13,27.26,31.38,44.35,31.67,17.09-.22,36.84-10.31,44.74-31.67,6.78-17.24-3.24-37.42-7.37-46.4-3.83-8.1-7.37-10.75-10.76-18.56-5.45-14.58,1.48-19.89,6.78-21.07,3.98-.74,5.3-.8,12.67-.94,4.64-.09,6.41-.16,7.07,3.74l.74,4.42c.59,5.38,1.03,7.44-2.14,7.87,0,0-1.23-.04-3.02-.72-2.13-.81-4.86,1.4-2.21,5.23,5.6,7.88,15.38,19.37,20.25,42.13,4.22,24.89-4.33,39.18-8.02,45.9-8.25,13.61-16.8,20.68-26.23,26.28-12.91,8.99-37.07,8.47-32.43,8.18,4.86.37-17.76.96-32.2-8.18M109.21,24.91c0-.96-.78-1.73-1.74-1.73s-1.73.77-1.73,1.73.78,1.73,1.73,1.73,1.74-.77,1.74-1.73ZM129.54,72.05c0-.96-.78-1.74-1.74-1.74s-1.74.77-1.74,1.74.78,1.73,1.74,1.73,1.74-.78,1.74-1.73ZM119.22,112.12c0-.96-.78-1.74-1.73-1.74s-1.73.78-1.73,1.74.78,1.73,1.73,1.73,1.73-.77,1.73-1.73ZM35.03,26.64c.96,0,1.73-.77,1.73-1.73s-.78-1.73-1.73-1.73-1.74.77-1.74,1.73.78,1.73,1.74,1.73ZM14.7,73.78c.96,0,1.73-.78,1.73-1.73s-.78-1.74-1.73-1.74-1.73.77-1.73,1.74.78,1.73,1.73,1.73ZM25.01,113.85c.96,0,1.73-.77,1.73-1.73s-.78-1.74-1.73-1.74-1.73.78-1.73,1.74.78,1.73,1.73,1.73h0ZM71.16,135.8c.96,0,1.73-.78,1.73-1.73s-.78-1.74-1.73-1.74-1.73.78-1.73,1.74.78,1.73,1.73,1.73Z"/></svg>