<?xml version="1.0" encoding="UTF-8"?><svg id="Layer_1" xmlns="http://www.w3.org/2000/svg" viewBox="0 0 280.51 200"><defs><style>.cls-1{fill:#024;}.cls-2{fill:#fff;}.cls-3{fill:#b3995d;}</style></defs><path class="cls-2" d="M205.88,198.95c.09-.02,6.78-1.73,6.78-1.73,8.32-2.07,13.61-3.44,16.71-4.92,0,0,2.72-1.32,2.72-1.32l1.56-2.59c.45-.75,10.83-18.28,15.96-42.67,1.45-1.32,6.88-6.26,6.88-6.26l.15-1.64.21-2.23c.19-2.01.28-4.04.28-6.06,0-3.64-.3-7.43-.89-11.27,12-6.68,17.19-16.33,20.38-24.18,2.6-6.4,3.9-13.59,3.9-21.05s-1.27-14.99-3.79-22.37c-4.09-11.95-13.38-28.8-34.4-41.21-13.1-7.73-31.54-11.01-49.38-8.77-20.71,2.59-38.54,12.38-50.2,27.54-.91,1.18-1.77,2.44-2.6,3.74-.12.02-.4.07-.4.07-66.13,10.3-118.56,53.36-120.75,55.19L0,102.98l24.59,1.98c43.33,3.49,74.01,18.65,92.11,30.75,19.83,13.26,29.37,25.85,29.46,25.98l6.4,8.71,8.23-7.06c1.4-1.2,2.66-2.57,3.8-4.09.03.04.28.25.28.25l1.86,1.55c1.23.99,2.23,1.84,3.5,3.27.31.7.5,1.48.5,2.37,0,2.22-.27,2.85-.86,4.23l-.29.67c-.7,1.69-2.03,4.12-2.05,4.15l-2.01,3.69,36.61,20.57"/><path class="cls-1" d="M168.69,149.5c.14.13.29.24.43.38l-.02-.12s-.15-.09-.41-.25Z"/><path class="cls-1" d="M230.67,89.16c-.2.21-.4.41-.61.61l.36-.35c.08-.09.16-.18.25-.26Z"/><path class="cls-3" d="M240.14,13.12C216.71-.72,170.46-.83,146.11,30.82c-1.22,1.59-2.35,3.26-3.39,4.98-1.05.21-1.85.36-2.31.44-64.93,10.11-116.55,52.46-118.72,54.26l-10.93,9.08,14.16,1.14c85.83,6.9,124.26,57.92,124.63,58.44l3.71,5.03,4.73-4.07c2.59-2.23,4.37-4.85,5.63-7.4,1.16,1.06,2.46,2.21,4.04,3.6,2.16,1.88,3.79,2.85,6.19,5.71.81,1.51,1.11,3.14,1.11,4.67,0,3.49-.67,4.61-1.48,6.53-.8,1.92-2.24,4.56-2.24,4.56l31.41,17.63,2.12-.59,6.82-1.75c7.84-1.95,13.2-3.33,15.92-4.63l1.57-.76.9-1.49c.45-.76,10.87-18.43,15.71-42.69,1.72-1.57,6.69-6.09,6.69-6.09l.21-2.23c.17-1.91.25-3.79.25-5.66,0-4.72-.52-9.33-1.34-13.62,12.45-5.89,17.74-15.01,21.15-23.43,9.05-22.32,1.83-59.07-32.53-79.36Z"/><path class="cls-1" d="M264.55,48.85C244.69.83,190.13,10.42,190.13,10.42c0,0,.15-.02.43-.04,2.79-.22,18.96-1.16,35.16,5.53,14.22,5.87,30.11,20.5,33.96,39.82.91,4.59,1.27,8.84,1.27,12.69v.97c-.18,11.84-3.74,19.79-4.95,22.29-1.62,3.36-5.61,8.29-8.3,10.25-2.26,1.66-4.35,2.36-5.94,2.36-.31,0-.59-.03-.85-.08h-.02c-.27-.04-.53-.12-.76-.22-1.51-.69-2.02-2.49-5.46-7.32-2.28-3.21-5.18-6.32-5.18-6.32.29-.25.54-.52.81-.78h0c.12-.14.25-.27.38-.41.31-.33.61-.72.9-1.11.83-1.14,1.54-2.46,2.11-3.96.02-.07.04-.11.06-.17.18-.48.34-.97.49-1.47,2.79-9.95-.29-25.35-12.82-35.38-13.31-10.66-27.7-11.54-39.36-6.87-19.62,7.87-31.49,31.48-17.48,50.79,6.79,9.37,17.83,9.97,24.7,4.72,6.42-4.93,10.74-20.01-5.07-28.08,12.7-1.07,28.12,14.08,20.53,33.63-.56,1.43-1.21,2.76-1.94,4.01-11,18.54-41.02,16.49-55.45-.76-14.06-16.8-16.45-39.31-9.7-58.06.49-1.36,1.04-2.72,1.63-4.04-57.99,12.53-95.51,47.61-95.51,47.61,81.09,16.83,110.48,65.73,110.48,65.73,3.01-2.58,4.64-6.05,5.55-8.9-5.62-9.21-3.16-17.84-3.16-17.84,1.23,6.2,3.5,10.75,5.76,14.01.97,1.35,5.44,5.74,6.31,6.5.26.17.41.25.41.25l.02.12c4.06,3.59,8.89,7.65,9.75,9.19,4.36,7.85-.19,16.75-.19,16.75l24.54,13.45c5.47-1.54,18.28-4.35,21.81-6.04,0,0,10.88-18.19,15.4-42.74l6.43-5.85c2.38-6.74-1.83-21.48-1.83-21.48.52-.13,1.06-.29,1.59-.47,1.28-.42,2.55-.99,3.83-1.7,13.9-7.7,26.68-31.79,14.1-62.15Z"/><path class="cls-2" d="M260.94,68.41c0-3.85-.35-8.1-1.27-12.69-3.84-19.33-19.73-33.95-33.96-39.82-16.2-6.69-32.37-5.75-35.16-5.53-.66.08-1.33.16-1.98.25-22.07,3.12-35.49,18.89-35.49,18.89,19.98-15.62,49.97-17.46,69.81-9.33,19.83,8.14,34.24,24.65,38.04,49.19,0-.08,0-.15,0-.22,0-.24,0-.49,0-.75Z"/><path class="cls-2" d="M196.5,164.79c.21-.99,3.06-1.19,3.06-1.19,2.02,7.16-1.11,11.75-1.3,12.43-.15-3.25.43-9.27-1.76-11.25Z"/><path class="cls-2" d="M147.33,104.5c-14.06-16.8-16.45-39.32-9.7-58.06-4.03,6.21-13.29,24.63-1.83,50,13.9,30.76,51.93,31.98,64.72,12.73.87-1.31,1.62-2.61,2.27-3.91-11,18.54-41.02,16.48-55.45-.76Z"/><path class="cls-2" d="M220.31,132.5c0-2.54,2.05-4.6,4.59-4.6.09,0,.16.01.24.01-.54-2.54-1.67-5.32-3.81-8.05,0,0,.17,2.72-.41,5.05-2.34,1.24-3.94,3.69-3.94,6.53,0,4.07,3.31,7.37,7.38,7.37,0,0,.27-.63.56-1.72h-.02c-2.54,0-4.59-2.06-4.59-4.59Z"/><path class="cls-1" d="M225.41,134.51c-.05.12-.09.23-.15.35-.93.38-2.5.04-3.11-1.43,1.71,1.01,3.03-.07,3.38-.4.07-.06.1-.1.1-.1,0,0,.07.72-.22,1.57Z"/><path class="cls-2" d="M225.64,132.95s-.04.04-.1.1c-.35.33-1.67,1.4-3.38.4.61,1.47,2.19,1.81,3.11,1.43.06-.12.1-.23.15-.35.29-.85.22-1.57.22-1.57Z"/><path class="cls-2" d="M239.84,131.73c.57-23.32-18.9-38.82-18.9-38.82,0,0,14.27,17.79,12.61,38.71l-3.88,3.62c.06,5.68-.21,16.46-5.7,28.54-5.7-10.3-18.26-17.12-23.44-18.35-3.52,1.98-11.34,6.28-15.9,11.34.8,1.09,1.91,4.06,2.09,5.02,1.04,5.73.26,9.89-.63,12.89.01,0,8.7,4.86,8.58,4.62,2.38-8.23-.79-11.95-3.2-16.17,2.35-1.43,7.81-4.49,10.35-5.55,2.57,3.55,3.9,9.41,1.13,17.77-.83,2.5-2.04,5.05-2.76,6.81,0,.09,3.39,1.9,3.37,1.79,4.4-.88,8.42-3.89,9.97-8.11.46-1.25.26-2.22.11-3.21-.43.55-1.02,1.43-1.74,1.91-1.13-2.61-1.14-4.69.29-6.26.74-.81,1.56-1.11,2.55-1.14,1.46-.05,2.63.89,3.1,2.01,2.18,5.37-2.88,11.01-2.88,11.01,0,0,4.84-.22,6.24-.91,2.85-5.76,11.68-24.55,14.19-43.51l4.46-4.01Z"/></svg>