<?xml version="1.0" encoding="UTF-8"?><svg id="uuid-bef0ce81-1570-4866-837e-c0bdd21efcb5" xmlns="http://www.w3.org/2000/svg" viewBox="0 0 183.98 99.66">
<title>San Diego Chargers logo - Brandlogos.net</title><path d="M83.24,0c2,2.05,5.88,7.37,5.88,7.37C38.44,5.07,11.87,39.49,11.87,39.49l7.99.73C-6.12,74.81.85,99.53.85,99.53c19.15-26.1,31.71-42.14,64.54-54.56,0,0-3.17-4.94-5.12-7.14,46.8-4.26,90.83,24.02,90.83,24.02,0,0-4.28-10.27-5.33-12.58,21.02,17.93,38.06,50.39,38.06,50.39,1.89-29.47-13.25-96.51-100.6-99.66Z" style="fill:#12274b;"/><path d="M180.45,87.46c-4-44.41-33.88-79.25-90.08-83.88,0,0,5.45,7.33,5.45,7.33C42.69,6.98,19.41,36.89,19.41,36.89c0,0,3.59.37,6.69.61C1.8,66.24,3.31,90.41,3.31,90.41c18.37-24.42,32.06-36.27,57.1-47.01,0,0-2.95-4.41-6.99-8.04,47.03-6.97,91.15,19.3,91.15,19.3,0,0-4.39-10.55-8.24-16.15,24.92,14.64,44.13,48.94,44.13,48.94Z" style="fill:#3997d3;"/><path d="M95.9,6.76c1.45,1.95,2.95,3.95,5.26,7.09-14.01-1.24-49.84-3.5-75.91,21.03,0,0,6.04.55,6.01.59-8.98,9.57-22.11,29.74-24.9,47.02,19.85-26.58,38.54-34.98,50.12-40.11-2.23-2.97-6-6.49-8.88-8.48,28.6-6.4,65.71,1.29,91.6,15.05-2.62-5.8-6.78-11.71-9.91-16.85,25.34,10.84,42.12,36.68,47.42,44.87-2.84-14.29-15.9-62.75-80.81-70.2Z" style="fill:#f0c818;"/></svg>