<?xml version="1.0" encoding="UTF-8"?><svg id="Layer_1" xmlns="http://www.w3.org/2000/svg" viewBox="0 0 248.02 196"><defs><style>.cls-1{fill:#005778;}.cls-2{fill:#fff;}.cls-3{fill:#fc4c02;}.cls-4{fill:#008e97;}</style></defs><path class="cls-2" d="M248.02,47.98c-.04-.93-.22-1.48-.22-1.48h0c-1.13-3.94-5.15-6.37-10.62-6.37-.58,0-1.17.03-1.76.09-4.19.42-11.65,2.94-13.87,3.72-6.95-1.76-13.47-2.61-19.9-2.61-3.33,0-6.63.24-9.93.7h0s-1.36.18-1.36.18c0,0-.53-1.72.86-5.74.72-2.09,1.7-4,1.7-4,0,0-15.14,7.87-17.03,5.36-1.89-2.51,6.58-22.48,6.58-22.48,0,0-14.6,16.22-17.46,15.5-1.12-.28-1.23-6.16-1.29-12.48-.08-8.56.22-18.35.22-18.35,0,0-12.02,29.88-14.95,29.73-2.54-.13-6.24-16.09-6.24-16.09,0,0-2.32,13.75-6.49,15.43-4.17,1.68-14.9-24.02-14.9-24.02,0,0-.5,25.73-3.48,26.31-2.98.58-12.49-9.04-12.49-9.04,0,0,4.45,12.82,2.95,14.5-.9,1.01-10.04-4.64-19.55-11.46-5.49-3.94-10.09-7.24-10.09-7.24,0,0,5.36,8.9,9.62,18.2,2.93,6.41,4.71,12.55,3.95,13.75-1.88,2.93-15.99-1.25-15.99-1.25,0,0,8.02,7.73,7.5,9.72-.25.97-8.23.27-16.34-.84-8.6-1.18-17.35-2.8-17.35-2.8,0,0,28.64,16.65,27.74,19.65-.71,2.37-18.54.43-18.54.43,0,0,15.5,7.08,15.43,9.42-.06,2.34-30.33,10-30.33,10,0,0,27.42,5.73,27.94,8.79.52,3.06-10.81,12.87-10.81,12.87,0,0,13.2,1.19,13.85,2.92.66,1.73-3.21,8.55-6.56,9.64-4.14,1.34-7.92,2.19-12.51,2.19-.66,0-1.31-.02-1.94-.05.23-.29.45-.6.65-.89,1.13-1.65,1.97-3.42,2.43-5.11v-.02s0-.02,0-.02c.23-.93.36-1.85.36-2.74v-.04s0-.04,0-.04c-.03-1.02-.36-1.88-.96-2.47-1.12-.98-2.17-.86-2.92-.53l-2.6,1.28c-.19.09-.41.17-.68.25-.5.15-1.55.33-3.73.33-2.06,0-4.52-.15-6.9-.3,0,0-1.46-.08-1.74-.08-2.84,0-4.73.9-5.87,1.73l-.62-.33c-5.8-3.08-12.55-4.33-16.76-5.1-.33-.06-.64-.12-.93-.17-4.65-.91-7.2-3.68-7.41-3.9-.39-.43-.91-.98-1.58-1.37,0,0-1.21-.76-3.01-.2-1.17.41-1.67,1.32-1.67,1.32-1,1.67-.05,4.12,1.22,6.88,1.44,3.14,5.94,10.97,16.72,15.97,3.53,1.64,8.17,2.81,13.8,3.47,4.24.5,7.81.56,9.24.56,1.37.67,5.6,2.62,11.88,4.58,6.9,2.15,17.67,4.72,30.02,4.78,0,0,4.38.06,6.75-.1.24.99-1.47,4.51-3.53,8.65-2.44,4.9-5.56,10.69-5.56,10.69,0,0,5.65-4.99,10.91-8.69,5.3-3.73,11.23-6.72,12.64-4.99,2.65,3.26-.18,16.71-.18,16.71,0,0,10.7-9.47,13.19-8.19,1.14.59,1.25,7.66,1.25,15.12,0,8.83-.22,18.22-.22,18.22,0,0,14.74-29.83,17.81-28.98,3.07.85,6.42,14.45,6.42,14.45,0,0,5.6-16.57,9.02-16.17,1.37-.17,4.31,5.21,6.92,10.7,2.86,6.02,5.32,11.91,5.32,11.91,0,0,.06-6.15.49-12.44.39-5.68,1.11-11.23,2.36-11.53,2.63-.65,10.26,9.58,10.26,9.58,0,0-2.7-14.25-.58-15.46,2.11-1.21,27.51,20.75,27.51,20.75,0,0-16.67-30.88-14.64-33.24,2.03-2.36,19.83,2.45,19.83,2.45,0,0-2.65-3.13-4.92-6.67-2.37-3.7-4.35-7.83-3.42-8.83.84-.9,10.12.04,19.71,1.9,11.06,2.14,18.25,3.67,18.25,3.67,0,0-6.51-3.52-16.11-9.3-8.31-5-15.63-10.63-15.32-11.55.67-1.97,20.53-3.86,20.53-3.86,0,0-3.33-1.96-6.91-4.15-3.89-2.38-8.04-5.34-8.04-6.42,0-.95,4.98-3.29,11.55-5.31,7.87-2.42,15.15-4.04,15.15-4.04,0,0-27.07-2.17-28.76-6.03-1.15-2.64.97-6.07,2.52-8.29,1.55-2.22,3.78-4.24,3.78-4.24,7.4-6.83,16.81-13.12,19.82-14.97.21-.13.42-.26.62-.39,0,0,6.94-5.13,7.66-5.73.62-.52,2.21-2.19,2.57-4.31,0,0,.12-.58.08-1.52"/><path class="cls-3" d="M161.81,10.13c-2.53,7.32-9.5,23.52-13.14,22.95-2.96-.28-5.3-8.04-5.81-11.06-.61,2.81-2.13,9.41-6.58,10.06-4.44.65-10.49-10.01-13.03-17.85-.38,14-2.74,20.19-4.61,20.23-3.74.08-6.64-3.6-9.58-6.36,1.46,2.36,3.54,9.5.81,11.71-2.72,2.21-20.99-10.78-24.98-14.77,4.5,6.64,12.55,22.3,10.18,26.23-2.37,3.93-10.65,2.23-12.1,1.52.95.78,6.68,7.4,1.76,8.46-6.61,1.43-24.67-2.79-25.64-3.01,4.32,1.56,23.29,12.79,22.1,17.1-1.04,3.76-8.74,2.47-11.78,2.43,2.71,1.27,9.16,3.86,8.38,7.51-.78,3.65-18.92,7.75-24.52,8.93,6.35,1.41,22.41,3.91,22.64,8.8.24,4.9-9.84,11.67-9.84,11.67,0,0,8.94.41,10.87,1.45,2.82,1.52.65,7.23-1.84,10.2,3.41-1.58,6.74-3.62,10.21-6.19-2.88-7.08-4.46-14.83-4.46-22.94,0-33.71,27.33-61.04,61.03-61.04,12.36,0,23.85,3.67,33.47,9.98,4.25-1.58,8.37-2.73,12.36-3.51-.26-1.61-.05-3.33.93-5.48-3.5,2.89-12.49,5.46-15.08,3-2.6-2.45,1.76-12.7,3.99-16.94-3.68,4.38-10.16,12.2-14.08,10.65-3.93-1.54-1.27-20.11-1.66-23.73h0ZM208.88,83.28c-2.02,1.92-4.19,3.98-6.45,6.11.32,2.55.49,5.15.49,7.79,0,33.71-27.32,61.04-61.04,61.04-13.34,0-25.69-4.29-35.74-11.56-4.6.9-9.17,1.42-13.78,1.66-.74,4.17-3.78,8.46-5.63,12.41,11.13-10.29,17.29-9.92,19.45-8.73,2.16,1.18,1.61,10.99.97,13.89,1.74-2.29,9.84-7.33,12.24-6.23,2.39,1.09,1.31,23.17,1.32,27.7,2.68-5.85,11.53-23.85,15.34-23.85s6.32,6.8,6.91,9.9c.82-3.09,5.13-11.18,8.98-11.61,3.84-.43,8,11.45,10.55,17.35.19-5.02-.19-16.79,2.9-18.01,3.09-1.21,6.66,2.85,8.74,5.38-.56-3.48-1.09-10.34,1.06-11.75,2.14-1.4,17.29,10.9,22.82,16.39-1.36-3.43-13.35-21.75-11.19-26.74,1.97-4.54,14.24-1.05,16.59-.35-3.21-2.52-6.72-10.99-5.37-13.73s21.68,1.26,30.2,3.66c-6.85-2.68-25.56-14.08-24.22-17.48s13.34-4.65,16.99-4.65c-1.08-.53-8.74-4.75-11.37-7.82-2.63-3.08,11.2-8.81,19.11-9.88-7.08-.57-20.41-1.67-20.55-6.82-.04-1.64.22-2.97.68-4.08h0Z"/><path class="cls-4" d="M237.34,42.26c-.57,0-1.14.02-1.72.08-4.65.46-13.98,3.82-13.98,3.82-17.03-4.42-37.24-4.92-62.04,10.17-4.63,2.82-8.86,5.73-12.77,8.71s-7.51,6-10.86,9.03c-1.45,1.31-3.31,2.99-4.9,4.6-8.05,2.68-11.62.17-22.68,1.63-8.75,1.15-12.15,4.14-14.08,6.48-.25.68-.22,1.27.23,1.63,1.04.84,2.66.42,5.73.19,3.06-.22,7.7-.15,10.76,1.76,1.97,1.23,2.87,4.19,3.19,5.83-2.29,2.43-4.54,4.79-6.81,7.03-13.97,13.83-23.37,22.07-33.9,26.18-22.83,8.94-35.69-1.56-40.84-4.65h0c-6.25-4.01-14.54-5.33-18.99-6.17-4.45-.83-6.88-2.98-7.83-3.79-.95-.81-1.68-2.17-2.76-1.86-.28.08-.52.16-.69.33.17-.16.42-.25.69-.33.17,1.93,6.64,18.04,27.22,20.96,5.88.84,7.75.57,8.85.49-3.46-3.04-6.31-7.28-6.55-7.53.79.69,1.57,1.34,2.36,1.96,6.14,6.55,13.12,9.26,18.98,10.24.38.12,6.17.37,6.17.37,6.75-.15,15.8-2.13,24.21-4.57,24.68-7.16,48.49-28.55,48.49-28.55,0,0-1.33,5.77-1.84,7.81-.34,1.61-1.55,7.01-3.83,12.67,0,0-.68,1.71-1.67,3.79-1.47,3.09-3.53,6.97-3.53,8.6,0,.08.01.15.02.21,0,0,.01.18.09.4,1.85-.98,4.37-2.69,7.24-5.11,4.5-3.74,10.19-9.44,16.78-17.57,14.81-18.27,17.16-30.78,27.58-40.51,4.4-4.12,15.99-10.49,21.92-12.56.07-.04.12-.06.14-.07h0c10.02-5.73,19.83-10.15,21.43-10.79,5.86-2.36,26.49-9.21,28.66-5.81h0c-.8-3.43-4.5-5.06-8.49-5.1h0ZM217.08,48.73s.06.03.07.06c.11.25-.92.83-4.15,2.15-2.36.97-4.52,1.56-8.02,2.43-1.61.49-3.89,1.22-3.89,1.22,0-.01,0-.03-.02-.05-3.95,1.34-10.62,3.99-12.75,7.13.09-.17,1.44-2.95,2.55-4.51.92-1.41,2.98-4.09,6.04-5.42,4.27-1.86,7.05-1.57,9.02-1.57s6.57-.14,8.44-.59c1.64-.4,2.46-.88,2.71-.83h0ZM191.36,96.22c-3.03,2.73-6.08,5.39-9.05,7.86-2.33,1.94-4.96,4.04-7.9,6.24-.91,11.5-3.24,16.96-3.22,18.02.02.59.19,1.17.64,1.44,2.72-1.97,7.88-7.1,11.8-14.53,3.29-6.25,5.98-13.63,7.73-19.04ZM54.6,120.81c-.89.12-1.28,1.03-3.36,1.65-2.42.72-7.58.35-12.25.06-3.4-.21-5.2,1.07-5.93,1.78,2.13,1.21,8.98,5.19,14.83,6.32h0c-.19-.27,9.27-6.68,6.7-9.81,0,0,0,0,0,0Z"/><path class="cls-1" d="M243.62,48.66c-1.69,0-4.79.78-9.72,2.45-.03.01-.05.02-.08.03-.67.23-1.37.47-2.11.73-23.2,8.15-45.63,33.65-74.66,55.67l.21-.34c8.62-12.97,11.59-22.47,20.29-30.6,4.49-4.28,11.37-8.75,18.16-12.63,0,0-.06.03-.13.07-5.93,2.07-17.52,8.44-21.93,12.56-10.41,9.73-12.76,22.24-27.57,40.51-6.59,8.13-12.29,13.83-16.78,17.57-2.87,2.42-5.39,4.13-7.25,5.11.02.04.25.82.91.99,1.07.27,5.1-1.76,10.24-6.1.03,0,9.9-4.69,14.62-7.27,5.55-3.02,14.7-8.73,16.7-10.05,0-.01,0-.01,0-.01,3.57-2.37,9.88-7,9.88-7.02,2.93-2.2,5.57-4.3,7.9-6.24,2.97-2.47,6.02-5.14,9.05-7.86-1.75,5.4-4.44,12.79-7.73,19.04-3.92,7.43-9.08,12.56-11.8,14.53.87.55,2.17-.27,2.31-.35,2.24-1.22,8.55-6.58,12.78-15.16,6.04-12.24,8.57-21.66,8.62-21.83.49-.45,19.97-18.84,20.24-19.09,7.29-6.74,16.78-13.16,20.19-15.25,3.55-2.19,5.71-3.85,6.98-4.96,1.28-1.11,1.66-1.67,1.66-1.67h0c.19-.36.71-1.32.61-1.97-.09-.56-.59-.85-1.6-.85ZM217.07,48.73c-.24-.05-1.06.44-2.7.83-1.87.45-6.48.59-8.44.59-1.97,0-4.75-.29-9.02,1.57-3.06,1.34-5.11,4.01-6.04,5.42.3-.41.57-.74.8-.91,0,0,3.11-3.59,9.47-3.12-.22.32-.39.78-.19,1.22,0,0,0,.01,0,.02.03.06.06.12.1.18l.03.04s2.28-.73,3.89-1.22c3.5-.87,5.67-1.46,8.02-2.43,3.23-1.32,4.26-1.9,4.15-2.15,0-.03-.04-.05-.08-.06ZM135.97,74.07c-2.28.73-4.04,1.17-5.7,1.46-3.77.74-6.5.55-14.32,1.58-12.28,1.62-18.02,5.47-19.64,6.95-.49.45-.86.84-1.37,1.55-.35.49-.6,1.07-.64,1.17,1.93-2.35,5.33-5.34,14.08-6.49,11.06-1.45,14.63,1.06,22.68-1.63,1.59-1.61,3.45-3.29,4.9-4.59ZM132.82,106.3s-23.81,21.39-48.49,28.55c-8.41,2.44-17.46,4.42-24.21,4.57,1.21.02,16.88.63,34.1-5.82,14.08-5.14,27.92-13.54,36.77-19.49.51-2.05,1.84-7.81,1.84-7.81ZM3.1,112.93c-.21.06-.39.12-.55.22h0c-.05.03-.1.07-.14.11-.51.46-.43,1.57,1.17,5.07,2.15,4.7,7.09,10.94,15.68,14.93,7.85,3.65,19.81,3.83,22.23,3.83h.42s20.26,10.48,46.01,9.27c.06,0,15.33.34,34.06-6.98-.01-.06-.02-.14-.02-.21,0-1.63,2.06-5.51,3.52-8.6h.01c.99-2.08,1.67-3.79,1.67-3.79-8.07,4.28-20.96,9.76-32.62,12.5-22.97,5.38-37.68.71-40.2-.11l-.33-.11h-.03s0,0,0,0c-.01,0-.02,0-.03,0-5.86-.97-12.84-3.68-18.98-10.23-.79-.62-1.57-1.27-2.36-1.96.24.25,3.09,4.49,6.55,7.53-1.1.08-2.97.35-8.85-.49-20.57-2.93-27.05-19.03-27.22-20.96h0ZM54.83,120.79c-.1,0-.18.02-.22.02,2.56,3.13-6.9,9.54-6.7,9.8h0c.32.07,1.08.2,1.8.27.72.07,1.56.03,1.75.02.01,0,1.12-1.26,1.78-2.24,1.1-1.61,1.78-3.18,2.14-4.47.19-.76.29-1.5.29-2.23-.03-1.02-.53-1.17-.84-1.17h0Z"/></svg>