<?xml version="1.0" encoding="UTF-8"?><svg id="uuid-a0ffc4a5-33ce-43f2-b2b4-ac8fd40203b4" xmlns="http://www.w3.org/2000/svg" viewBox="0 0 57.1 44.35">
<title>New York Giants logo - Brandlogos.net</title><path d="M57.1,34.85V.35h-9.6v21.1c-.1.7-.5,1.4-1.2,1.7-.4.2-.8.3-1.2.3-1.3,0-2.4-1-2.4-2.3V.25h-13.2v7.8h2.4c.7,0,1.2.5,1.2,1.2v15.2c.2,2.5,1.7,4.8,3.6,5.9,1.9,1.5,6.6,2.2,9.1,1.3,0,0,1.2-.4,1.8-.8v2.2c0,.5,0,.8-.2,1.1-.3.7-1,1-2.1,1.1H4.4v9.1h44.2c1.3-.1,2.6-.2,3.7-.5,1.5-.4,4.8-2,4.8-7v-2h0Z" style="fill:#c9243f;"/><path d="M37.3,29.45l.2.1c1.6,1.2,5.7,1.8,7.8,1.1.4-.1,1.1-.4,1.5-.6l2.1-1.4v4.4c0,.5,0,1-.2,1.5v.2c-.4.8-1.2,1.8-3.3,1.8H5.9v6.4h42.9c1.2-.1,2.4-.2,3.3-.5,1.4-.4,3.9-1.8,3.9-5.7V1.65h-6.9v19.9c-.1,1.1-.8,2.1-1.8,2.7-.6.3-1.2.5-1.9.5-1,0-2-.4-2.7-1.1-.7-.7-1-1.5-1-2.4V1.65h-10.6v5.2h1.1c1.4,0,2.5,1.1,2.5,2.5v15.2c-.2,2.1,1,4,2.6,4.9h0Z" style="fill:#003c7f;"/><path d="M29,24.05c-.7,0-1.2-.5-1.2-1.2V6.45c0-.2,0-.5-.1-.9-.1-.6-.4-1.4-.9-2.2-1.1-1.6-2.6-2.5-4.5-3-3-.8-6.3-.2-8.6,1.5V.45H0v7.8h3.2c.7,0,1.2.5,1.2,1.2v22.2h9.3V10.65c0-1.2,1.1-2.3,2.4-2.3s2.3,1,2.4,2.2v16.9c0,.5.1,1,.3,1.4.6,1.5,2,2.6,3.8,2.6h8.8v-7.5l-2.4.1Z" style="fill:#c9243f;"/><path d="M26.5,22.95V6.55c0-.1-.1-.6-.1-.6-.1-.6-.4-1.2-.7-1.7-.9-1.3-2-2.1-3.7-2.5-2.7-.7-5.5-.2-7.4,1.3l-2.1,1.6V1.85H1.4v5.2h1.9c1.4,0,2.5,1.1,2.5,2.5v20.9h6.7V10.75c0-2,1.6-3.6,3.7-3.6s3.6,1.6,3.7,3.5v16.9c0,.3.1.6.2.9.4,1.1,1.4,1.8,2.5,1.8h7.4v-4.9h-.9c-1.5.1-2.6-1.1-2.6-2.4h0Z" style="fill:#003c7f;"/></svg>