<?xml version="1.0" encoding="UTF-8"?><svg id="uuid-544e56c6-7eb5-46fb-8459-c0c97d3d887d" xmlns="http://www.w3.org/2000/svg" viewBox="0 0 478.64 230.52">
<title>New England Patriots logo - Brandlogos.net</title><path d="M472.51,27.95c-60.23,14.2-62.86-20.62-153.44-27.01C197.15-7.66,94.69,45.38,12.81,52.18c-17.79,1.48-15.48,16.26-2.7,18.77,30.86,7.19,62.7,6.28,91.85,2.38-.98,2.35-1.96,5.96,1.29,8.73,11.54,9.8,57.95,10.64,78.32,9.46,6.92-.39,21.68-1.79,21.68-1.79-4.21.4-10.79,13.21,3.12,16.82,85.98,24.04,126.44,62.85,172.88,123.98,18.87-2.41,36.64-25.08,29.07-42.39l3.77-9.29,13.9-6.43-3.98-31,21.19-9.96s33-88.56,34.94-95.01-2.07-9.33-5.63-8.49" style="fill:#fffffe;"/><path d="M233.93,40.14c-59.62,3.52-131.14,37.16-222.22,22.16C92.43,51.42,153.97,24.76,229.03,14.15l4.9,25.99h0ZM240.35,74.92c-32.97,3.88-71.23,13.09-126.42,2.7,47.57-1.29,83.18-17.19,122.37-25l4.05,22.3h0Z" style="fill:#c60c30;"/><path d="M243.87,74.55c24.17-2.59,45.48-1.77,68.71,12.37-48.46-5.25-72.18,8.26-102.38,11.27,106.7,27.96,145.76,87.69,172.22,120.79,18.49-7.85,19.49-23.89,14.78-29.62l4.76-10.19.22-6.55,12.75-5.95-4.03-31.71,23.87-9.76,31.63-86.45c-53.59,11.1-70.95-23.5-147.2-28.22-31.06-1.93-59.03-.5-85.29,2.94l4.28,26.46c17.55-.6,34.07,1.62,49.74,8.74-17.23-1.07-32.74.36-47.87,3.16l3.8,22.7" style="fill:#024;"/><path d="M326.19,147.5c28.84,20.16,43.65,42.51,58.68,62.06,7.64-3.17,10.04-12.03,7.53-15.16l-7.28-8.95,8.28.49,3.8-6.59-10.29-.61-11.59,2.09,11.76-8.04,8.95.52.33-5.09-9.14-4.37,3.14-3.43,16.91,1.05-4.86-37.61c-6.69-.81-12.31,2.68-14.74,12.34l-29.98-1.76c4.22-9.55,10.79-13.85,23.26-12.26-7-9.78-41.09-10.69-45.91,4.66l26.47,21.66,3.42,19.8-10.88-15.76c-9.78-8.45-20.05-14.38-27.87-5.04" style="fill:#b0b7bc;"/><path d="M414.9,50.51l2.13,18.89,21.3,7.98-19.98,5,1.97,25.47-17.27-21.52-25.83,6.07,15.96-18.56-13.16-17.41,22.05,7.56,12.84-13.47" style="fill:#fffffe;"/></svg>