<?xml version="1.0" encoding="UTF-8"?><svg id="uuid-7debbc72-040d-47bf-99fe-30bd197c939f" xmlns="http://www.w3.org/2000/svg" viewBox="0 0 375.36 458.33">
<title>New Orleans Saints logo - Brandlogos.net</title><path d="M336.16,181.53c-33.7-19.59-66.88-15.06-92.03-3.85-1.11-8.28-3.27-17.36-6.87-27.99-5.33-15.81-11.18-30.92-16.34-44.26-6.78-17.51-11.93-32.52-14.76-42.56L187.82,0l-19.04,62.92c-2.91,10-7.93,25.08-14.67,42.61-5.12,13.34-10.93,28.47-16.23,44.28-3.56,10.65-5.72,19.74-6.8,28.03-25.19-11.16-58.38-15.63-92.03,4.04C11.53,197.97-3.2,225.95.59,254.89c3.46,26.33,21.46,47.02,46.95,54.03l18.99,5.22,4.65-19.14c.67-2.6,7.52-26.56,29.09-26.13,14.96.31,27.39,13.54,33.6,22.1-2.01,6.05-3.08,13.3-2.05,21.11l-8.45-11.27-15.28,11.4c-13.76,10.25-33.74,35.59-21.39,65.5,5.38,13.04,16.96,21.93,32.59,25.04,9.56,1.9,20.42,1.46,30.49-.75,3.96,12.72,11.18,28.11,24.31,41.85l13.85,14.48,13.8-14.51c13.11-13.77,20.28-29.19,24.23-41.91,10.07,2.18,20.92,2.6,30.48.67,15.62-3.14,27.17-12.06,32.54-25.11,12.28-29.94-7.77-55.24-21.55-65.46l-15.31-11.35-8.42,11.29c1.01-7.81-.08-15.06-2.1-21.12,6.2-8.56,18.58-21.83,33.55-22.17,21.58-.48,28.47,23.46,29.19,26.2l4.68,19.13c-.03-.14,18.95-5.4,18.95-5.4,25.49-7.06,43.43-27.8,46.83-54.15,3.72-28.93-11.08-56.88-38.63-72.9"/><path d="M181.49,65.61c-2.32,10.95-8.31,26.53-15.25,44.59-5.08,13.22-10.84,28.2-16.04,43.74-4.99,14.93-7.03,26.06-7.03,36.43,0,3.32.38,6.56.77,9.83-19.21-13.19-57.05-31.24-98.33-7.1-22.93,13.41-35.24,36.43-32.14,60.09,2.76,21.04,17.13,37.6,37.51,43.21l6.05,1.66,1.5-6.11c.38-1.5,9.46-36.72,41.99-36.07,26.18.53,43.3,26,47.92,33.83-2.2,4.07-4.03,9.68-4.03,16.12,0,6.9,2.35,14.76,8.34,22.63-2.39,3.24-6.3,7.21-10.87,7.59-6.51.54-13.11-6.33-17.49-12.19l-3.66-4.88-4.89,3.65c-10.01,7.46-26.48,27.54-17.16,50.12,3.73,9.03,11.73,14.99,23.12,17.26,11.78,2.34,26.65.21,37.21-4.6,2.05,11.92,7.84,32.1,24.45,49.46l4.43,4.64,4.42-4.65c16.56-17.41,22.31-37.6,24.33-49.54,10.58,4.79,25.47,6.89,37.25,4.51,11.37-2.29,19.35-8.28,23.05-17.31,9.26-22.6-7.24-42.64-17.27-50.08l-4.9-3.63-3.65,4.9c-4.37,5.86-10.95,12.75-17.48,12.22-4.56-.37-8.49-4.33-10.89-7.56,5.95-7.86,8.28-15.69,8.28-22.57,0-6.48-1.84-12.11-4.06-16.19,4.61-7.83,21.67-33.36,47.84-33.95,32.53-.73,41.7,34.48,42.07,35.98l1.52,6.08,6.05-1.66c20.36-5.65,34.7-22.23,37.41-43.29,3.05-23.67-9.32-46.66-32.27-60.02-41.36-24.06-79.19-5.89-98.35,7.35.36-3.17.73-6.32.73-9.56,0-10.49-2.02-21.8-7.06-36.71-5.24-15.51-11.03-30.47-16.13-43.67-6.98-18.04-13.01-33.63-15.35-44.57l-6.01-28.07-5.94,28.08" style="fill:#fffffe;"/><path d="M187.93,430.63c23.42-24.62,23.7-55.66,23.7-55.66,10.36,10.34,50.64,17.25,59.67-4.77,9.9-24.17-15.25-42.84-15.25-42.84-24.38,32.7-40.74.7-40.74.7,18.56-20.07,4.64-38.17,4.64-38.17,1.21-3.63,21.8-39.6,54.77-40.33,37.99-.86,48.15,40.62,48.15,40.62,39.84-11.05,47.54-66.62,3.7-92.12-55.64-32.37-104.11,16.94-104.11,16.94,4.51-18.45,5.8-32.25-3.3-59.19-12.33-36.54-27.45-69.19-31.67-88.92-4.19,19.73-19.24,52.44-31.48,89-9.02,26.97-7.7,40.77-3.16,59.2,0,0-48.58-49.19-104.14-16.7-43.79,25.61-35.96,81.15,3.91,92.11,0,0,10.05-41.5,48.05-40.73,32.97.65,53.64,36.57,54.86,40.19,0,0-13.89,18.14,4.73,38.16,0,0-16.29,32.05-40.73-.59,0,0-25.13,18.73-15.16,42.87,9.09,21.99,49.34,14.98,59.67,4.62,0,0,.36,31.05,23.82,55.61"/><path d="M287.59,196.32c-45.28.05-82.4,51.49-82.4,51.49,1.61-8.42,20.97-46.29,3.45-91.56-17.52-45.26-21.09-63.5-21.09-63.5l-.08.52v-.51s-3.54,18.24-20.95,63.55c-17.41,45.31,2.04,83.14,3.66,91.54,0,0-37.24-51.35-82.52-51.29-45.27.05-82.96,51.6-41.13,82.04,0,0,12.24-38.04,54.44-38.11,31.03-.07,62.12,33.24,63.44,49.75,0,0-14.21,20.07,5.55,36.87,0,0-21.34,44.91-50.93,12.56,0,0-22.75,28.48,7,35.38,23.6,5.46,46.85-18.49,46.85-18.49,0,0-2.54,37.84,14.95,58.53v-.19l.09.18c17.44-20.72,14.81-58.57,14.81-58.57,0,0,23.31,23.91,46.91,18.38,29.73-6.96,6.91-35.39,6.91-35.39-29.5,32.42-50.94-12.44-50.94-12.44,19.7-16.85,5.44-36.88,5.44-36.88,1.28-16.49,32.28-49.88,63.32-49.89,42.2,0,54.53,37.99,54.53,37.99,41.76-30.54,3.95-82.02-41.32-81.96" style="fill:#d3bc8d;"/></svg>