<svg id="Layer_1" data-name="Layer 1" xmlns="http://www.w3.org/2000/svg" viewBox="0 0 480 286.34"><title>New York Jets logo - Brandlogos.net</title><path d="M256,399.17c-33.7,0-89.88-8.85-137.34-33.81-46.45-24.42-80.21-52.75-95.08-79.79a61.45,61.45,0,0,1,0-59.14c14.87-27,48.63-55.37,95.08-79.79,47.46-25,103.64-33.81,137.34-33.81s89.88,8.85,137.34,33.81c46.45,24.42,80.21,52.75,95.08,79.79a61.43,61.43,0,0,1,0,59.14c-14.87,27-48.63,55.37-95.08,79.79-47.45,25-103.64,33.81-137.34,33.81" transform="translate(-16 -112.83)" style="fill:#fff"/><path d="M482.5,256a48,48,0,0,0-6-23.51c-13.38-24.34-45.67-51.36-89.62-74.47C341.6,134.22,288.24,125.8,256,125.8S170.4,134.22,125.14,158c-44,23.11-76.23,50.13-89.63,74.47a48.92,48.92,0,0,0,0,47C48.9,303.84,81.18,330.87,125.14,354c45.26,23.8,98.62,32.22,130.86,32.22s85.6-8.42,130.86-32.22c44-23.11,76.23-50.13,89.63-74.47A48.06,48.06,0,0,0,482.5,256Z" transform="translate(-16 -112.83)" style="fill:#115740"/><path d="M363.37,232.33,348.56,258a5.14,5.14,0,0,0,2.56,7.34l27,10.65H320.21l-8.89,15.4H398.2a5.13,5.13,0,0,0,4.44-2.56l14.8-25.64a5.14,5.14,0,0,0-2.56-7.34L381.4,242.6h47.91l7.41-12.83h-68.9a5.13,5.13,0,0,0-4.45,2.56Z" transform="translate(-16 -112.83)" style="fill:#fff"/><path d="M347.17,242.6l7.41-12.83H272.45L265,242.6h20.53l-28.16,48.77h41.07l28.16-48.77Z" transform="translate(-16 -112.83)" style="fill:#fff"/><path d="M254.76,242.6l7.41-12.83H195.44l-35.57,61.6h84.7L253.47,276H209.83l5.93-10.26h23.09l7.41-12.84h-23.1l5.93-10.26Z" transform="translate(-16 -112.83)" style="fill:#fff"/><path d="M427.63,214.16s-6.09-1.23-24-2.47L341,205.53c-34.45-3-64.7-11-92.74-30.64h-.94L271,213.08H151.17L116.35,273.4A5.14,5.14,0,0,1,111.9,276H73.8l-8.89,15.4h76.2a10.27,10.27,0,0,0,8.89-5.14l38.53-66.73h254.1a45.08,45.08,0,0,0-15-5.35Z" transform="translate(-16 -112.83)" style="fill:#fff"/></svg>