<?xml version="1.0" encoding="UTF-8"?><svg id="uuid-8dbe28fa-40d1-41cc-8a9f-e9257b386960" xmlns="http://www.w3.org/2000/svg" viewBox="0 0 247.99 170.73">
<title>Philadelphia Eagles logo - Brandlogos.net</title><path d="M144.47,12.63l-12.09,12.67c19.8-8.23,62.98-22.36,62.98-22.36l-13.84,13.53C219.29,5.3,247.99,0,247.99,0c0,0-8.32,19.35-20.74,38.73,2.4-.26,18.09-2.09,18.09-2.09,0,0-14.13,23.4-30.44,40.26l9.13,2.27s-14.22,20.5-33,37.23c-27,24.06-40.89,20.36-40.89,20.36-20.04,14.51-36.1,7.16-36.1,7.16,0,0,6.94-17.51-.23-19.37-6.46-1.68-16.29,3.37-17.52,5.4-1.28,4.42-6.65,15.64-12.2,22.43-10.64,13.02-22.45,18.34-22.45,18.34,0,0-9.3-7.93-9.35-21.44,0,0-6.39,6.76-16.78,8.97-7.28,1.55-17.2.29-27.38-8.2C1.31,144.37,0,125.21,0,125.21c0,0,6.42-12.26,18.8-23.01-2.74-2.35-4.42-5.31-4.95-7.13,32.9-14.36,32.93-28.07,59.09-44.74,25.77-16.42,41.97-23.97,71.53-37.7" style="fill:#fff;"/><path d="M128.44,24.26l-10.34,10.84c20.41-9.04,63.53-23.71,63.53-23.71l-12.51,12.24c44.21-13.69,72.24-18.32,72.24-18.32,0,0-9.16,20.42-21.36,37.76,5.9-.56,18.22-2,18.22-2,0,0-12.31,20.63-30.51,38.11,2.02.3,10.28,2.18,10.28,2.18,0,0-10.97,16.29-30.05,32.99-24.35,21.32-35.15,18.8-35.15,18.8,0,0,.23-.83.21-2.13-.02-.71-.17-1.36-.18-1.41-18.75,17.64-34.36,11.69-34.36,11.69,0,0,6.94-16.79-3.7-20.18-8.24-2.62-20.86,4.12-21.86,7.73-1.1,3.93-6.33,14.83-11.52,21.22-9,11.08-18.96,16.14-18.96,16.14,0,0-9.06-6.97-5.92-27.36.69-4.44-.19-6.18-.68-6.93-1.49-2.28-13.08.21-15.9,6.67-2,4.56,9.52,8.42,9.52,8.42,0,0-5.31,5.86-14.6,7.76-5.84,1.19-14.89.81-24.38-7.41-5.62-4.86-6.78-21.33-6.78-21.33,0,0,6.94-12.72,20.46-23.7-2.67-1.75-4.69-4.71-5.21-5.87,27.24-11.73,30.98-28.33,61.73-46.87,14.34-8.64,29.43-17.15,47.78-25.34" style="fill:#004851;"/><path d="M231.44,12.56s-24.56,5.17-36.31,7.68c-22.07,4.71-39.58,10.71-39.58,10.71l10.57-10.24s-33.88,10.69-53.87,20.51c-2.21,1.09-7.29,3.26-7.29,3.26l6.06-7.63s-16.07,6.86-37.07,20.83c-19.05,12.68-27.83,29.73-50.21,40,0,0,1.44,2.41,6.09,4.19-4.38,3.14-14.95,11.59-22.96,24.88,0,0,1.52,14.77,5.61,18.26,16.67,14.26,31.08,2.75,31.08,2.75,0,0-9.98-4.42-7.13-10.72,3.54-7.82,14.74-9.17,17.69-9.03,0,0,7.41-.36,5.45,11.34-2.65,15.88,3.53,22.93,3.53,22.93,0,0,19.37-11.09,26.99-34.68,2.94-9.08,41.25-21.69,32.22,11.4,7.43,1.72,25.35-4.86,31.21-15.58,1.23,1.54,2.24,3.77,2.42,6.38,15.63-1.23,43.6-31.03,52.96-46.21-2.49-1.03-6.97-1.84-8.06-2.07,19.37-18.48,27.95-35.74,27.95-35.74,0,0-7.98.43-15.38.96,12.25-17.22,18.02-34.17,18.02-34.17h0ZM70.6,89.77c1.51.17,2.81.87,3.54,2.09,1.44,2.4.1,5.85-3,7.69-3.1,1.85-6.78,1.4-8.22-1-.18-.3-.32-.63-.41-.96.46-.26.9-.54,1.34-.85.06.29.16.57.32.83,1.02,1.7,3.68,1.98,5.95.62,2.27-1.36,3.28-3.83,2.26-5.53-.58-.96-1.68-1.45-2.94-1.46.42-.52.81-1.02,1.16-1.45h0Z"/><path d="M153.11,28.7s-20.59,4.93-48.47,18.17c-7.86,3.73-12.01,5.95-12.01,5.95,1.21-1.39,6.8-6.3,8.15-8.05-20.69,10.15-28.24,16.86-40.54,29.89-10.97,11.63-10.47,13.66-27.12,22.66,0,0,12.26,5.03,24.68-3.06,2.15-1.4,4.18-3.36,6.1-5.41,4.39-5.09,2.94-10.32,8.77-14.08-.83,1.94-2.2,4.4-2.32,6.93,2.8-3.86,8.34-8.94,14.5-12.62,15.67-9.35,26.07-10.96,26.07-10.96-.4.14-.79.28-1.18.42-21.42,8.91-24.92,20.54-25.03,21.77-.23,2.62,7.74-3.26,14.26-4.05-6.86,2.42-12.75,8.26-15.6,14.99-1.21,2.85-1.58,6.1-4.96,8.64-.95.87-2.21,1.73-3.88,2.48-4.5,2.03-7.61,1.01-8.67.3-.63-.42-1.02-1.13-1.02-1.13,2.18.61,5.15.08,7.86-1.63,2-1.26,3.48-2.93,4.28-4.62h0c.44-.9,1.25-2.66.06-4.9-.61-1.14-1.88-1.76-3.31-1.98.09-.24.84-2.15,3.19-4.97-3.19,2.3-5.26,5.06-6.34,6.3,1.51.17,2.81.88,3.54,2.09,1.44,2.4.1,5.85-3,7.69-3.1,1.85-6.78,1.4-8.22-1-.18-.3-.32-.63-.41-.96-.17.09-.33.19-.49.28-.97.5-2.93,1.33-2.93,1.33.93.22,2.17.31,2.94.17.26,3.39,2.38,8.85,14.33,5.77-3.42,3.36-11.64,3.14-16.62.53.68.51,1.46,1.04,2.39,1.62,14.99,9.31,32.24.55,36.46-1.88,1.03-.66,2.07-1.26,3.12-1.77,0,0-4.37,3.85-7.33,9.83,5.25-6.72,20.51-17.48,40.97-14.99,0,0-10.7-5.2-27.58.31,0,0,23.28-13.8,52.75-7.93-19.12-6.42-36.34-3.37-46.5.05-5.96,2.3-9.51,4.2-9.51,4.2,0,0,1.49-1.09,4.29-2.75,6.9-5.08,16.38-10.57,25.75-14.44,6.51-2.68,19.47-6.14,24.75-6.45,0,0-13.56-2.3-25.93.82,0,0,19.59-7.64,38.59-8.06,6.36-.14,20.93.63,20.93.63-21-6.24-42.77-7.46-57.65-5.18-8.45,2.1-15.12,4.18-15.12,4.18,0,0,1.17-.59,3.4-1.54,5.36-3.19,27.36-15.01,68.26-21.38,0,0-5.23-.62-11.62-.62-6.54,0-19.39,2.21-19.39,2.21,9.31-4.25,26.86-8.37,48.56-10.47,0,0-33.16-3.93-73.3,8.65-.35.15-.53.23-.53.23,0,0,4.24-3.06,9.02-6.24,3.52-2.34,8.62-5.99,8.62-5.99h0ZM66.33,94.66c-.53.51-1.09,1.01-1.68,1.48.09.25.3.69.8,1.05.88.65,2.22.54,2.22.54-1.18-.89-1.4-2.11-1.34-3.07h0Z" style="fill:#fff;"/><path d="M214.1,24.4s-18.46,1.49-39.41,5.38c-21.79,4.04-35.87,9.73-38.68,10.92,40.14-12.58,73.29-8.65,73.29-8.65-21.7,2.09-39.25,6.21-48.56,10.47,0,0,12.86-2.21,19.39-2.21s11.62.62,11.62.62c-40.9,6.38-62.9,18.2-68.26,21.38,5.43-2.3,17.2-6.74,34.05-10.08,15.89-3.15,34.35-3.93,41.78-4.67,10.6-10.24,14.76-23.16,14.76-23.16h0ZM175.65,54.66c-8.17.07-16.74.53-24.4,1.7-5.29.81-10.98,2.07-16.03,3.31,14.88-2.28,36.65-1.05,57.65,5.18,0,0-14.56-.77-20.93-.63-19,.42-38.59,8.06-38.59,8.06,12.37-3.12,25.93-.82,25.93-.82-5.27.3-18.24,3.77-24.75,6.45-9.37,3.86-18.85,9.36-25.75,14.44,11.05-6.55,42.48-21.95,82.36-13.46,0,0,2.61-2,9.55-9.62,7.36-8.07,8.92-13.05,8.92-13.05,0,0-16-1.72-33.97-1.57h0ZM109.76,58.56c-.22.08-.75.27-.79.28-19.63,7.32-29.95,18.96-28.42,24.85.57,2.21,4.41-.07,4.41-.07,0,0-5.19,4.4-7.27,9.14-.01.26,0,1.21-.68,2.55.51.12,1.03.19,1.48.14,1.34-.15,2.92-1.09,2.92-1.09,0,0,.03,2.82-2.97,5.54,3.39-2.54,3.76-5.79,4.96-8.64,2.85-6.74,8.74-12.57,15.6-14.99-6.52.79-14.49,6.68-14.26,4.05.11-1.22,3.61-12.86,25.03-21.77h0ZM153.53,82.9c-16.11.17-30.55,4.53-39.52,8,10.16-3.42,27.38-6.47,46.5-.05-29.47-5.87-52.75,7.93-52.75,7.93,16.88-5.52,27.58-.32,27.58-.32-20.46-2.49-35.71,8.28-40.96,15-.41.82-.79,1.68-1.12,2.57,4.73-4.46,9.8-8.08,21.49-10.98,27.68-6.86,46.91,1.46,49.22,10.2,0,0,.09-.04.27-.14,1.12-.61,5.42-2.44,11.9-8.81,6.8-6.69,11.06-12.06,12.74-15.67-10.62-5.32-21.65-7.45-32.09-7.71-1.09-.03-2.17-.04-3.24-.02h0ZM51.31,103.42c-4.5,1.38-10.2.99-13.35.13-3.63,2.5-16.69,8.1-25,22.16.43,4.77.92,10.87,2.88,14.22,7.99,12.62,21.95,7.96,21.95,7.96,0,0-21.21-9.41,1.46-23.13,7.24-4.38,27.26-7.67,39.21-3.83,1.02.38,2.28,1.27,2.19,1.5-1.24,6.08-6.25,23.11-14.56,27.94-4.59-6.71,7.53-22.12-4.84-22.7,0,0,3.08,4.77,1.75,11.18-.58,2.81-2.5,10.32.93,18.1,0,0,18.8-11.25,24.38-37.2.72-2.56,1.21-4.72,2.32-6.68-24.16,9.52-39.31-9.63-39.31-9.63h0ZM45.62,107.29c1.29,1.06,2.64,1.8,6.16,2.14,0,0-6.32,1.84-7.72,2.25-1.73.52-5.48,1.04-3.7-1.62,0,0,2.25-1.21,5.26-2.77h0ZM121.2,109.07c-15.1.33-22.03,7.08-22.03,7.08,0,0,6.98-5.25,18.81-3.35,17.51,2.82,17.01,13.85,17.01,13.85,0,0,7.88-3.39,11.87-10.32,0,0-4.95-4.72-13.89-6.3-4.37-.77-8.29-1.04-11.78-.96h0Z" style="fill:#a2aaad;"/></svg>