<?xml version="1.0" encoding="UTF-8"?><svg id="uuid-96b6b2c8-1dac-46b4-b3ac-2224c25f4bf4" xmlns="http://www.w3.org/2000/svg" viewBox="0 0 464.21 270.18">
<title>San Francisco 49ers logo - Brandlogos.net</title><path d="M75.52,36.35C26.82,61.99,0,96.83,0,134.45c0,23.38,10.63,46.37,30.75,66.48,20.74,20.73,51.05,38.24,87.66,50.62,36.04,12.19,75.8,18.63,114.97,18.63,79.81,0,158.23-26.84,199.77-68.38,20.32-20.31,31.06-43.6,31.06-67.36s-10.58-46.6-30.61-66.63C392.4,26.62,313.81,0,233.39,0c-56.45,0-114,13.25-157.87,36.35"/><path d="M233.24,256.64c70.46,0,137.22-22.99,174.24-60,18.67-18.67,28.54-39.98,28.54-61.63s-9.87-42.96-28.54-61.63c-37.02-37.01-103.78-60-174.24-60-51.73,0-103.24,12.77-141.29,35.04-39.65,23.2-61.49,53.95-61.49,86.58,0,21.65,9.87,42.96,28.55,61.63,37.01,37,103.77,60,174.23,60" style="fill:#b3995d;"/><path d="M233.61,252.32c103.28,0,187-53.5,187-117.96S336.89,17.64,233.61,17.64,46.61,69.9,46.61,134.36s83.72,117.96,187,117.96" style="fill:#a00;"/><path d="M379.88,119.7h-.52v-4.26h-74.2c-1.59-8.34-6.39-16.09-13.24-22.13-6.75-7.76-16.55-13.59-27.72-15.81l-4.62-.96c-10.71-2.25-19.17-4.03-53.2-3.85,0,0-6.54-.22-12.9-1.07-1.61-.41-3.02-.9-4.23-1.42.47-2.83,5.65-6.73,11.49-7.49.6-.11,37.43-6.89,75.34,17.66l.93.6h24.91v-38.12h-4.26v-4.26h-34.19l-5.76,4.4c-9.85-2.46-58.05-13.01-99.69,5.21-17.5,7.23-28.35,20.87-27.58,34.73.39,6.99,3.74,13.08,9.52,17.8,4.25,5.31,10.94,9.45,19.65,11.96,12.32,3.55,22.76,5.01,32.88,5.59v17.38h4.26v4.26h13c5.38,0,6.77,2.98,7.1,4.09-16.59-1.08-41.82-5.8-60.39-22.99l-.7-.75h-.13c-1.02-.98-2.03-2-3.02-3.05l-1.11-1.2h-18.69v54.26h4.26v4.25h15.25c2.23.16,9.32-.63,14.21-14.92,7.93,2.77,27.47,8.65,51.54,9.3v33.76c-.84,11.34-25.81,14.88-34.51,15.23l-3.6.14v16.78h4.26v4.25h109.64v-16.06l-2.79-.74c-.5-.13-.98-.26-1.47-.4v-3.67l-3.42-.29c-6.17-.55-10.91-1.61-14.58-2.93-6.9-3.86-8.08-7-8.23-7.5v-18h32.13c3.39.51,6.3,2,8.77,3.93,4.63,5.7,6.74,12.21,6.77,12.32l.82,2.64h2.76s.09,0,.09,0c.38.97.58,1.58.59,1.61l.82,2.64h2.76s14.51,0,14.51,0v-65.29h-4.26v-4.26h-17.19l-.61,2.98c-4.5,21.7-29.6,21.38-51.91,18.13,4.38-1.19,8.77-2.63,13.15-4.37,11.95-4.74,20.91-11.2,26.5-18.76h48.16c3.36.11,6.21.95,8.61,2.52,5.05,7.4,4.54,18.31,4.54,18.43l-.21,3.95h4.48v.3s-.22,3.95-.22,3.95h3.95s15.24,0,15.24,0v-50.54h-3.75"/><path d="M303.06,133.07c3.51-4.24,3.67-13.88,3.67-13.88h68.88v43.05h-11.48s1.64-28.44-21.15-29.17h-39.91,0ZM221.83,169.83c15.5.33,28.65-2.96,28.65-2.96,3.95-.87,57.31,14.79,64.53-20.02h10.39v57.79h-10.76s-6.38-20.79-22.97-23.16h-36.29v22.07s.14,15.47,30.49,18.1v9.43h-102.15v-9.43s36.93-1.44,38.11-18.76v-33.06h0ZM253.69,112.97c-4.94-1.5-12.09-1.82-20.31-2.14-29.42-1.12-47.94,2.38-76.98-5.99-32.96-9.5-27.05-40.72,3.14-53.19,44.91-19.66,99.01-4.56,99.01-4.56l6.2-4.74h29.17v30.63h-20.06c-39.75-25.74-77.86-18.23-77.86-18.23-12.4,1.6-24.44,15.28-3.29,20.57,6.75.91,13.68,1.13,13.68,1.13,38.38-.2,43.7,2.09,57.07,4.74,34.77,6.89,54,50.85,3.46,70.92-52.17,20.72-107.04-1.61-107.04-1.61-4.56,17.14-11.66,16.05-11.66,16.05h-11.67v-46.76h13.3c31.19,33.72,84.61,27.95,84.61,27.95,0,0,15.86-.4,26.26-10.21,8.11-9.9,6.83-20.49-7.04-24.55h0ZM210.11,131.93h-13.85v-12.42c10.74,0,32.65.1,48.15,0,15.59,0,17.68,9.02,11.11,15.12-6.2,5.75-19.17,9.84-34.54,7.04,0,0-1.27-9.74-10.87-9.74h0Z" style="fill:#fffffe;"/></svg>