<?xml version="1.0" encoding="UTF-8"?><svg id="Layer_1" xmlns="http://www.w3.org/2000/svg" viewBox="0 0 480 212.26"><defs><style>.cls-1{fill:#024;}.cls-2{fill:#a5acaf;}.cls-3{fill:#fffffe;}.cls-4{fill:#69be28;}</style></defs><path class="cls-3" d="M402.28,174.05c-21.88-4.37-50.59-5.53-62.72-5.53l-288.65.06c-17.96,0-36.53,0-46.06-14.67-9.67-14.89-4.41-29.53,11.89-58.84C17.94,92.9,67.38,0,67.38,0c0,0,5.05,6.27,10.14,10.26,5.03,3.94,10.19,6.04,23.97,6.04,24.47,0,182.29-.35,183.9-.35,32.04,0,64.4,3.32,85.36,26.3,10.89,1.16,46.02,5.8,74.98,19.64,16.95,8.09,28.12,20.18,32.35,34.94,1.28,4.46,1.91,9.16,1.91,14.02,0,14.01-5.25,29.54-15.54,45.67-21.75,34.09-41.8,46.01-42.7,46.65-12.36,8.69-24.33,9.1-24.33,9.1,0,0,10.78-12.25,14.42-24.5,3.64-12.25-9.57-13.7-9.57-13.7"/><path class="cls-1" d="M442.17,69.36c33,15.77,38.79,45.91,15.31,82.71-21.05,32.98-42.31,46.97-42.31,46.97,0,0,20.48-26.77-11.27-33.12-23.92-4.77-54.55-5.68-64.34-5.68-11.27,0-111.95.23-124.51.23s-16.03-1.71-18.79-5.5c-2.75-3.78-3.23-8.94,1.92-16.69,5.17-7.74,13.02-19.86,13.02-19.86l-33.94-27.29c28.48-28.4,51.23-37.93,71.08-37.93s29.01,2.96,62.15,16.86c33.15,13.91,44.1-.88,44.1-.88-13.92,5.91-26.35.88-49.73-9.46-23.38-10.36-37.29-15.08-58.29-15.08s-38.77,5.91-61.01,22.26c-20.94,15.39-22.52,18.56-54.1,18.56H31.16L69.79,13.15s2.89,11.42,31.71,11.42c24.76,0,183.9-.35,183.9-.35,31.6,0,62.86,3.35,81.36,25.95,0,0,42.4,3.41,75.41,19.18h0ZM383.85,75.29c-15.01-3.59-2.18-12.28-2.18-12.28-21.6,4.36-29.64,21.97-31.5,26.9-.35.67-.7,1.35-1.07,2.08-11.95,24.03-22.72,22.75-43.13,22.75h-34.95c-28.31,0-41.5,14.02-55.07,37.91h15.99c14.61-21.75,25.64-27.61,54.55-29.24,66.05.04,118.71,18.98,146.53,33.45,39.58-66.42-19.16-77.41-49.17-81.57h0ZM260.91,152.38c7.39-11.16,22.41-14.95,46.62-13.55,59.76,3.46,94.12,15.09,120.82,25.03-32.92-19.26-91.58-33.14-132.35-33.01-19.93.06-37.33,3.54-47.55,21.54h12.46,0ZM325.05,86.49c-7.79,10.86-18.05,14.57-47.14,12.58-33.85-2.3-25.11-16.55-21.17-23.57h-.11c1.08-2,2.92-5.37,4.79-8.77-25.93-1.6-44.88,18.35-44.88,18.35,19.34,19.11,32.23,21.11,49.72,21.11h32.7c30.41,0,37.75-13.67,40.54-19.75-5.25.65-9.97.6-14.45.04h0Z"/><path class="cls-4" d="M310.29,83.26c-.62-.25-1.26-.51-1.9-.77-2.98,3.14-8.12,4.96-13.11,4.32-6.56-.84-10.34-5.6-8.48-10.62.27-.74.66-1.43,1.12-2.09-3.36-1.32-6.74-2.58-10.03-3.73-6.74,10.89-10.69,18.11,12.69,20.08,14.56,1.24,18.51-1.25,21.57-6.48-.63-.24-1.23-.45-1.88-.71"/><path class="cls-2" d="M192.88,124.64c-12.06,20.92-16.84,25.72-8.37,35.65H50.9c-19.71,0-32.52-.74-39.11-10.9-6.41-9.86-5.09-19.27,12.18-50.3h113.6c19.56,0,24.59,1.12,35.2,9.35,10.61,8.24,20.11,16.2,20.11,16.2"/></svg>