<?xml version="1.0" encoding="UTF-8"?><svg id="Layer_1" xmlns="http://www.w3.org/2000/svg" viewBox="0 0 359.29 263.37"><defs><style>.cls-1{fill:#024;}.cls-2{fill:#a5acaf;}.cls-3{fill:#4b92db;}.cls-4{fill:#fffffe;}.cls-5{fill:#c60c30;}</style></defs><path class="cls-1" d="M328.09,81.59c-16.49-16.39-37.35-26.82-60-30-29.5-28.21-65.16-17.88-65.16-17.88,7.55,1.09,12.62,5.66,10.63,10.63-1.29,3.28-6.75,3.48-9.34,3.48-7.95.1-14.9-4.77-20.36-9.24-5.76-4.67-15-12.91-23.44-17.58-15.6-8.74-40.23-7.65-58.11,3.77,10.73.7,23.54,3.77,31.19,10.13,4.27,3.58,9.73,10.63,5.26,14.01-3.87,2.88-13.51,1.39-18.48-1.39-7.65-4.57-14.7-11.42-18.87-16.39C73.11-2.25,32.98-4.13,0,4.11c21.65,6.06,36.16,18.48,45.1,39.73,8.94,21.26,15.89,30.4,30.59,36.16,9.24,3.58,11.72,4.27,11.03,8.34-1.09,5.96-12.02,3.08-20.36-.1-10.13-3.97-23.54-14.9-31.49-35.46,1.49,26.62,6.56,45.39,21.46,59.7,6.36,6.06,18.08,12.32,36.36,19.37,11.62,4.47,20.96,7.25,29.6,15,10.13,9.04,5.86,15.1-.89,13.91-7.65-1.29-13.01-9.04-13.01-9.04,0,0,0,43.31,53.54,60,4.47,7.35,9.83,14.3,16.09,20.56,20.07,20.07,46.79,31.09,75.19,31.09s55.13-11.13,75.1-31.29c20.07-20.16,31.09-46.88,30.99-75.29,0-28.41-11.03-55.13-31.19-75.19"/><path class="cls-3" d="M322.43,86.95c-15.99-15.99-36.45-25.73-58.51-28.21-18.97-18.97-38.04-18.08-38.04-18.08,8.34,5.26,4.07,16.89-14.5,19.37-18.38,2.58-41.62-3.68-53.04-16.89-11.72-13.61-20.56-14.3-20.56-14.3,10.13,6.36,10.83,13.91,16.99,25.53s18.87,15.79,29.9,16.49c11.62.79,11.92,6.06,2.58,11.62-10.23,6.06-19.27.3-25.93-6.16-10.43-10.23-20.76-12.22-35.06-12.02s-33.18,2.09-49.17-3.87-26.52-27.02-26.52-27.02c7.95,27.91,25.43,41.12,41.72,44.3,21.46,4.27,36.36,9.34,45.49,16.69,8.84,7.25,13.61,14.4,16.99,24.34,2.58,7.65,3.08,17.78.5,18.38-2.98.7-3.58-3.38-7.05-10.53-3.87-7.85-8.44-14.01-17.78-18.97-12.62-6.75-24.93-6.36-37.45-6.16-9.93.1-15.79-.99-15.79-.99,0,0,.4,1.39,16.69,4.97,18.08,4.07,35.56,14.3,47.18,39.14,9.93,21.16,4.77,36.06-17.18,29.3,0,0,10.23,22.75,43.71,30.89,4.27,7.55,9.73,14.7,15.99,21.06,18.58,18.58,43.21,28.81,69.43,28.81s50.86-10.23,69.43-28.81,28.71-43.21,28.71-69.43c.1-26.22-10.13-50.86-28.71-69.43"/><path class="cls-4" d="M253,63.01c24.93,0,48.37,9.73,66.06,27.32,17.68,17.68,27.32,41.12,27.32,66.06,0,51.55-41.92,93.47-93.37,93.47-24.93,0-48.37-9.73-66.06-27.42s-27.32-41.12-27.32-66.06,9.73-48.37,27.32-66.06c17.68-17.58,41.12-27.32,66.06-27.32"/><path class="cls-1" d="M253.2,241.81c-47.08.1-85.33-38.04-85.43-85.23s38.04-85.43,85.23-85.53c47.08-.1,85.33,38.14,85.43,85.23,0,47.18-38.14,85.43-85.23,85.53"/><path class="cls-4" d="M232.14,139.1h-25.23l-8.34,14.9-11.22-31.79h131.12l-11.22,31.79-8.24-14.9h-24.83l-21.06,92.18-20.96-92.18Z"/><path class="cls-2" d="M318.46,122.22h-131.12l2.09,6.06h62.58l-19.87,10.93,20.96,92.18v-103.11h63.27l2.09-6.06Z"/><path class="cls-5" d="M188.63,48.51c-18.97-.5-26.72-8.05-38.54-17.58-14.4-11.62-30.5-8.34-30.5-8.34,9.64-5.46,28.51-5.76,42.12,6.16,12.12,10.63,18.08,16.39,26.92,19.77ZM26.32,6.59c21.26-3.97,38.94,2.68,52.45,26.52,13.11,23.34,37.15,23.94,37.15,23.94-18.28,5.17-43.21.5-56.22-22.95C44.1,6.1,26.32,6.59,26.32,6.59ZM127.05,141.79c-10.43-14.4-26.82-17.88-49.17-23.84-31.99-8.54-32.28-36.55-32.28-36.55,0,0,4.77,19.37,42.02,26.92,36.95,7.55,39.43,33.47,39.43,33.47ZM265.81,113.97l-12.81-9.24-12.71,9.44,4.77-15-12.81-9.14,15.79-.2,4.77-15,4.97,15h15.79l-12.71,9.24,4.97,14.9ZM209.59,166.92l-1.59,15.69,14.5,6.26-15.4,3.38-1.49,15.69-7.95-13.61-15.4,3.48,10.53-11.82-8.05-13.61,14.4,6.36,10.43-11.82ZM283.49,189.27l14.4-6.56-1.79-15.69,10.63,11.72,14.3-6.56-7.85,13.71,10.63,11.62-15.5-3.18-7.75,13.71-1.69-15.69-15.4-3.08Z"/></svg>