<?xml version="1.0" encoding="UTF-8"?><svg id="uuid-d9074cd8-98d7-4c0a-a953-296b6f3c85e5" xmlns="http://www.w3.org/2000/svg" viewBox="0 0 247.11 246.79">
<title>Washington Redskins 1983-2020 logo - Brandlogos.net</title><g id="uuid-b06b7892-e684-47ca-a433-0a10d24eaa90"><g id="uuid-693bf435-6efc-4248-a992-9ed5369e613a"><g id="uuid-52f8279a-a82a-43f5-9726-d7f1dc72bde0"><path id="uuid-0988e704-ac81-4bcb-bfbd-f6600b65d1a9" d="M77.81,186.32c-.85.26-2.61-.17-2.61-.17.59,4.27,1.23,5.72,1.23,5.72l-1.02,1.15,1.22.87c-1.32,8.44,2.57,14.25,4.36,19.91-1.42.44-3.04.36-4.25-.25.48,4.79.04,14.01-4.16,18.02-.8-.47-1.38-.61-1.69-1.04-.62,1.35-1.1,1.87-2.37,5.31-.71,2.3-1.32,5.53-1.65,9.01-3.45-1.63-7.22-3.35-10.61-8.62-.76-1.25-1.29-2.26-3.13-3.93-.43.79-.5,1.02-1.35,1.76-.9.78-3.24,1.74-3.25,1.66-.47-2.12-1.04-4.09-2.41-6.48-1.31-2.65-5.81-6.18-9.48-14.79-1.51-3.31-2.26-6.25-2.89-9.65-.28.13-.48.21-.66.25-1.37.35-2.35.26-2.82-.69-1.16,2.87-2.59,4.47-3.82,5.25-.56,1.65-.47,2.09-1.7,3.44-1.12,1.56-1.51,1.96-2.29,4.92-1.27,3-3.18,4.49-3.46,5.26-.47-.95-.66-.77-1.13-1.48-4.62,5.66-5.19,7.14-15.66,9.15,2.64-4.8,4.43-12.8,4.24-14.45-1.32-11.23-2.55-13.58-3.22-22.28-.39-4.35-1.5-15.06-.46-29.32,1.13-17.23,6.41-32.11,10.95-43.34,5.85-15.66,19.24-40.9,29.02-56.32l.04-13.99h3.77l3.96-8.36,1.79,1.22,6.79-16.71,4.81,12.62,8.23-4.79c3.29-2.78,26.68-33.93,76.23-33.87,48.02-.06,97.46,34.57,97.46,89.92,0,50.29-44.54,89.11-95.95,89.11-39.84,0-65.49-18.71-79.1-35.85.87,8.62-.94,25.76,7.03,41.86Z" style="fill:#fff;"/></g><g id="uuid-2b73b7e0-b7c5-466b-abdf-9f40408b1959"><path id="uuid-b31ef6d2-efe6-4a4f-9484-83e1fe37f01e" d="M77.81,186.32l-.77.08-.86-.07-.7-.12-.29-.06.44,2.69.4,1.77.29.97.11.3-1.02,1.15,1.22.87-.13,5.88,1.14,5.12,1.73,4.6,1.63,4.31-2.2.27-2.05-.52.14,4.27-.47,5.03-1.34,4.88-2.49,3.83-1.03-.54-.66-.51-.46.91-.49.96-.61,1.35-.82,2.09-.97,4.06-.68,4.95-2.64-1.3-2.69-1.65-2.68-2.33-2.6-3.34-.55-.91-.61-.9-.81-.98-1.16-1.14-.52.9-.83.86-.89.6-1.07.55-.91.39-.39.12-.87-3.14-1.54-3.34-1.52-2.22-2.34-2.94-2.78-4.06-2.85-5.57-1.78-4.79-1.11-4.86-.66.25-1.75.15-1.07-.83-1.89,3.41-1.94,1.84-.33,1.05-.27.79-.39.73-.7.87-.72,1.01-.55.92-.49,1.19-.53,1.8-1.04,1.98-1.06,1.49-.88,1.07-.48.73-.57-.84-.56-.64-1.57,1.93-1.35,1.6-1.3,1.32-1.41,1.09-1.69.92-2.12.8-2.72.74-3.49.74,1.8-4.05,1.38-4.36.85-3.77.22-2.28-.97-7-.89-5.09-.77-4.62-.59-5.57-.39-4.41-.38-6.53-.12-8.39.42-9.99,1.55-12.46,2.65-11.46,3.29-10.33,3.47-9.08,2.52-6.28,3.1-6.95,3.55-7.4,3.86-7.62,4.05-7.6,4.1-7.36,4.02-6.9,3.81-6.2.04-13.99h3.77l3.96-8.36,1.79,1.22,6.79-16.71,4.81,12.62,8.23-4.79.85-.84,1.33-1.42,1.82-1.91,2.32-2.31,2.83-2.62,3.34-2.85,3.87-3,4.4-3.05,4.94-3.02,5.49-2.9,6.05-2.69,6.62-2.39,7.2-2.01,7.79-1.54,8.38-.98,8.98-.34,9.01.39,8.97,1.18,8.85,1.96,8.66,2.71,8.4,3.44,8.05,4.15,7.64,4.84,7.16,5.51,6.59,6.16,5.95,6.79,5.24,7.4,4.45,7.98,3.6,8.55,2.66,9.1,1.65,9.62.57,10.13-.52,9.29-1.5,8.98-2.43,8.63-3.31,8.24-4.14,7.81-4.9,7.34-5.62,6.83-6.27,6.29-6.88,5.69-7.43,5.07-7.92,4.4-8.35,3.69-8.74,2.94-9.06,2.15-9.33,1.32-9.55.45-14.28-.84-12.97-2.35-11.69-3.63-10.44-4.68-9.21-5.47-8-6.04-6.82-6.37-5.67-6.46.22,3.61.12,4.3.16,4.87.35,5.34.68,5.69,1.16,5.93,1.79,6.05,2.56,6.07" style="fill:none; stroke:#fff; stroke-width:2.58px;"/></g><g id="uuid-6cb33003-b722-4e53-b29e-0978a302b7db"><path id="uuid-b076af2a-a5cb-4fb0-8249-4e6f7a5af864" d="M148.48,176.15c51.12,0,92.56-38.21,92.56-85.36S199.6,5.42,148.48,5.42,55.93,43.64,55.93,90.79s41.44,85.36,92.56,85.36Z" style="fill:#f1c817;"/></g><g id="uuid-2d5efeac-a931-456d-9052-48b431635e47"><path id="uuid-fa7652d4-8b68-4fc0-adf3-47be15a48317" d="M148.48,164.24c43.98,0,79.64-32.88,79.64-73.45S192.46,17.34,148.48,17.34s-79.63,32.88-79.63,73.45c0,40.57,35.65,73.45,79.63,73.45Z" style="fill:#fff;"/></g><g id="uuid-6a33f7f6-1927-4f2c-895e-8125ea55a1c1"><path id="uuid-fa589826-c55c-4a30-bee0-f8bcbad96790" d="M98.35,83.83s-6.51,14.54-6.23,26.02c0,0,2.02-4.3,2.74-3.57,0,0-5.85,18.1-1.42,28.46,0,0,.94-2.87,2.54-4.62,0,0,2.45-3.57,3.4-6.44,0,0,.47,1.22.75,3.39,0,0,2.17-2.52,2.64-4.27.37-1.36,1.32-2.87,1.98-4.61l.75.35s4.44-4.96,6.13-9.49c0,0,1.32-.17.66,3.4,0,0,3.68-3.31,3.77-8.44l.75.79c3.11,3.57,3.11,9.05,3.03,12.44-.75,10.88-6.8,16.7-14.34,23.06l.67.52c11.22-1.91,18.62-3.03,30.01,0,4.33,1.16,14.81,5.57,19.9,8.53,0,0,11.32,4.52,19.25,4.52,0,0,.38.17.38-.22,0,0-.85-2.7-.1-12.84,0,0,.85-4.69,1.51-7.92,0,0,.85-2.17.95-6.61,0-.37-.38-3.05,1.6-2.79,4.3.56,6.7-.35,10-.87,0,0,3.5-.95,4.92-1.05,0,0,3.31.49,4.33.17,1.13-.35,2.36-1.22,3.87-2.52,0,0,1.69-1.66.56-5.4,0,0-1.13-3.4-.47-4.44,0,0,1-2.31,2.46-3.66,0,0,1.04-1.56-.37-2.34,0,0-.75-.79.51-1.09,0,0,.95.09,1.55-.22,0,0,.33-.13.38-.78.06-.7.38-4.09-2.07-7.05,0,0,.71.18,1.23.35,0,0,3.02.26,4.58-.44,1.37-.7,3.35-1.56,3.07-5.75-.77-3.48-2.27-5.57-3.79-9.48-1.79-4.18-2.07-6.27-5.84-9.13-2.27-.96-3.31-2.52-1.61-4.09,1.32-1.83.85-5.13-1.5-7.4-2.27-2.09-3.96-5.31-4.82-6.97-1.13-1.74-2.36-3.65-3.48-4.79-1.14-1.31-2.83-2.08-5.84-5.4,0,0-1.81-1.48-2.08-3.04-2.55-3.65-9.63-8.79-17.74-9.31q-2.37-.26-4.06-.44c-2.83-.96-11.7-1.22-17.74.35-1.95.38-5.85,1.04-5.85,1.04-2.07.61-5,1.14-8.21,2.96-2.36,1.13-5.85,3.83-8.49,5.57-2.84,2.62-9.15,6.45-12.65,8.62-6.79,4.61-12.64,10.7-16.04,14.54,0,0-8.58,9.91-12.83,27.06-.28,2.61-1.03,5.13-.57,8.01,0,0,3.78-7.57,7.27-9.93,0,0-.48,1.4-.76,3.65,0,0,1.79-3.04,2.54-3.57,0,0,1.32-1.31,3.21-3.39,0,0,3.97-4.79,5.09-5.31-1.46,2.52-1.79,4.18-1.93,6.78.61-.52.99-.92,1.18-1.22,0,0,.37-.7.75-.52.19.45-.1.8-.1.8Z" style="fill:#010101;"/></g><g id="uuid-088f0d6e-a121-43ac-8a58-fbf038b87e74"><path id="uuid-3dfee8ef-8688-4c74-8f59-4f07c74e542c" d="M212.19,91.45c.98-1.92.8-3.79-.62-6.05-.85-1.31-1.41-2.78-2.08-4.61-.28-.74-.85-2.26-1.5-3.57-.04-.53-1.23-2.96-1.99-3.92-1.89-2.52-3.44-2.74-4.48-3.79,0,0-.38-.02-.39,0-1.1.68-1.12,2.16-2.05,3.3-.1.12-.41.27-.62.18-.3-.14-.42-.38-.76-.83-.31-.42-.56-.12-.9.23-.21,0-.38.16-.55.32-.29.28-.06.43.17.75.24.33,0,.33.15.5-.04.14-.08.19-.13.25-.12.17-.43.13-.65.09-.62-.09-.48-.05-1.04-.3-.68-.3-1.01-1.13-1.54-1.39-.16-.09-.7-.18-1.1.07-.3.19-.44.6-.18.82.45.37.79.81,1.27,1.14.64.44,1.35.77,1.43,1.39.11.79-1.15,1.08-1.75.66-.31-.21-.68-.46-1.01-.78-.05-.05-.11-.31-.18-.36-.27-.19-.58-.41-.73-.61-.27-.37-.62-.77-1.11-.94-.12-.04-.21-.19-.29-.32-.22-.36.02-.78-.14-1.11-.13-.27-.2-.71-.61-.54-.39.35-.34.35-.77.32-.55-.05-.11-.98-.11-.86,0,.05-.02-.02.16-.33-.38-.11-.95-.39-.51-.91.37-.43.74.2.88-.06.05-.1.37-.65.49-.72.42-.23.55.08.61.17-.18.48.36.79.88.53.05-.03.04-.39.09-.48.48-.77,1.23-1.18,1.99-1.71.07-.05.28-.1.31-.14.23-.42.49-1.03,0-1.22-.4-.16-1.23-.01-1.06-.67.08-.31.51-.43.76-.53.9-.39,1.82-.77,2.76-1.11.22-.08.61-.4.89-.42,1.18-.09.9-.06,2.34.17.25.04.75.29.99.37.76.25,1.85.17,2.36-.59.5-.75.36-2.01-.15-2.88-.6-1.06-1.52-1.98-2.31-2.71-1.01-.94-2.32-1.42-2.59-2.7-.32-1.57-1.64-3.66-2.39-4.9-.79-1.29-1.48-2.14-2.48-3.34-.23-.27-1.69-1.64-1.94-1.87-1.66-1.5-2.38-1.99-4.15-2.58-.91-.3-4.45-.11-6.29-.32-.58-.07-2.36-.11-2.84-.98-.44-.79-.99-1.92-1.9-2.45-.33-.19-.84-.39-1.18-.55-1.66-.77-3.37-2.06-5.17-1.99-.66.02-.03.68.14.75.81.39,1.18.84,1.63,1.31.46.5,1.47.52,2.34.85.82.31,1.51.8,2.28,1.17.72.35,1.7,1.51.89,1.99-.73.43-1.49-.09-2.46.13-.19.05-.48.17-1.6.17-1.49.19-2.01-.47-3.15-1.22-1.14-.75-1.87-1.91-2.97-2.63-1.36-.88-2.73-1.62-4.28-2.12-.34-.11-.79.06-1.1-.09-.53-.27-.94-.87-1.62-.92-1.15-.07-1.15-.16-2.29,0-.16.03-.58.47-.72.47-.68-.02-1.46-.2-1.8.15-.52.55.12.49.79.79.38.16,1.17.56,1.63.55,1.91-.03,3.13-.05,4.63.7.16.09.83.69.87.92-1.42-.02-3.66-.54-5.3-.42,2.76-.21-2.81.07-4.03.03-.37-.01-.37.68.2,1.06.15.1.99-.04,1.11.2.49-.24,1.91-.13,2.32.02.71.23.31.13.93.43.38.19.74.44,1.18.39.58-.06.61-.85,1.19-.6.2.09.64.34.74.33,3.27-.06,3.35.89,4.87.87.4,0,.98-.15,1.26.03.61.39,1.19.44,2.13.09,0,0,2.18,5.39,1.61,15.23-.56,4.18-.85,4.96-1.89,8.36,0,0-1.5,5.39-.94,9.13.57,12.62-3.59,23.06-8.11,30.03-1.7,1.91-2.65,2.95-.94,4.34,3.59,3.05,6.51,3.74,11.6,4.79,1.8.52,2.93.69,4.62.69,2.64,0,6.8,1.04,8.69,2.35,1.79.87,6.6,2.52,9.52,2.09,2.54.18,3.3.35,4.54.79.84.34,1.7.34,2.64.09.79-.52.42-.31,1.46-1,.19-.43,1.56-1,1.28-2.74-.1-1.3-.66-2.66-.94-3.87-.82-1.07-.77-1.87-.48-3,.85-1.57,1.84-2.35,2.37-3.13,1.13-1.18.47-2-1.09-2.4-.75-.3-2.21-.17-3.73-.3-.8,0-1.46-.31-2.59-.09,0,0-.76.48-1.18.83l-.57-.31s.53-1.39,1.6-2.22c1.08.17,2.68.29,3.5.09.97-.41,2.1-.58,2.92-.88,1.42-.13,2.08-.04,3.78.05,0,0,.85-3.39-2.12-5.96-.71-.6-1.29-1.39-2.31-1.43-3.6.39-5.57-.96-6.15-1.31-.89-.04-1.17.31-1.65.83-1.23,1.91-2.69,2.56-2.69,2.56l-.75-.09s.66-1.04,2.16-2.79c.68-1.39,1.61-3.13,2.46-4,.52-.83.66-2.7,1.93-3.22.62,0,.72-.13,1.18.13-.93.82-3.58,3.78-.84,5.61,1.13.87,2.83.87,3.25-.04.21-.5.66-.82.9-1,1.42-.26,2.6.39,3.06.74,1.13,1.22,1.79,1.78,2.35,2.04.62.44,1.76.35,2.32.35,1.84-.29,2.83-1.26,3.16-1.87Z" style="fill:#57211b;"/></g><g id="uuid-1650a1cb-206c-426b-9abc-2f33a8047fdd"><path id="uuid-9295d195-8587-446d-8fa3-bbd139edae9b" d="M192.47,71.04c.57.27.8.18,1.96.33,0,0,1.01.15,1.93-.59.15-.12.92-.48.89-.76-.1-1.32.12.86-.16-1.13-.06-.42-.04-.81-.23-1.26-.09-.23-.48-.64-1.07-.45-.11.04-1.04.74-1.06.77-.51.91-1.32,1.02-1.67,1.64-.31.54-.49.67-.66,1.01-.06.16-.15.32.08.43Z" style="fill:#57211b;"/></g><g id="uuid-3341efcf-7e8e-4b91-94dc-1bbcb1b9d448"><path id="uuid-6d432dbc-5bf4-46b3-93a3-f0d1be5d91e2" d="M201.15,84.15c1.62-.49,2.4.21,4.19,1.33.31.19.57.71.12.98-.15.09-.49.08-.59-.01-1.57-1.38-2.07-1.4-3.79-1.68-.09,0-.35-.5.07-.62Z" style="fill:#0c130f;"/></g><g id="uuid-105a0487-63f0-4eb5-a9a0-34c7b92917eb"><path id="uuid-192703c3-8c05-466a-a702-f31621eecfa2" d="M191.53,99.45c-.25.68-.49,1.29-.81,1.94-.32.68-.17,1.51-.67,2.12-.22.27-.82.17-.92-.15-.32-1.19-.16-2.44.45-3.53.33-.56,1.14-.84,1.84-.63-.07.14.15.21.1.35v-.1Z" style="fill:#0c130f;"/></g><g id="uuid-97f3fb90-026e-4791-b79e-a1569275f766"><path id="uuid-27c1c1ea-71c6-4789-9a71-7793472cbc9b" d="M175.29,91.45c-.54-.16-.82-.62-.75-1.13.18.05.03-.19.19-.18,1.12.07,2.18.48,3.3.51,1.28.02,2.57-.2,3.74-.71,1.46-.64,2.71-1.33,4.11-2.19.62-.38,1.52-.61,2.3-.76,1.22-.26,1.14-.89,2.05-1.39,1.33-.71,1.23-1.24,1.98-.97.21.08-.22.51-.45.71-.5.42-1.16.83-1.62,1.57-.1.15-.8.84-.94.94-1.53,1.04-1.87,1.95-3.01,3.23-.64.73-.85,1.68-1.28,2.52-.25.5-.41,1.02-.75,1.47-.14.19-.65.1-.83.26-.94.83-1.84,1.63-2.54,2.72-.12.18-.51.17-.57.07-.61-1.07-1.45-1.88-2.88-1.92-.26,0-.53-.54-.52-1.01,0-.1-.11-.3-.25-.33-.22-.03-.32-.23-.56-.24-.24-.01-.44-.36-.48-.51-.29-.84-.19-1.78-.37-2.67h.1Z" style="fill:#0c130f;"/></g><g id="uuid-719070f0-9105-4995-ace0-db31ea703ac0"><path id="uuid-52df8341-2df6-4e04-8ab3-cf1acce6c800" d="M154.38,115.6c-.24-.87-1.76-.79-2.85-.69-1.65.16-3.16.42-4.77,1.21,1.06-1.48,2.36-1.57,4.83-2.44.56-.2.43-1.11.07-1.64-.42-.61-.96-.64-1.17-.68-2.04-.37-2.69.07-3.77.33-3.74.89-7.41,3.49-9.46,5.98-.6.73-.4,1.5-.28,1.65.38.47.97,1.79,1.13,1.63,1.52-1.51,3.35-2.9,5.34-2.47-.85.25-3.82,1.64-4.77,3.66-.06.13.38.86.95,1.25.76,1.17,1.04,1.65,1.46,1.87.27-.02.82-.53.97-.75,2.08-2.55,4.16-4.12,9.92-4.82,1.65-.26,2.59-.7,2.74-2.09,0,0,.32-.69-.33-2.09" style="fill:#fff;"/></g><g id="uuid-03813a49-3474-4d2b-8592-733f6c0254db"><path id="uuid-a41f5b3a-42cd-4ce2-acb0-ce4cde995edd" d="M147.51,123.69c.1,1.31-.11,1.9.29,2.75.39.8,1.19,1.5,1.49,2.34.24.63,1.05,1.44,1.05,1.88.39.34.43.65.43.65.5.61,1.99,1.34,1.47,1.7-.62.44-2.46.13-3.56-.04-1.43-.22-.6.98-.3,1.1,1.45.55,4.48.74,5.48,1.24.6.31,1.39.77,1.64,1.32.19.41.53.76.82,1.12.96,1.19,1.3,1.7,2.29,2.45.49.37,1.06,1.01.89,1.58-.21.67-.67.81-1.36.72-.22-.03-.91-.22-1.57-.48-1.32-.38-1.6-.83-2.55-.38-.51.24.24,1.04.82,1.33,2.37,1.16,5.23,1.19,7.53,2.42,1.97,1.05,3.17,2.34,3.06,5.05,0,.05.71.41.75.35.68-.98,2.38.24,3.21,0,.08-.02.1-.43-.02-.6-.39-.55-1.24-.57-1.6-1.1-.38-.56.17-1.17-.02-1.66-.2-.5-1.11.37-1.45.04-1.51-1.45-2.5-3.17-4.53-4,.85-2.17,1.22-4.61,1.03-5.74-.56-.43-.79.26-.94.35-.47.41-.28,1.3-.83,1.99-.1.11-.83-.02-1.03-.19-1.39-1.09-2.69-2.39-3.33-3.94-.02-.06-.3-.38-.36-.45-1.02-1.32-.96-3.16.23-4.48.12-.15.32-.96.2-1.05-.21-.15-.69.16-.88.34-.65.61-1.2,1.83-2.29,1.72-1.23-.12-1.7-1.27-2.46-2.02-.24-.74-.68-1.21-.57-1.31-1.04-1.39-1.13-2.52-2.09-4.26-.21-.39-.51-.58-.93-.7Z" style="fill:#fff;"/></g><g id="uuid-a62afc7a-d065-4e09-9db4-57a7a57bff0e"><path id="uuid-c49b29c9-97ba-40f3-9142-e77a9a1d4e62" d="M154.68,147.19c1.23.58-.19-.74-.19-.74-.47-.3-1.58-1.88-1.8-2.26-.53-.85-.91-1.5-1.23-2.18-.46-1.05-1.38-1.79-2.91-3.14-.76-.68-1.94-1.88-2.42-2.76-.75-1.36-1.17-3.81-2.96-4.95-1.38-.89-1.05-1.9-2.24-3.61-.46-.65-1.39-.73-2.08-1.38-1.73-1.6-.63-2.22-2.14-3.7-.67-.64-.96-.77-1.53-1.76-.75-1.26-.19-2.92-1.46-3.5-1.13-.52-2.01-.71-2.77-.94-1.19-.36-3.08-1.26-4.15-2.03-1.12-.81-3.43-2.58-5.89-4.55,1.51,10.7-.58,19.84-12.08,29.41,21.32-3.66,30.66.96,45.85,8.09Z" style="fill:#57211b;"/></g><g id="uuid-074968cc-b5e2-4f53-b69b-f44eebd96e6e"><path id="uuid-cf76cc1f-2d87-441d-9d17-ef74ea2dc0eb" d="M162.74,133.53c.06.88.39.72.92,1.92.26.6,1,1.66,1.39,1.96,2.18,1.69,3.69,4.3,3.54,6.99.11,1.31.18,1.23,1.58,2.14.24.16.38.18,1.12.82.29.22,2.32,2.22,2.6,2.44-.05-.79.08-2.11.07-2.53-.12-4.11.73-8.35-.78-11.94-1.13-2.69-3.68-5.71-4.68-8.52l-.5-1.54c-.52-2.18-.57-4.46-.57-4.46l-3.15-1.39c-2.48-.92-5.28-1.76-7.78-2.61,0,1.22.18,2.08-.8,3.3.66,1.48,1.22,4.75,1.98,5.53,1.65,1.43,2.97,2.56,4.06,6,.24.82.99,1.26,1.03,1.88Z" style="fill:#57211b;"/></g><g id="uuid-270c641d-39e6-4f35-af2f-3ac9eeb34c40"><path id="uuid-b1604d2b-d034-4e49-9be6-fd680964afd6" d="M124.39,40.84s-1.88-.17-6.32,2.96c-4.9,2.78-11.41,6.79-16.13,12.1-3.44,3.17-8.3,8-10.09,11.4,0,0-2.93,4.26-4.81,11.23,0,0,.67,2.26,2.55-.7,3.29-5.17,15.85-22.59,33.77-35.29l.86-.04c-8.88,7.04-20.38,16.54-31.57,32.68-.42.6-.95,1.66-1.01,1.74-.5.86.78,1,.13.85,1.02.23,1.4-1.08,2.05-1.34.4-.16.58.95,1.22.67,2.28-1.02,3.98-3.2,4.91-4.5.05.37.58,1.48.58,1.48,1.03.26,4.25-3.83,5.94-6.61.48.52-.11,1.79.51,1.25,1.94-1.69,3.67-3.5,4.7-5.15,1.2-1.93,2.53-2.8,3-6.19.75.43.74.62.94.78.47-.52.5-1.07,1.26-1.85.81-.85.98-1.51,1.97-2.11.36-.22,1.14-1.58,1.3-2.29.15-.67,1.77-2.86,1.89-3.59,1.32-2.26,3.59-3.48,5.19-5.22,1.51-1.21.38-3.39-2.83-2.26Z" style="fill:#fff;"/></g><g id="uuid-1b77f67c-9377-494f-bb3a-c40373fad8b7"><path id="uuid-2f4dc477-e19b-4989-8595-a414369f2227" d="M107.79,108.81c.66.7,1.22-.22,1.22-.22,1.09-1.52,1.33-1.92,2.08-3.96.47-1.35,1.04-1.83,1.51-7.48,1.32,1.83,1.51,5.3,1.51,5.3l.38-.09s1.23-3.22,3.3-4.26c0,0,.19-2.17,2.26-4.35-.28-1.31-.47-2.35-.75-4.44-.85-3.48-1.32-9.31-.48-13.31,1.7,8.35,2.69,9.57,2.69,9.57l.38.13c.71-1,.9-2.74,1.1-4.3.84-3.31,2.35-2.96,2.35-3.66-.47-2.7-1.23-6.96-.76-10.62.95,4,1.42,3.75,2.07,5.23.85,1.82.94-.44.94-.44-.18-2.35,1.61-4.7-.09-10.18-.66-3.74-2.55-11.75-1.79-13.58.47-2.26-.38-1.48-.38-1.48,0,0-2.46.52-6.13,10.1-5.37,15.92-10,32.89-15,46.64,1.51-7.22,9.53-32.72,11.89-41.94,0,0-.33-.66-.85.08-.62.65-1.23,1.48-1.56,2.04.05-.03-.28.05-.66.23l-1.19,1.65s-2.35,3.04-8.81,9.22c-1.09,1.57-1.56,2.29-2.74,4.79-.43.91.23,1.05.94.52,1.74-1.57,1.84-1.57,4.25-3.27.11-.07,2.05-.72,2.05-.75-.31.36-.72.6-.86.74-.67.58-2.3,2.28-2.75,3-1.1,1.75-2.3,3.92-3.87,6.56-1.98,3.3-3.48,7.13-3.48,7.13-1.04,2.7-.76,2.96-.76,2.96,1.41.52.64,1.18.64,1.18-.64,1.08-.93,1.95.16,1.56.71-.13,1.09-.47,1.38-.8.56-.63,1.03-1.07,1.41-1.51.63-.73.51-.95,1.19-1.67.88-.94,1.44-1.72,2.34-2.11-1.56,1.95-1.65,3.35-1.65,3.35l.38.43.27.18s-1.6,1.83-2.35,5.97c-.37,1.97-.29,2.21-.62,3.3.16-.14,1.09,0,1.92-.78-.36,1.21-.43,1.82-.43,1.82-.16,1-.16.83-.16,1.96,0,1.05,0,.6.38,1.82,1.7-.7,2.07-.61,3.67-2.34.76-.66,1.34-2.25,1.57-2.14.42.18.06,1.06-.13,1.45-.26.55-.49.96-.58,1.35-.05.2-.27.5.08.77.15.12.04.1.53.09.29,0,.56-.41.56-.41,0,0,.15-.03.3-.33.11-.26.32-.4.51-.52,0,0,.29-.26.62-.18Z" style="fill:#fff;"/></g><g id="uuid-1345bea3-6177-4da2-9a36-ec4c67916e46"><path id="uuid-8dd3bd20-d7d5-4718-befa-2c6bd4462d01" d="M64.1,55.2h-1.98l6.51-13.66-8.02,5.79-1.84-8.66-4.19,11.79-2.03-1.43-3.06,6.35h-2.27v6.88h13.87l3.02-7.05Z" style="fill:#0c130f;"/></g><g id="uuid-f4aa4929-64cc-4bb8-b4ed-fdd684fd495b"><path id="uuid-9a2e7168-5f93-4190-b5e3-d3fb8356ec1c" d="M52.31,61.9l7.36,4.52.75-2-4.34-2.61-3.77.09Z" style="fill:#0c130f;"/></g><g id="uuid-0be9d639-ba44-4651-8eb0-fb0541d33064"><path id="uuid-1b961c84-bbaf-43e1-8d0c-0a0f71685727" d="M54.38,60.95l3.96,3.74s-3.11,12.09-2.54,18.71c5.76,5.13,10,10.09,9.34,21.23,0,0,.38.26-2.07-.43,1.23,1.22,1.6,2.18,2.64,4.26.47,3.39.76,6.44.47,9.57,0,0,.29,7.74.57,10.18,1.13.35.47,3.13.57,6.79,0,0-.1,2.26-.48,4-2.35-1.74-2.17-1.65-2.83-1.48.56,1.73.94,1.73,2.08,3.13,0,10.36.38,21.06,1.13,25.76.38,3.39,1.04,7.3,1.32,8.53.57,1.56.57,2.95,2.26,6.26-.56,0-2.15.04-3.21-1.21,1.51,2.61,1.51,2.09,2.45,2.96l1.32,9.05-1.51,1.56,2.08,1.22s-.47,4.09.09,7.83c.28,1.74.85,3.48,2.17,5.92-2.74.09-3.21-2-3.21-2-.75-.79-2.08-2.53-2.45-2.53-.19,2.53,1.32,3.49,1.98,4.97,1.92,4.25,2.18,8.36.47,16.27-1.89-1.65-1.98-3.14-3.4-3.91-.18,4.52-.38,5.91-1.32,7.91-1.98,3.57-2.55,5.41-2.64,8.89-3.3-2.53-4.15-6.01-6.42-8.01-1.61-1.48-4.81-4.27-5.94-6.09-.19,2.17,0,2.96-.94,5.04-.76-2.42-.85-3.13-2.64-5.13-2.36-3.05-7.64-9.83-8.87-17.06-.29-1.22-1.04-4.79-1.89-9.66-.66,1.66-1.79,2.96-2.93,3.22-.57.27-.57-.43-.57-.43.47-1.57.66-3.31.47-4.61-.28-1.92-.85-6.18-1.89-7.22h-.48c.1,2.87-1.13,4.18-1.89,5.13-.09-2.26,0-4-.57-5.13-.28-.79-.94-1.48-1.13-.7-.47,2.26-.66,2.7-.66,4.79-.19,3.13-.19,4.18-.57,6.79-.19,1.92-.85,4.26-2.73,6.61-.38-2.08-1.79-3.74-1.79-3.74,0,2.52.57,6.26-1.13,8.27-2.08,2.61-2.36,3.91-3.02,5.83-.29-2.27-1.04-1.57-1.41-2.79-1.51,5.91-6.23,10.44-7.93,11.48,1.13-2.43,2.08-5.22,2.27-6.96,0,0-.28-6.44-1.32-10.09-2.58-11.39-3.83-37.7-1.88-47.69,4.71-35.85,24.91-68.75,41.89-98.33l4.72-.69Z" style="fill:#0c130f;"/></g><g id="uuid-0de2126f-d516-4883-adc5-86d832d6fc4f"><path id="uuid-eed7dc5e-3477-4cb8-ae3d-0eb371669288" d="M56.37,64.51s-2.93,11.57-2.36,19.67c3.96,3.13,8.21,7.4,8.4,16.18-.33.13-.38.04-.66-.18-1.13-1.34-4.15-1.78-6.41-5.17.33,2.13,6.99,10.66,7.46,12.31.09,5.31.94,13.01.47,14.53-1.61-.74-2.44-2.44-2.26-1.39,1.23,2.91,2.26,5.48,3.73,7.61,0,0,.14,7.53-.14,6.48h-.38c-1.32-.87-2.64-1.92-3.63-2.78-.62-.3-.71-1.04-1.84-2.05-1.69-1.43-2.64-2.65-3.35-2.91-1.8-1.17-3.02-1.56-4.06-1.87-.33,0-.99-.09-.99-.09,0,0,3.4,2.65,5.57,5.66,2.6,2.87,3.68,4.57,4.57,6.3,1,1.75,2.41,3.49,3.54,4.96,0,2.4-.19,10.35-.05,11.7l-.71-.48c-1.69-.96-3.54-3.1-5.09-5.88-.85,4.01,3.77,8.7,5.9,10.27.71,7.44.71,10.92,2.03,18.75l-.1.61c-1.89-1.21-3.87-3.13-6.23-6.26-.19,3.04,3.11,7.04,6.61,10.87.46.51.33,1.18.58,1.76.41.96.83,2.16,1.35,2.81.43,1.69.61,3.96.52,4.92l-1.42,2.53,1.89,2.09c.19,2.26-.28,2.87,0,5.39,0,0-2.17-.17-3.12-2.44-1.7,4.36.19,9.23,1.7,11.75,1.13,2.96,1.79,4.78,1.6,8l-.38.95c-1.13-2.09-2.73-3.82-4.34-4.96l-.66-.17c1.59,9.16,1.04,12.18-1.98,18.02l-.48-.44c-1.7-3.05-4.9-5.4-7.16-7.57-.38-.09-4.34-4.7-4.63-8.44l-.47.09c-.19,1.31-.76,4.09-.38,4.61l-.38-.17c-2.26-.96-6.37-8.35-7.07-12.61,0,0-.15-.83-.47-2.53-.14-1.65-1.08-6.7-1.28-7.4-.33-1.87-1.19-4.23-1.55-5.48.05-.44-.28-.57-.52-.22-.52.69-.94,1.35-1.23.91-.24-.43-.04-1.13.14-2.09-.38.26-1.22.37-1.32-.26-1.04-4.26-1.6-9.57-1.6-13.93.47-1.13,1.79-3.21,2.83-5.48l-.09-.52c-1.13.52-3.02,2.26-3.4,3.21l-.47-.61c-.38-1.75-.75-5.14-.75-8.7-.19-.65.09-1.04.38-1.57.75-1.65,1.61-3.5,2.26-5.31.57-1.83,3.73-7.48,4.67-8.79l-.62.52c-1.74.57-6.22,5.57-6.79,5.92l-.42.04c.23-5,1.74-16.14,2.78-22.98,1.04-2.56,9.15-10.39,7.26-9-3.67,1.22-4.9,2.44-5.66,2.79l-1.13.35c1.13-4.86,3.47-22.42,5.95-27.15,1.79-2.87,3.58-3.65,4.9-6.79l-.95.43c-.66.61-3.59,2.62-5.37,4.88l-.57.09c.85-2.26,1.13-4.7,2.83-7.83.47-1.31,1.23-1.83,1.8-2.96,1.41-1.66,1.98-2.27,3.3-2.87.66-.26,1.89-.69,1.89-.69-3.77,14.25-5.09,25.84-6.23,41.68-1.13,25.24,1.16,55.78,10.38,74.66-7.36-22.1-10.19-46.12-9.25-70.48.75-20.89,4.14-37.59,11.51-65.79l1.6.95Z" style="fill:#fff;"/></g><g id="uuid-3b66cb99-811e-43a1-abfc-ccf41e79a6c5"><path id="uuid-7fbf69ed-fd3b-483d-9a7b-43b75a089cce" d="M51.36,62.34c-2.36,2.96-18.59,31.16-20.19,36.29-14.33,26.54-22.83,52.99-22.27,79.02,0,11.4,1.32,19.23,2.83,27.58.66,3.22,1.6,7.57,1.42,10.35l.48-.26c.66-1.13,2.45-4.7,3.02-7.65.19-1.13.85,0,.85,0,.28.78.85,1.13.94,1.91,0,.7.37.61.56.08,1.04-1.91,1.32-3.05.94-5.05-.38-1.65-.66-8.53.19-11.05,0-.7.66,0,.66,0,.48,1.05,1.23,2.96,2.92,4.53,0,0,.71.43.76,0-.18-1.83-.37-13.75,2.64-15.06,1.13.26,1.23.96,2.07,1.74.95-.96,1.32-5.05,1.04-8.18.09-4.87-.66-9.75-1.13-12.79-.4-.96,0-1.14.57-1.31.14-.09,2.26-2.52,2.26-3.82-1.79,1.13-2.26,1.39-3.96,2.44-.19-3.75-1.98-9.66-3.96-14.28,2.08,1.75,3.39,3.75,4.05,5.4.75-3.83,1.04-6.1,1.13-7.92-1.03-3.39-3.02-10.79-2.83-16.27,1.23,4.01,2.36,8.36,3.59,10.97.57-1.92,1.04-5.31,1.79-8.18,1.03-.7,2.26-1.39,2.64-2-.38-.62-1.99.52-2.26.6.19-2.7.66-7.92-1.32-16.44l.28-.26c.85.35,1.89,1.92,2.26,3.57,1.7-1.83,2.83-10.88,3.3-14.44-1.79,0-2.64,1.82-3.87,1.65.19-1.13.28-.61.75-1.65.47-1.22,1.61-2.44,2.08-4.09,1.04-1.39,1.04-3.05,1.13-4.61,0-1.48-.19-3.65,1.13-5.57.29.78.1,1.31.75,2.96,0,0,2.65-5.31,4.06-6.52,1.88-7.57,6.41-16.1,10.66-21.67" style="fill:#fff;"/></g><g id="uuid-934c0e35-2887-4004-a3d6-0a4537412cdd"><path id="uuid-4bad88a0-afe3-40db-b425-e3bbbf5a9641" d="M52.22,67.12c-3.12,4.1-5.38,10.53-6.51,15.15,1.41-.7,1.51-.61,2.83-1.04.47-2.18,4.19-14.77,3.68-14.1Z" style="fill:#fff;"/></g><g id="uuid-c229a3fe-ce37-4c1a-8057-251f8a75fbbc"><path id="uuid-9f03ee45-bed4-42e6-935c-4aff7e67b0cb" d="M21.01,166.5c.06.25.49.1.26.35.57,0,1.16.1,1.68-.05.27-.07.45-.45.49-.66.15-.73.54-1.66-.17-2.17-.62-.47-.51-1.2-.95-1.56-.2-.16-.64-.28-.93-.55-.22-.21-.61.25-.61.46.01.57.42,1.15.41,1.76-.01.94-.48,1.2-.18,2.42Z" style="fill:#f1c817;"/></g><g id="uuid-84e2b142-be97-4f0d-9877-fc62c5e91ce2"><path id="uuid-450871ac-a0e7-4deb-af95-eff24d4aba48" d="M14.2,158.5c-.06-1.01-.42-2.43,1.2-2.03.51.12.63.82.64,1.16.03.91.25,1.64.67,2.44.24.45-.16.85-.41,1.17-.63.86-1.93,1.35-2.67.5-.45-.51-1-1.29-.59-1.99.32-.55.58-.85,1.07-1.34" style="fill:#f1c817;"/></g><g id="uuid-88f3a69d-3c60-499d-aff5-d1ad1ff205a4"><path id="uuid-9c950055-5c6f-4345-a8f1-422b76333507" d="M15.83,168.86c-.86-1.14-.46-2.2.55-2.87.63-.42,1.4-.14,1.58.36.35,1.05.79,1.92,1.14,2.96.36,1.06-1.1,2.09-2.12,1.62-.73-.34-.68-1.46-1.15-2.08Z" style="fill:#f1c817;"/></g><g id="uuid-85ff391c-6bdd-4f5d-aba1-6d52040a2208"><path id="uuid-eb2a993f-3b57-4cc2-8722-584dab46529c" d="M16.71,172.99c-.41-.12-.45.21-.65.37-.42.33-.43,1.04-.8,1.5-.69.86-.48,2.07-.21,2.89.18.56,1.09,1.38,1.87,1.32,1.22-.09,2.13-2.2,1.2-2.69-1.21-.66-.79-2.34-1.23-3.24-.03-.07-.32-.02-.51-.02" style="fill:#f1c817;"/></g><g id="uuid-454a0388-40a0-4aad-83f4-08a611a20d7f"><path id="uuid-09d7968b-0793-469a-9415-0cdacef7f556" d="M24.49,170.84c-.31-.38-.33-.9.03-1.15.33-.22.9-.12,1.23.15.1.08.44.29.54.36,1.01.74,1.63,1.74,1.09,2.88-.15.32-.75.62-1.17.33-.33-.23-.78-.24-1.01-.63-.36-.63-.22-1.34-.72-1.94Z" style="fill:#f1c817;"/></g><g id="uuid-a2a50bdc-87dd-48b9-90a6-35ddfe7b5658"><path id="uuid-6dc0083a-1515-4040-95bf-35e2d8efe0d8" d="M13.34,163.81c-.18-.55-.69-.28-.98.12-.67.95-1,1.88-1.1,3.27.19.78,1.4.93,2,.58,1.35-.78.38-3.78.32-3.37.04-.27-.25-.67-.25-.61Z" style="fill:#f1c817;"/></g><g id="uuid-e2f0f319-f488-47fc-8508-02ee611fd0b6"><path id="uuid-f981b5fd-e3e4-491d-a6df-7a7ab9b3674f" d="M39.58,172.42c-.28-.19-.73,0-.76.31-.1.89-.12,2.59,1.35,2.31.52-.09.87-.59.75-1.1-.18-.72-.76-1.13-1.34-1.53Z" style="fill:#f1c817;"/></g><g id="uuid-eb92cad6-c558-405b-9f95-d19439f1b30c"><path id="uuid-4bb0b0fe-7078-42bd-a03a-c04acb213f6f" d="M43.11,175.59c-.36-.33-.99-.28-1.26-.09-.54.38-.74,1.2-.55,1.81.21.67.46,1.38,1,1.9.34.33,1.06.72,1.25.48.44-.57.85-1.34.66-2.17-.18-.74-.55-1.39-1.1-1.93Z" style="fill:#f1c817;"/></g><g id="uuid-92501a98-1705-4b53-a6f6-3f81c29732cb"><path id="uuid-9513237a-cd34-466c-9dfe-2e9e8973c689" d="M56.6,174.55c-.26.02-.6.05-.7.21-.53.76.05,1.65.75,1.97.73.35,1.66-.79,1.11-1.42-.34-.41-.89-.76-1.54-.75" style="fill:#f1c817;"/></g><g id="uuid-961d36de-8730-42d1-a52a-f486fe46d663"><path id="uuid-f6d65433-c53b-442f-8b44-0676c40937af" d="M50.13,182.56c-.27-.13-.7-.93-.49-1.47.19-.48.79-.68,1.3-.6.58.1.96.48,1.29.88.86,1.02,1.11,2.63-.01,3.48-.46.36-1.28.27-1.6-.23-.41-.63-.11-1.13-.42-1.8.06,0-.13-.26-.06-.26Z" style="fill:#f1c817;"/></g><g id="uuid-cb54fce0-8236-4703-a101-fb8339483d2e"><path id="uuid-2d34f07b-4148-4fe4-b128-f9609072860a" d="M57.97,183.12c-.77-.56-.45-1.67-1.3-2.17-.47-.29-1.1-.36-1.54-.02-.46.37-.46.9-.58,1.46-.06.31.15.58.3.85.62,1.17,2.12,1.21,3.3,1.87.16.09.46-.21.58-.4.36-.58-.22-1.2-.76-1.59Z" style="fill:#f1c817;"/></g><g id="uuid-454765e4-a9bd-4910-88ad-a2359840f962"><path id="uuid-95fd10ad-2442-4108-8e8c-59010fc8ee74" d="M45.48,182.02c-.4-.44-1.08-.3-1.49-.04-.14.08-.28.32-.28.49,0,1.13-.42,2.3.03,3.37.27.65.89,1.43,1.7,1.1.58-.24.94-.88.74-1.5-.36-1.15.17-2.45-.7-3.42Z" style="fill:#f1c817;"/></g><g id="uuid-8130222b-0f3e-461b-9e7b-047cc8cef0ef"><path id="uuid-f9f5d30e-0062-4697-9b73-fbc974423f51" d="M66.83,182.37c-.24-.79-1.79.01-2.35-.5-.49-.45-1.07-.85-1.16-1.55-.39.83-.08,1.68.34,2.41.24.42.78.64,1.14,1.01.4.4.55.95.77,1.46.29.66-.41,1.04-.85,1.12-1.38.23-1.42-1.59-1.85-2.47-.31-.63-1.19-.88-1.65-1.47-.11-.13-.32-.28-.42-.44-.39-.64-1.18-1.1-1.53-1.78-.06.3.05.59.14.85.66,1.92,1.72,3.62,2.63,5.43.26.5.54,1,.69,1.55.14.47.06,1.03-.23,1.32-.29.3-.99-.35-1.13-.13-.5.81.28,1.78.73,2.58.32.57.88,1.13.62,1.77-.05.13-.24.3-.43.35-.67.17-1.26-.23-1.61-.58-1.39-1.34-2.6-2.69-3.71-4.31-.42-.62-.19-1.42-.66-2.03-.27-.35-.78-.91-1.25-.53-.15.13-.33.31-.37.51-.15.79-.32,1.54-.84,2.12-.15.17-.44.44-.5.54-.71,1.21-.87,2.61-1.1,4.03-.06.34-.15.76-.53.94-.4.19-.66-.2-.88-.45-.57-.65-.81-1.43-1.2-2.17-.24-.47-.25-1.03-.57-1.52-.01-.03-.11-.01-.17-.01.05.13-.07.25-.14.33-.38.6-1,.88-1.67,1.11-.37.13-.79-.12-.87-.42-.46-1.69-1.72-2.89-2.23-4.51-.78,0-1.55.17-2.06-.53-1.13-1.54-.9-3.26-1.05-4.95-.25.2-.56.34-.74.62-1.79,2.65-2.48,5.42-3.24,8.43-.15.6-.25.83-.45,1.39-.42,1.18.24,1.35.9.57,1.16-1.38.92-.24,1.03.09.29,2.01,1.42,4,1.88,7.4.39,3.3,1.14,6.61,1.51,8.27,1,5.43,4.91,10.97,7.27,12.34-.28-2.26.57-3.11.38-4.86l.48-.09c.09,3.05,2.54,6.96,5.37,9.14,2.26,2.43,3.49,2.95,5.4,5.48.57.87,1.02,1.27,1.49,1.97,1.04-1.97,2.93-5.44,2.93-9.27,0,0,0,.7,0,0,0-2.94-.1-6.26-.94-8.88,1.7.7,3.59,3.22,5,5.4.85-1.66.38-6.27-.94-8.53-1.32-2.79-3.49-6.61-1.98-12.27.94,2,1.61,1.91,3.12,2.26.28-2.09-.1-5.04,0-5.39-.57-.95-1.88-2.1-1.88-2.1l1.41-2.52c.66-2.52-.66-4.53-.52-4.92-.71-1.44-1.2-2.67-1.5-3.62Z" style="fill:#f1c817;"/></g><g id="uuid-3e28568d-7d06-4863-85a4-2f64939adb65"><path id="uuid-ba6603ee-777d-4800-bec4-ccbe0455839d" d="M50.51,168.39c-.21-.54-.78-.94-.47-1.47.08-.15.4-.11.63-.16.67-.17,1.47-.07,1.91.37.35.35.59.76.88,1.19.29.44.37.98.57,1.47.22.54-.02,1.14-.48,1.4-.53.3-.76.55-1.54.23-.29-.12-.47-.7-.61-.93-.18-.3-.17-1.15-.41-1.43-.22-.24-.34-.33-.46-.66Z" style="fill:#f1c817;"/></g><g id="uuid-ff987eb0-281d-4269-9181-1f21a7239579"><path id="uuid-63086262-b169-4fa3-a6f6-0c462dbf339f" d="M50.01,171.33c-.23-.2-.53-.19-.77-.21-.12,0-.45.02-.43.21.08,1.05-1.25,1.55-1.65,2.38-.4.86.42,1.68,1.11,2.26.55.46,1.42.15,2.08-.04,1.1-.3,1.23-1.72.98-2.67-.2-.72-.69-1.37-1.31-1.93Z" style="fill:#f1c817;"/></g><g id="uuid-7c6d698c-22b9-4f52-85d9-5888aafdb065"><path id="uuid-d697a6d4-0476-4d9a-a018-e4a5711b2e71" d="M62.54,57.38h-12.97v2.78h11.84l1.13-2.78Z" style="fill:#fff;"/></g><g id="uuid-6eb6900f-9766-4907-ad56-ada3d248b980"><path id="uuid-16ea7cc8-6aef-48a1-9fe4-fda0ec71d157" d="M61.08,49.59l.47,2.05,2.45-4.4-2.93,2.35Z" style="fill:#fff;"/></g><g id="uuid-d1e32f4d-543c-4ac3-85ff-236aad84798c"><path id="uuid-8a889812-7c6e-47fa-9a5f-f67e86e9c60c" d="M52.12,55.24l1.32-3,3.78,3h-5.09Z" style="fill:#fff;"/></g><g id="uuid-5259cce1-6393-4de2-950b-41157a34c73b"><path id="uuid-9766290a-1fba-4bf8-b46b-a5902e3b4b16" d="M56.46,51.94l1.75-5.74,1.22,8.09-2.97-2.35Z" style="fill:#fff;"/></g><g id="uuid-353e3e14-fc88-4d86-8730-6fcd4c066e59"><path id="uuid-3d533b9d-44ad-49b6-ab39-2f57f891fb86" d="M9.19,167.33c.1.78.08.3.49.96.38.59.17,1.38.46,2.05.24-.29.71-.43.75-.87.36,1.35-.7,2.64-.18,4,.58-.48,1.43-.59,1.89-1.22-.04.54-.2,1.06-.28,1.58-.15.91.25,1.82.37,2.77.14,1.19,1.75,2.09,1.29,3.27-.75,1.91-1.14,3.94-.47,5.74.14.38.35,1.01.83,1.22.36.15.91.16,1.26,0,.19-.09.36-.38.39-.64.15-.84-.26-1.62-.09-2.43.2-1.04.4-2.08,1.12-2.92.15-.17.7-.11.82.15.47.98.28,2.15.91,3.05.22.3.96.52,1.35.18.88-.76.56-1.94.67-2.92.19-1.63-.64-2.51-.88-4.17-.22-1.56.1-1.79.63-2.43.57,1.46.57,3.05,1.71,4.34.24.27.69.28.88.14.83-.66.66-2.09.06-3.02-.92-1.41-1.66-3.64-.01-4.94-.11.71-.1,1.52.3,2.06.55.73,1.56,2.24,1.71,3.68.06.52.85.72,1.35.32.08-.07-.02-.42.24-.45.79-.1,1.17.76,1.13,1.36.31,0,.73.1.89-.05.76-.72.58-2.43.62-3.43.08-1.84.56-1.14.89-1.31,0,0,.14.88-.04,3.4.28,3.14-.09,7.23-1.04,8.18-.85-.78-.94-1.48-2.07-1.74-3.02,1.31-2.83,13.24-2.64,15.06-.04.44-.76,0-.76,0-1.69-1.56-2.45-3.48-2.92-4.52,0,0-.66-.7-.66,0-.85,2.52-.57,9.39-.19,11.05.38,2,.1,3.13-.94,5.04-.19.53-.56.62-.56-.08-.09-.78-.67-1.12-.94-1.92,0,0-.66-1.12-.85,0-.57,2.96-2.36,6.53-3.02,7.66l-.48.26c.19-2.78-.75-7.13-1.41-10.36-1.51-8.36-3.02-16.18-3.02-27.58,0-5.14.3-10.66.3-10.66l.17.17Z" style="fill:#f1c817;"/></g><g id="uuid-de275811-d0e0-4dbc-91a8-7c533aa467e0"><path id="uuid-3521e803-beed-4a7a-acec-a4b441ddfa68" d="M48.33,188.6c1.34,3.92,3.04,9.23,4.17,11.23-.29-2.26-3.59-11.23-3.49-11.83.09-.61-.68.6-.68.6Z" style="fill:#f1c817;"/></g><g id="uuid-8a090c97-0640-4ba6-9cd0-26ecaad97d8a"><path id="uuid-f1b9c04c-0f1f-4ec4-bd48-01ffe6a4b950" d="M152.35,41.25c-.28-.29-1.3-.14-1.48-.54-.12-.27-.27-.58-.45-.72-.31-.23-.75.09-1.18.15-.58.08-1.2-.03-1.79-.21-1.01,1.07-3.71.36-4.98.45-.16,0,.8.51.97.65.89.71,2.37.64,3.46.68.18,0,.53-.17.67-.19,1.17-.15,2.34.23,3.57.42.38.06,1.6-.31,1.21-.69Z" style="fill:#fff;"/></g><g id="uuid-d2e24401-f634-4ad2-a570-a9bf7e1d6286"><path id="uuid-b99fbb55-c0e8-4165-9518-aa7d1877b37f" d="M170.69,42.76l-2.8-1.48c-.17-.25-.39-.56-.65-.79-.63-.53-.96-1.16-1.69-1.58-.96-.57-1.75-1.3-2.81-1.66-.12-.04-.24,0-.37-.02-.08-.02-.13-.08-.11-.17-.09,0-.21.03-.27-.01-.14-.15-.37-.24-.5-.28-.55-.17-1.17.13-1.66-.26-.27-.23-.6-.36-.9-.54-.83-.5-1.79-.2-2.69-.07-.18.02-.45.24-.63.39-.34.27-.9-.22-1.35-.08-.39.12-.83.54-.45.89.41.38.94.64,1.49.76,1.62.38,3.32,0,4.86.63.44.18.98.38,1.16.91-.15.03-.32.16-.46.07-.38-.25-.79-.24-1.15-.27-2.58-.19-5.15-.39-7.73-.06,0,.6.26,1.25.86,1.32.8.1,1.66-.13,2.43-.08.84.05,1.74.56,2.58.99.11.06.31.05.45,0,.38-.14.71-.64,1.12-.47.26.12.53.22.79.26.59.09,1.02,0,1.58.07,1.19.16,2.21.9,3.38.74.89-.12,1.29.15,1.73.52-.26-.21,1.62,1.03,1.79.72.07-.11,1.98-.22,2-.48Z" style="fill:#fff;"/></g><g id="uuid-7752313b-6c7b-4b2c-a9cb-974033b2b332"><path id="uuid-835aa3a8-dbfc-4e48-9054-21f99a37902a" d="M177.52,42.22c-.76-.44-.85-1.31-1.25-1.96-.31-.49-.73-.89-1.22-1.13-2.22-1.06-4.8-2.9-6.45-2.76-.52.05-.73.56-.44.83.57.51,1.57.68,1.65,1.51,2.21,1.02,6.09,1.7,5.91,3.92-.01.22,1.42-.46,1.8-.41Z" style="fill:#fff;"/></g><g id="uuid-830089f1-6002-4014-9e8b-14ec26ac22d4"><path id="uuid-6a034818-cc9f-4668-9b0e-8e99cd159444" d="M49.57,57.38l13.91-.02c-.76,1.39-1.21,2.82-1.21,2.82h-12.7v-2.8h0Z" style="fill:#f1c817;"/></g></g></g></svg>